<?xml version="1.0" encoding="utf-8"?>
<!-- Generator: Adobe Illustrator 27.9.0, SVG Export Plug-In . SVG Version: 6.00 Build 0)  -->
<svg version="1.1" id="Layer_1" xmlns="http://www.w3.org/2000/svg" xmlns:xlink="http://www.w3.org/1999/xlink" x="0px" y="0px"
	 viewBox="0 0 7500 3000" style="enable-background:new 0 0 7500 3000;" xml:space="preserve">
<style type="text/css">
	.st0{display:none;fill:#FFFFFF;}
	.st1{display:none;}
	.st2{display:inline;}
	.st3{fill:none;stroke:#000000;stroke-width:10;stroke-linecap:round;stroke-linejoin:round;stroke-miterlimit:10;}
</style>
<rect class="st0" width="7500" height="3000"/>
<g class="st1">
	<g class="st2">
		<path d="M586.35,1260.89h-0.14c-0.92,0-1.69-0.78-1.69-1.69v-46.03c0-0.92,0.78-1.69,1.69-1.69c0.99,0,1.76,0.78,1.76,1.69v44.27
			h23.65c0.99,0,1.77,0.78,1.77,1.77c0,0.92-0.78,1.69-1.77,1.69H586.35z"/>
		<path d="M637.54,1226.3c9.11,0,16.38,7.91,16.38,17.3c0,9.39-7.27,17.3-16.38,17.3c-9.04,0-16.38-7.91-16.38-17.3
			C621.16,1234.2,628.51,1226.3,637.54,1226.3z M637.54,1257.5c7.06,0,12.99-6.21,12.99-13.91s-5.93-13.98-12.99-13.98
			c-7.06,0-12.99,6.28-12.99,13.98S630.48,1257.5,637.54,1257.5z"/>
		<path d="M665.51,1228.06c0-0.99,0.78-1.69,1.77-1.69c0.85,0,1.62,0.71,1.62,1.69v7.62c0.14-0.28,0.28-0.56,0.49-0.85
			c2.61-4.09,7.2-8.47,13.84-8.47c0.92,0,1.69,0.71,1.69,1.69c0,0.92-0.78,1.69-1.69,1.69c-4.52,0-7.62,2.54-10.03,5.65
			c-2.33,3.11-3.67,6.64-4.17,8.05c-0.14,0.28-0.14,0.42-0.14,0.56v15.18c0,0.99-0.78,1.69-1.62,1.69c-0.99,0-1.77-0.71-1.77-1.69
			V1228.06z"/>
		<path d="M690.5,1243.67c0-9.6,7.48-17.37,16.8-17.37c8.9,0,15.96,7.06,16.66,16.1v0.07v0.21c0,0.92-0.78,1.55-1.69,1.55h-28.38
			c0.35,7.55,6.28,13.27,13.41,13.27c4.59,0,8.83-2.4,11.15-6.28c0.49-0.85,1.55-0.99,2.26-0.56c0.78,0.56,1.06,1.55,0.56,2.4
			c-2.97,4.73-8.12,7.84-13.98,7.84C697.99,1260.89,690.5,1253.13,690.5,1243.67z M694.1,1240.91h26.19
			c-1.13-6.5-6.64-11.23-12.99-11.23C700.81,1229.69,695.38,1234.35,694.1,1240.91z"/>
		<path d="M785.47,1240.42c-0.14-5.86-4.8-10.73-10.73-10.73c-5.86,0-10.66,4.87-10.66,10.73v18.85v0.21c0,0.07-0.07,0.14-0.07,0.14
			v0.14c-0.14,0.42-0.49,0.71-0.85,0.92c-0.28,0.14-0.57,0.21-0.85,0.21h-0.21h-0.14c-0.07,0-0.14-0.07-0.14-0.07
			c-0.14,0-0.28-0.14-0.42-0.21c-0.07,0-0.14-0.07-0.21-0.14l-0.21-0.21c-0.07-0.07-0.07-0.14-0.14-0.14c0-0.07,0-0.07-0.07-0.14
			c0,0,0-0.07-0.07-0.14c0-0.07,0-0.14-0.07-0.21v-0.21v-0.14v-18.85c0-5.86-4.73-10.73-10.66-10.73c-5.93,0-10.66,4.87-10.66,10.73
			v18.85c0,0.57-0.28,1.06-0.78,1.34c-0.07,0.07-0.28,0.21-0.42,0.21c-0.07,0.07-0.14,0.07-0.28,0.07h-0.21h-0.21
			c-0.64-0.07-1.2-0.64-1.41-1.27v-0.35v-18.85v-0.56v-11.86c0-0.92,0.78-1.62,1.62-1.62c0.99,0,1.7,0.71,1.7,1.62v3.32
			c2.54-3.04,6.35-4.94,10.66-4.94c5.37,0,9.96,2.97,12.36,7.34c2.47-4.38,7.13-7.34,12.43-7.34c7.77,0,14.05,6.28,14.05,14.05
			v18.85c0,0.85-0.71,1.62-1.69,1.62c-0.92,0-1.62-0.78-1.62-1.62V1240.42z"/>
		<path d="M846.05,1216.7c0-0.92,0.78-1.69,1.69-1.69c0.99,0,1.77,0.78,1.77,1.69v1.62c0,0.99-0.78,1.84-1.77,1.84
			c-0.92,0-1.69-0.85-1.69-1.84V1216.7z M846.05,1227.99c0-0.99,0.78-1.69,1.69-1.69c0.99,0,1.77,0.71,1.77,1.69v31.21
			c0,0.92-0.78,1.69-1.77,1.69c-0.92,0-1.69-0.78-1.69-1.69V1227.99z"/>
		<path d="M865.82,1244.16v-0.71v-0.71v-14.76c0-0.92,0.78-1.69,1.69-1.69c0.99,0,1.77,0.78,1.77,1.69v5.01
			c2.97-4.02,7.77-6.71,13.13-6.71c9.32,0,16.73,7.7,16.73,17.16c0,9.39-7.41,17.23-16.73,17.23c-5.37,0-10.17-2.68-13.13-6.78
			v19.77c0,0.92-0.78,1.69-1.77,1.69c-0.92,0-1.69-0.78-1.69-1.69V1244.16z M869.28,1243.45c0,7.63,6,13.77,13.13,13.84
			c7.34-0.07,13.27-6.21,13.27-13.84c0-7.62-5.93-13.7-13.27-13.7c-6.99,0-12.85,5.79-13.13,13.13V1243.45z"/>
		<path d="M910.02,1253.69c0.57-0.71,1.62-0.85,2.4-0.21c2.4,1.77,6.21,4.02,10.59,4.02c2.68,0,5.01-0.85,6.57-2.12
			c1.69-1.13,2.61-2.68,2.61-4.24c-0.07-1.62-0.71-2.75-2.47-4.24c-1.48-1.13-3.95-1.98-7.34-2.54l-0.14-0.07
			c-3.11-0.57-5.86-1.27-7.84-2.68c-2.19-1.27-3.74-3.53-3.74-6.21c0-2.75,1.55-5.15,3.74-6.78c2.05-1.41,4.94-2.33,8.47-2.33
			c4.45,0,7.63,2.05,10.31,3.74c0.78,0.57,0.99,1.62,0.49,2.4c-0.49,0.78-1.55,0.99-2.33,0.49c-2.54-1.69-5.08-3.46-8.47-3.46
			c-2.82,0-5.08,0.78-6.57,1.98c-1.41,1.13-2.19,2.54-2.19,3.95c0,1.41,0.64,2.4,1.98,3.46c1.55,1.06,3.88,1.91,7.06,2.4h0.14
			c3.32,0.49,6,1.48,8.4,2.82c2.26,1.48,3.88,4.17,3.88,7.06c0,2.89-1.62,5.22-3.95,6.99c-2.4,1.77-5.22,2.75-8.61,2.75
			c-5.58-0.07-9.96-2.68-12.78-4.94C909.53,1255.31,909.46,1254.4,910.02,1253.69z"/>
		<path d="M946.46,1227.92c0-0.99,0.78-1.69,1.69-1.69c0.92,0,1.69,0.71,1.69,1.69v18.85c0,5.93,4.73,10.66,10.59,10.73
			c5.93-0.07,10.73-4.8,10.73-10.73v-18.85c0-0.99,0.85-1.69,1.69-1.69c0.99,0,1.77,0.71,1.77,1.69v18.85
			c0,7.77-6.28,14.12-14.19,14.12c-7.77,0-13.98-6.35-13.98-14.12V1227.92z"/>
		<path d="M1039.94,1240.42c-0.14-5.86-4.8-10.73-10.73-10.73c-5.86,0-10.66,4.87-10.66,10.73v18.85v0.21
			c0,0.07-0.07,0.14-0.07,0.14v0.14c-0.14,0.42-0.49,0.71-0.85,0.92c-0.28,0.14-0.56,0.21-0.85,0.21h-0.21h-0.14
			c-0.07,0-0.14-0.07-0.14-0.07c-0.14,0-0.28-0.14-0.42-0.21c-0.07,0-0.14-0.07-0.21-0.14l-0.21-0.21
			c-0.07-0.07-0.07-0.14-0.14-0.14c0-0.07,0-0.07-0.07-0.14c0,0,0-0.07-0.07-0.14c0-0.07,0-0.14-0.07-0.21v-0.21v-0.14v-18.85
			c0-5.86-4.73-10.73-10.66-10.73c-5.93,0-10.66,4.87-10.66,10.73v18.85c0,0.57-0.28,1.06-0.78,1.34c-0.07,0.07-0.28,0.21-0.42,0.21
			c-0.07,0.07-0.14,0.07-0.28,0.07h-0.21h-0.21c-0.64-0.07-1.2-0.64-1.41-1.27v-0.35v-18.85v-0.56v-11.86
			c0-0.92,0.78-1.62,1.62-1.62c0.99,0,1.69,0.71,1.69,1.62v3.32c2.54-3.04,6.35-4.94,10.66-4.94c5.37,0,9.96,2.97,12.36,7.34
			c2.47-4.38,7.13-7.34,12.43-7.34c7.77,0,14.05,6.28,14.05,14.05v18.85c0,0.85-0.71,1.62-1.69,1.62c-0.92,0-1.62-0.78-1.62-1.62
			V1240.42z"/>
		<path d="M1128.13,1254.19c-3.04,4.09-7.84,6.71-13.27,6.71c-9.32,0-16.73-7.77-16.73-17.23c0-9.6,7.41-17.37,16.73-17.37
			c5.44,0,10.24,2.68,13.27,6.78v-19.91c0-0.92,0.78-1.69,1.77-1.69c0.92,0,1.69,0.78,1.69,1.69v29.79v0.71v15.53
			c0,0.92-0.78,1.69-1.69,1.69c-0.99,0-1.77-0.78-1.77-1.69V1254.19z M1128.13,1244.23v-1.13c-0.28-7.41-6.14-13.34-13.27-13.34
			c-7.27,0-13.27,6.21-13.27,13.91c0,7.62,6,13.77,13.27,13.77C1121.99,1257.43,1127.85,1251.57,1128.13,1244.23z"/>
		<path d="M1161.81,1226.3c9.11,0,16.38,7.91,16.38,17.3c0,9.39-7.27,17.3-16.38,17.3c-9.04,0-16.38-7.91-16.38-17.3
			C1145.43,1234.2,1152.77,1226.3,1161.81,1226.3z M1161.81,1257.5c7.06,0,12.99-6.21,12.99-13.91s-5.93-13.98-12.99-13.98
			s-12.99,6.28-12.99,13.98S1154.75,1257.5,1161.81,1257.5z"/>
		<path d="M1191.68,1213.17c0-0.92,0.78-1.69,1.69-1.69c0.99,0,1.77,0.78,1.77,1.69v46.03c0,0.92-0.78,1.69-1.77,1.69
			c-0.92,0-1.69-0.78-1.69-1.69V1213.17z"/>
		<path d="M1223.52,1226.3c9.11,0,16.38,7.91,16.38,17.3c0,9.39-7.27,17.3-16.38,17.3c-9.04,0-16.38-7.91-16.38-17.3
			C1207.14,1234.2,1214.49,1226.3,1223.52,1226.3z M1223.52,1257.5c7.06,0,12.99-6.21,12.99-13.91s-5.93-13.98-12.99-13.98
			s-12.99,6.28-12.99,13.98S1216.46,1257.5,1223.52,1257.5z"/>
		<path d="M1251.49,1228.06c0-0.99,0.78-1.69,1.77-1.69c0.85,0,1.62,0.71,1.62,1.69v7.62c0.14-0.28,0.28-0.56,0.49-0.85
			c2.61-4.09,7.2-8.47,13.84-8.47c0.92,0,1.69,0.71,1.69,1.69c0,0.92-0.78,1.69-1.69,1.69c-4.52,0-7.62,2.54-10.03,5.65
			c-2.33,3.11-3.67,6.64-4.17,8.05c-0.14,0.28-0.14,0.42-0.14,0.56v15.18c0,0.99-0.78,1.69-1.62,1.69c-0.99,0-1.77-0.71-1.77-1.69
			V1228.06z"/>
		<path d="M1322.94,1253.69c0.56-0.71,1.62-0.85,2.4-0.21c2.4,1.77,6.21,4.02,10.59,4.02c2.68,0,5.01-0.85,6.57-2.12
			c1.69-1.13,2.61-2.68,2.61-4.24c-0.07-1.62-0.71-2.75-2.47-4.24c-1.48-1.13-3.95-1.98-7.34-2.54l-0.14-0.07
			c-3.11-0.57-5.86-1.27-7.84-2.68c-2.19-1.27-3.74-3.53-3.74-6.21c0-2.75,1.55-5.15,3.74-6.78c2.05-1.41,4.94-2.33,8.47-2.33
			c4.45,0,7.63,2.05,10.31,3.74c0.78,0.57,0.99,1.62,0.49,2.4c-0.49,0.78-1.55,0.99-2.33,0.49c-2.54-1.69-5.08-3.46-8.47-3.46
			c-2.82,0-5.08,0.78-6.57,1.98c-1.41,1.13-2.19,2.54-2.19,3.95c0,1.41,0.64,2.4,1.98,3.46c1.55,1.06,3.88,1.91,7.06,2.4h0.14
			c3.32,0.49,6,1.48,8.4,2.82c2.26,1.48,3.88,4.17,3.88,7.06c0,2.89-1.62,5.22-3.95,6.99c-2.4,1.77-5.22,2.75-8.61,2.75
			c-5.58-0.07-9.96-2.68-12.78-4.94C1322.45,1255.31,1322.38,1254.4,1322.94,1253.69z"/>
		<path d="M1360.15,1216.7c0-0.92,0.78-1.69,1.69-1.69c0.99,0,1.77,0.78,1.77,1.69v1.62c0,0.99-0.78,1.84-1.77,1.84
			c-0.92,0-1.69-0.85-1.69-1.84V1216.7z M1360.15,1227.99c0-0.99,0.78-1.69,1.69-1.69c0.99,0,1.77,0.71,1.77,1.69v31.21
			c0,0.92-0.78,1.69-1.77,1.69c-0.92,0-1.69-0.78-1.69-1.69V1227.99z"/>
		<path d="M1392,1227.99c0,0.85-0.85,1.69-1.69,1.69h-4.45v25.2c0,1.69,1.69,2.54,2.54,2.54s1.77,0.92,1.77,1.77
			c0,0.85-0.92,1.69-1.77,1.69c-3.46,0-6.07-2.54-6.07-6v-25.2h-4.31c-1.69,0-1.69-0.85-1.69-1.69s0-1.69,1.69-1.69h4.31v-12.85
			c0-0.85,0.85-1.69,1.69-1.69c0.92,0,1.84,0.85,1.84,1.69v12.85h4.45C1391.15,1226.3,1392,1227.14,1392,1227.99z"/>
		<path d="M1480.04,1227.99v31.21c0,0.92-0.78,1.69-1.69,1.69c-0.92,0-1.69-0.78-1.69-1.69v-5.15c-2.97,4.1-7.7,6.85-12.99,6.85
			c-9.11,0-16.38-7.84-16.38-17.3c0-9.46,7.27-17.3,16.38-17.3c5.29,0,10.03,2.68,12.99,6.78v-5.08c0-0.99,0.78-1.69,1.69-1.69
			C1479.27,1226.3,1480.04,1227,1480.04,1227.99z M1476.65,1243.59c0-7.77-5.86-13.98-12.99-13.98c-7.06,0-12.99,6.21-12.99,13.98
			c0,7.77,5.93,13.91,12.99,13.91C1470.79,1257.5,1476.65,1251.36,1476.65,1243.59z"/>
		<path d="M1544.22,1240.42c-0.14-5.86-4.8-10.73-10.73-10.73c-5.86,0-10.66,4.87-10.66,10.73v18.85v0.21
			c0,0.07-0.07,0.14-0.07,0.14v0.14c-0.14,0.42-0.49,0.71-0.85,0.92c-0.28,0.14-0.56,0.21-0.85,0.21h-0.21h-0.14
			c-0.07,0-0.14-0.07-0.14-0.07c-0.14,0-0.28-0.14-0.42-0.21c-0.07,0-0.14-0.07-0.21-0.14l-0.21-0.21
			c-0.07-0.07-0.07-0.14-0.14-0.14c0-0.07,0-0.07-0.07-0.14c0,0,0-0.07-0.07-0.14c0-0.07,0-0.14-0.07-0.21v-0.21v-0.14v-18.85
			c0-5.86-4.73-10.73-10.66-10.73c-5.93,0-10.66,4.87-10.66,10.73v18.85c0,0.57-0.28,1.06-0.78,1.34c-0.07,0.07-0.28,0.21-0.42,0.21
			c-0.07,0.07-0.14,0.07-0.28,0.07h-0.21h-0.21c-0.64-0.07-1.2-0.64-1.41-1.27v-0.35v-18.85v-0.56v-11.86
			c0-0.92,0.78-1.62,1.62-1.62c0.99,0,1.69,0.71,1.69,1.62v3.32c2.54-3.04,6.35-4.94,10.66-4.94c5.37,0,9.95,2.97,12.36,7.34
			c2.47-4.38,7.13-7.34,12.43-7.34c7.77,0,14.05,6.28,14.05,14.05v18.85c0,0.85-0.71,1.62-1.69,1.62c-0.92,0-1.62-0.78-1.62-1.62
			V1240.42z"/>
		<path d="M1559.41,1243.67c0-9.6,7.48-17.37,16.8-17.37c8.9,0,15.96,7.06,16.66,16.1v0.07v0.21c0,0.92-0.78,1.55-1.69,1.55h-28.38
			c0.35,7.55,6.28,13.27,13.41,13.27c4.59,0,8.83-2.4,11.15-6.28c0.49-0.85,1.55-0.99,2.26-0.56c0.78,0.56,1.06,1.55,0.56,2.4
			c-2.97,4.73-8.12,7.84-13.98,7.84C1566.89,1260.89,1559.41,1253.13,1559.41,1243.67z M1563.01,1240.91h26.19
			c-1.13-6.5-6.64-11.23-12.99-11.23C1569.72,1229.69,1564.28,1234.35,1563.01,1240.91z"/>
		<path d="M1614.13,1227.99c0,0.85-0.85,1.69-1.69,1.69h-4.45v25.2c0,1.69,1.69,2.54,2.54,2.54c0.85,0,1.77,0.92,1.77,1.77
			c0,0.85-0.92,1.69-1.77,1.69c-3.46,0-6.07-2.54-6.07-6v-25.2h-4.31c-1.69,0-1.69-0.85-1.69-1.69s0-1.69,1.69-1.69h4.31v-12.85
			c0-0.85,0.85-1.69,1.69-1.69c0.92,0,1.84,0.85,1.84,1.69v12.85h4.45C1613.28,1226.3,1614.13,1227.14,1614.13,1227.99z"/>
		<path d="M1628.11,1266.33c2.54-1.41,3.53-2.96,3.32-5.44c-1.06-0.28-1.91-1.06-1.91-2.47v-1.48c0-1.34,0.99-2.33,2.33-2.33
			c1.34,0,2.33,0.99,2.33,2.33v1.77c0,3.95-0.64,6.07-1.91,7.34c-1.27,1.27-3.04,2.26-3.67,2.26c-0.49,0-1.06-0.35-1.06-1.06
			C1627.55,1266.89,1627.76,1266.54,1628.11,1266.33z"/>
		<path d="M1686.93,1243.52c0-9.6,7.91-17.23,17.79-17.23c4.09,0,7.98,1.41,11.01,3.81c0.71,0.49,0.85,1.55,0.21,2.33
			c-0.56,0.64-1.55,0.85-2.33,0.28c-2.47-1.98-5.58-3.11-8.9-3.11c-8.05,0-14.4,6.28-14.4,13.91c0,7.77,6.35,13.98,14.4,13.98
			c3.32,0,6.42-1.13,8.9-3.04c0.78-0.56,1.77-0.35,2.33,0.28c0.64,0.78,0.49,1.84-0.35,2.47c-2.9,2.26-6.78,3.67-10.87,3.67
			C1694.84,1260.89,1686.93,1253.27,1686.93,1243.52z"/>
		<path d="M1743.41,1226.3c9.11,0,16.38,7.91,16.38,17.3c0,9.39-7.27,17.3-16.38,17.3c-9.04,0-16.38-7.91-16.38-17.3
			C1727.03,1234.2,1734.38,1226.3,1743.41,1226.3z M1743.41,1257.5c7.06,0,12.99-6.21,12.99-13.91s-5.93-13.98-12.99-13.98
			s-12.99,6.28-12.99,13.98S1736.35,1257.5,1743.41,1257.5z"/>
		<path d="M1797.5,1240.42c0-5.86-4.73-10.66-10.66-10.66c-5.86,0-10.59,4.8-10.73,10.66v18.78v0.28c-0.07,0.28-0.14,0.56-0.35,0.78
			c-0.28,0.42-0.78,0.64-1.27,0.64h-0.42c-0.49-0.14-0.92-0.49-1.13-0.92c-0.07-0.07-0.07-0.14-0.07-0.21
			c0-0.07-0.07-0.14-0.07-0.14v-0.42v-18.78v-0.56v-11.79c0-0.92,0.71-1.69,1.69-1.69c0.92,0,1.62,0.78,1.62,1.69v3.32
			c2.54-3.04,6.42-5.01,10.73-5.01c7.77,0,14.05,6.35,14.05,14.05v18.78c0,0.99-0.78,1.69-1.69,1.69c-0.92,0-1.69-0.71-1.69-1.69
			V1240.42z"/>
		<path d="M1813.67,1253.69c0.56-0.71,1.62-0.85,2.4-0.21c2.4,1.77,6.21,4.02,10.59,4.02c2.68,0,5.01-0.85,6.57-2.12
			c1.69-1.13,2.61-2.68,2.61-4.24c-0.07-1.62-0.71-2.75-2.47-4.24c-1.48-1.13-3.95-1.98-7.34-2.54l-0.14-0.07
			c-3.11-0.57-5.86-1.27-7.84-2.68c-2.19-1.27-3.74-3.53-3.74-6.21c0-2.75,1.55-5.15,3.74-6.78c2.05-1.41,4.94-2.33,8.47-2.33
			c4.45,0,7.63,2.05,10.31,3.74c0.78,0.57,0.99,1.62,0.49,2.4c-0.49,0.78-1.55,0.99-2.33,0.49c-2.54-1.69-5.08-3.46-8.47-3.46
			c-2.82,0-5.08,0.78-6.57,1.98c-1.41,1.13-2.19,2.54-2.19,3.95c0,1.41,0.64,2.4,1.98,3.46c1.55,1.06,3.88,1.91,7.06,2.4h0.14
			c3.32,0.49,6,1.48,8.4,2.82c2.26,1.48,3.88,4.17,3.88,7.06c0,2.89-1.62,5.22-3.95,6.99c-2.4,1.77-5.22,2.75-8.61,2.75
			c-5.58-0.07-9.96-2.68-12.78-4.94C1813.18,1255.31,1813.11,1254.4,1813.67,1253.69z"/>
		<path d="M1848.34,1243.67c0-9.6,7.48-17.37,16.8-17.37c8.9,0,15.96,7.06,16.66,16.1v0.07v0.21c0,0.92-0.78,1.55-1.69,1.55h-28.38
			c0.35,7.55,6.28,13.27,13.41,13.27c4.59,0,8.83-2.4,11.15-6.28c0.49-0.85,1.55-0.99,2.26-0.56c0.78,0.56,1.06,1.55,0.56,2.4
			c-2.97,4.73-8.12,7.84-13.98,7.84C1855.82,1260.89,1848.34,1253.13,1848.34,1243.67z M1851.94,1240.91h26.19
			c-1.13-6.5-6.64-11.23-12.99-11.23C1858.65,1229.69,1853.21,1234.35,1851.94,1240.91z"/>
		<path d="M1891.34,1243.52c0-9.6,7.91-17.23,17.79-17.23c4.09,0,7.98,1.41,11.01,3.81c0.71,0.49,0.85,1.55,0.21,2.33
			c-0.56,0.64-1.55,0.85-2.33,0.28c-2.47-1.98-5.58-3.11-8.9-3.11c-8.05,0-14.4,6.28-14.4,13.91c0,7.77,6.35,13.98,14.4,13.98
			c3.32,0,6.42-1.13,8.9-3.04c0.78-0.56,1.77-0.35,2.33,0.28c0.64,0.78,0.49,1.84-0.35,2.47c-2.9,2.26-6.78,3.67-10.87,3.67
			C1899.25,1260.89,1891.34,1253.27,1891.34,1243.52z"/>
		<path d="M1946.2,1227.99c0,0.85-0.85,1.69-1.69,1.69h-4.45v25.2c0,1.69,1.69,2.54,2.54,2.54c0.85,0,1.76,0.92,1.76,1.77
			c0,0.85-0.92,1.69-1.76,1.69c-3.46,0-6.07-2.54-6.07-6v-25.2h-4.31c-1.69,0-1.69-0.85-1.69-1.69s0-1.69,1.69-1.69h4.31v-12.85
			c0-0.85,0.85-1.69,1.69-1.69c0.92,0,1.84,0.85,1.84,1.69v12.85h4.45C1945.35,1226.3,1946.2,1227.14,1946.2,1227.99z"/>
		<path d="M1957.08,1243.67c0-9.6,7.48-17.37,16.8-17.37c8.9,0,15.96,7.06,16.66,16.1v0.07v0.21c0,0.92-0.78,1.55-1.69,1.55h-28.38
			c0.35,7.55,6.28,13.27,13.41,13.27c4.59,0,8.83-2.4,11.15-6.28c0.49-0.85,1.55-0.99,2.26-0.56c0.78,0.56,1.06,1.55,0.56,2.4
			c-2.97,4.73-8.12,7.84-13.98,7.84C1964.56,1260.89,1957.08,1253.13,1957.08,1243.67z M1960.68,1240.91h26.19
			c-1.13-6.5-6.64-11.23-12.99-11.23C1967.38,1229.69,1961.95,1234.35,1960.68,1240.91z"/>
		<path d="M2011.8,1227.99c0,0.85-0.85,1.69-1.69,1.69h-4.45v25.2c0,1.69,1.69,2.54,2.54,2.54c0.85,0,1.77,0.92,1.77,1.77
			c0,0.85-0.92,1.69-1.77,1.69c-3.46,0-6.07-2.54-6.07-6v-25.2h-4.31c-1.69,0-1.69-0.85-1.69-1.69s0-1.69,1.69-1.69h4.31v-12.85
			c0-0.85,0.85-1.69,1.69-1.69c0.92,0,1.84,0.85,1.84,1.69v12.85h4.45C2010.95,1226.3,2011.8,1227.14,2011.8,1227.99z"/>
		<path d="M2027.26,1227.92c0-0.99,0.78-1.69,1.69-1.69c0.92,0,1.69,0.71,1.69,1.69v18.85c0,5.93,4.73,10.66,10.59,10.73
			c5.93-0.07,10.73-4.8,10.73-10.73v-18.85c0-0.99,0.85-1.69,1.69-1.69c0.99,0,1.76,0.71,1.76,1.69v18.85
			c0,7.77-6.28,14.12-14.19,14.12c-7.77,0-13.98-6.35-13.98-14.12V1227.92z"/>
		<path d="M2068.78,1243.67c0-9.6,7.48-17.37,16.8-17.37c8.9,0,15.96,7.06,16.66,16.1v0.07v0.21c0,0.92-0.78,1.55-1.69,1.55h-28.38
			c0.35,7.55,6.28,13.27,13.41,13.27c4.59,0,8.83-2.4,11.15-6.28c0.49-0.85,1.55-0.99,2.26-0.56c0.78,0.56,1.06,1.55,0.56,2.4
			c-2.97,4.73-8.12,7.84-13.98,7.84C2076.26,1260.89,2068.78,1253.13,2068.78,1243.67z M2072.38,1240.91h26.19
			c-1.13-6.5-6.64-11.23-12.99-11.23C2079.09,1229.69,2073.65,1234.35,2072.38,1240.91z"/>
		<path d="M2112.77,1228.06c0-0.99,0.78-1.69,1.76-1.69c0.85,0,1.62,0.71,1.62,1.69v7.62c0.14-0.28,0.28-0.56,0.49-0.85
			c2.61-4.09,7.2-8.47,13.84-8.47c0.92,0,1.69,0.71,1.69,1.69c0,0.92-0.78,1.69-1.69,1.69c-4.52,0-7.62,2.54-10.03,5.65
			c-2.33,3.11-3.67,6.64-4.17,8.05c-0.14,0.28-0.14,0.42-0.14,0.56v15.18c0,0.99-0.78,1.69-1.62,1.69c-0.99,0-1.76-0.71-1.76-1.69
			V1228.06z"/>
		<path d="M612.76,1312.72v31.21c0,0.92-0.78,1.69-1.69,1.69c-0.92,0-1.69-0.78-1.69-1.69v-5.15c-2.97,4.1-7.7,6.85-12.99,6.85
			c-9.11,0-16.38-7.84-16.38-17.3c0-9.46,7.27-17.3,16.38-17.3c5.29,0,10.03,2.68,12.99,6.78v-5.08c0-0.99,0.78-1.69,1.69-1.69
			C611.98,1311.03,612.76,1311.73,612.76,1312.72z M609.37,1328.33c0-7.77-5.86-13.98-12.99-13.98c-7.06,0-12.99,6.21-12.99,13.98
			c0,7.77,5.93,13.91,12.99,13.91C603.51,1342.23,609.37,1336.09,609.37,1328.33z"/>
		<path d="M655.12,1338.92c-3.04,4.09-7.84,6.71-13.27,6.71c-9.32,0-16.73-7.77-16.73-17.23c0-9.6,7.41-17.37,16.73-17.37
			c5.44,0,10.24,2.68,13.27,6.78v-19.91c0-0.92,0.78-1.69,1.77-1.69c0.92,0,1.69,0.78,1.69,1.69v29.79v0.71v15.53
			c0,0.92-0.78,1.69-1.69,1.69c-0.99,0-1.77-0.78-1.77-1.69V1338.92z M655.12,1328.96v-1.13c-0.28-7.41-6.14-13.34-13.27-13.34
			c-7.27,0-13.27,6.21-13.27,13.91c0,7.62,6,13.77,13.27,13.77C648.98,1342.16,654.84,1336.3,655.12,1328.96z"/>
		<path d="M674.12,1301.43c0-0.92,0.78-1.69,1.69-1.69c0.99,0,1.77,0.78,1.77,1.69v1.62c0,0.99-0.78,1.84-1.77,1.84
			c-0.92,0-1.69-0.85-1.69-1.84V1301.43z M674.12,1312.72c0-0.99,0.78-1.69,1.69-1.69c0.99,0,1.77,0.71,1.77,1.69v31.21
			c0,0.92-0.78,1.69-1.77,1.69c-0.92,0-1.69-0.78-1.69-1.69V1312.72z"/>
		<path d="M693.89,1328.89v-0.71v-0.71v-14.76c0-0.92,0.78-1.69,1.69-1.69c0.99,0,1.76,0.78,1.76,1.69v5.01
			c2.97-4.02,7.77-6.71,13.13-6.71c9.32,0,16.73,7.7,16.73,17.16c0,9.39-7.41,17.23-16.73,17.23c-5.37,0-10.17-2.68-13.13-6.78
			v19.77c0,0.92-0.78,1.69-1.76,1.69c-0.92,0-1.69-0.78-1.69-1.69V1328.89z M697.35,1328.18c0,7.63,6,13.77,13.13,13.84
			c7.34-0.07,13.27-6.21,13.27-13.84c0-7.62-5.93-13.7-13.27-13.7c-6.99,0-12.85,5.79-13.13,13.13V1328.18z"/>
		<path d="M738.37,1301.43c0-0.92,0.78-1.69,1.69-1.69c0.99,0,1.77,0.78,1.77,1.69v1.62c0,0.99-0.78,1.84-1.77,1.84
			c-0.92,0-1.69-0.85-1.69-1.84V1301.43z M738.37,1312.72c0-0.99,0.78-1.69,1.69-1.69c0.99,0,1.77,0.71,1.77,1.69v31.21
			c0,0.92-0.78,1.69-1.77,1.69c-0.92,0-1.69-0.78-1.69-1.69V1312.72z"/>
		<path d="M755.74,1338.42c0.56-0.71,1.62-0.85,2.4-0.21c2.4,1.77,6.21,4.02,10.59,4.02c2.68,0,5.01-0.85,6.57-2.12
			c1.7-1.13,2.61-2.68,2.61-4.24c-0.07-1.62-0.71-2.75-2.47-4.24c-1.48-1.13-3.95-1.98-7.34-2.54l-0.14-0.07
			c-3.11-0.56-5.86-1.27-7.84-2.68c-2.19-1.27-3.74-3.53-3.74-6.21c0-2.75,1.55-5.15,3.74-6.78c2.05-1.41,4.94-2.33,8.47-2.33
			c4.45,0,7.63,2.05,10.31,3.74c0.78,0.57,0.99,1.62,0.49,2.4c-0.49,0.78-1.55,0.99-2.33,0.49c-2.54-1.69-5.08-3.46-8.47-3.46
			c-2.82,0-5.08,0.78-6.57,1.98c-1.41,1.13-2.19,2.54-2.19,3.95c0,1.41,0.64,2.4,1.98,3.46c1.55,1.06,3.88,1.91,7.06,2.4h0.14
			c3.32,0.49,6,1.48,8.4,2.82c2.26,1.48,3.88,4.17,3.88,7.06c0,2.89-1.62,5.22-3.95,6.99c-2.4,1.77-5.22,2.75-8.61,2.75
			c-5.58-0.07-9.96-2.68-12.78-4.94C755.25,1340.05,755.18,1339.13,755.74,1338.42z"/>
		<path d="M790.41,1328.25c0-9.6,7.91-17.23,17.79-17.23c4.1,0,7.98,1.41,11.01,3.81c0.71,0.49,0.85,1.55,0.21,2.33
			c-0.57,0.64-1.55,0.85-2.33,0.28c-2.47-1.98-5.58-3.11-8.9-3.11c-8.05,0-14.4,6.28-14.4,13.91c0,7.77,6.35,13.98,14.4,13.98
			c3.32,0,6.42-1.13,8.9-3.04c0.78-0.56,1.77-0.35,2.33,0.28c0.64,0.78,0.49,1.84-0.35,2.47c-2.89,2.26-6.78,3.67-10.87,3.67
			C798.32,1345.62,790.41,1338,790.41,1328.25z"/>
		<path d="M833.27,1301.43c0-0.92,0.78-1.69,1.69-1.69c0.99,0,1.76,0.78,1.76,1.69v1.62c0,0.99-0.78,1.84-1.76,1.84
			c-0.92,0-1.69-0.85-1.69-1.84V1301.43z M833.27,1312.72c0-0.99,0.78-1.69,1.69-1.69c0.99,0,1.76,0.71,1.76,1.69v31.21
			c0,0.92-0.78,1.69-1.76,1.69c-0.92,0-1.69-0.78-1.69-1.69V1312.72z"/>
		<path d="M877.75,1325.15c0-5.86-4.73-10.66-10.66-10.66c-5.86,0-10.59,4.8-10.73,10.66v18.78v0.28c-0.07,0.28-0.14,0.56-0.35,0.78
			c-0.28,0.42-0.78,0.64-1.27,0.64h-0.42c-0.49-0.14-0.92-0.49-1.13-0.92c-0.07-0.07-0.07-0.14-0.07-0.21
			c0-0.07-0.07-0.14-0.07-0.14v-0.42v-18.78v-0.57v-11.79c0-0.92,0.71-1.69,1.69-1.69c0.92,0,1.62,0.78,1.62,1.69v3.32
			c2.54-3.04,6.42-5.01,10.73-5.01c7.77,0,14.05,6.35,14.05,14.05v18.78c0,0.99-0.78,1.69-1.69,1.69c-0.92,0-1.69-0.71-1.69-1.69
			V1325.15z"/>
		<path d="M926.54,1342.87c0,8.97-7.27,16.24-16.31,16.24c-2.54,0-4.94-0.64-7.2-1.62c-0.71-0.49-1.13-1.48-0.71-2.26
			c0.42-0.92,1.41-1.27,2.26-0.78c1.77,0.85,3.53,1.27,5.65,1.27c7.2,0,12.92-5.72,12.92-12.85v-4.24
			c-2.89,4.17-7.63,6.78-12.92,6.78c-9.04,0-16.24-7.7-16.24-17.23c0-9.32,7.2-17.16,16.24-17.16c5.3,0,10.03,2.68,12.92,6.78v-5.08
			c0-0.92,0.78-1.69,1.77-1.69c0.85,0,1.62,0.78,1.62,1.69V1342.87z M923.15,1328.18c0-7.7-5.79-13.77-12.92-13.77
			c-7.06,0-12.85,6.07-12.85,13.77c0,7.77,5.79,13.91,12.85,13.91C917.36,1342.09,923.15,1335.95,923.15,1328.18z"/>
		<path d="M994.97,1328.4c0-9.6,7.48-17.37,16.8-17.37c8.9,0,15.96,7.06,16.66,16.1v0.07v0.21c0,0.92-0.78,1.55-1.69,1.55h-28.38
			c0.35,7.55,6.28,13.27,13.41,13.27c4.59,0,8.83-2.4,11.15-6.28c0.49-0.85,1.55-0.99,2.26-0.56c0.78,0.56,1.06,1.55,0.57,2.4
			c-2.97,4.73-8.12,7.84-13.98,7.84C1002.45,1345.62,994.97,1337.86,994.97,1328.4z M998.57,1325.64h26.19
			c-1.13-6.5-6.64-11.23-12.99-11.23C1005.27,1314.42,999.84,1319.08,998.57,1325.64z"/>
		<path d="M1040.93,1297.9c0-0.92,0.78-1.69,1.69-1.69c0.99,0,1.77,0.78,1.77,1.69v46.03c0,0.92-0.78,1.69-1.77,1.69
			c-0.92,0-1.69-0.78-1.69-1.69V1297.9z"/>
		<path d="M1058.09,1301.43c0-0.92,0.78-1.69,1.69-1.69c0.99,0,1.77,0.78,1.77,1.69v1.62c0,0.99-0.78,1.84-1.77,1.84
			c-0.92,0-1.69-0.85-1.69-1.84V1301.43z M1058.09,1312.72c0-0.99,0.78-1.69,1.69-1.69c0.99,0,1.77,0.71,1.77,1.69v31.21
			c0,0.92-0.78,1.69-1.77,1.69c-0.92,0-1.69-0.78-1.69-1.69V1312.72z"/>
		<path d="M1089.93,1312.72c0,0.85-0.85,1.69-1.69,1.69h-4.45v25.2c0,1.69,1.69,2.54,2.54,2.54c0.85,0,1.76,0.92,1.76,1.77
			c0,0.85-0.92,1.69-1.76,1.69c-3.46,0-6.07-2.54-6.07-6v-25.2h-4.31c-1.69,0-1.69-0.85-1.69-1.69c0-0.85,0-1.69,1.69-1.69h4.31
			v-12.85c0-0.85,0.85-1.69,1.69-1.69c0.92,0,1.84,0.85,1.84,1.69v12.85h4.45C1089.08,1311.03,1089.93,1311.88,1089.93,1312.72z"/>
		<path d="M1103.91,1351.06c2.54-1.41,3.53-2.97,3.32-5.44c-1.06-0.28-1.91-1.06-1.91-2.47v-1.48c0-1.34,0.99-2.33,2.33-2.33
			c1.34,0,2.33,0.99,2.33,2.33v1.77c0,3.95-0.64,6.07-1.91,7.34c-1.27,1.27-3.04,2.26-3.67,2.26c-0.49,0-1.06-0.35-1.06-1.06
			C1103.35,1351.62,1103.56,1351.27,1103.91,1351.06z"/>
		<path d="M1174.45,1338.42c0.57-0.71,1.62-0.85,2.4-0.21c2.4,1.77,6.21,4.02,10.59,4.02c2.68,0,5.01-0.85,6.57-2.12
			c1.7-1.13,2.61-2.68,2.61-4.24c-0.07-1.62-0.71-2.75-2.47-4.24c-1.48-1.13-3.95-1.98-7.34-2.54l-0.14-0.07
			c-3.11-0.56-5.86-1.27-7.84-2.68c-2.19-1.27-3.74-3.53-3.74-6.21c0-2.75,1.55-5.15,3.74-6.78c2.05-1.41,4.94-2.33,8.47-2.33
			c4.45,0,7.63,2.05,10.31,3.74c0.78,0.57,0.99,1.62,0.49,2.4c-0.49,0.78-1.55,0.99-2.33,0.49c-2.54-1.69-5.08-3.46-8.47-3.46
			c-2.82,0-5.08,0.78-6.57,1.98c-1.41,1.13-2.19,2.54-2.19,3.95c0,1.41,0.64,2.4,1.98,3.46c1.55,1.06,3.88,1.91,7.06,2.4h0.14
			c3.32,0.49,6,1.48,8.4,2.82c2.26,1.48,3.88,4.17,3.88,7.06c0,2.89-1.62,5.22-3.95,6.99c-2.4,1.77-5.22,2.75-8.61,2.75
			c-5.58-0.07-9.96-2.68-12.78-4.94C1173.96,1340.05,1173.89,1339.13,1174.45,1338.42z"/>
		<path d="M1209.12,1328.4c0-9.6,7.48-17.37,16.8-17.37c8.9,0,15.96,7.06,16.66,16.1v0.07v0.21c0,0.92-0.78,1.55-1.69,1.55h-28.38
			c0.35,7.55,6.28,13.27,13.41,13.27c4.59,0,8.83-2.4,11.15-6.28c0.49-0.85,1.55-0.99,2.26-0.56c0.78,0.56,1.06,1.55,0.56,2.4
			c-2.97,4.73-8.12,7.84-13.98,7.84C1216.6,1345.62,1209.12,1337.86,1209.12,1328.4z M1212.72,1325.64h26.19
			c-1.13-6.5-6.64-11.23-12.99-11.23C1219.43,1314.42,1213.99,1319.08,1212.72,1325.64z"/>
		<path d="M1282.27,1338.92c-3.04,4.09-7.84,6.71-13.27,6.71c-9.32,0-16.73-7.77-16.73-17.23c0-9.6,7.41-17.37,16.73-17.37
			c5.44,0,10.24,2.68,13.27,6.78v-19.91c0-0.92,0.78-1.69,1.77-1.69c0.92,0,1.69,0.78,1.69,1.69v29.79v0.71v15.53
			c0,0.92-0.78,1.69-1.69,1.69c-0.99,0-1.77-0.78-1.77-1.69V1338.92z M1282.27,1328.96v-1.13c-0.28-7.41-6.14-13.34-13.27-13.34
			c-7.27,0-13.27,6.21-13.27,13.91c0,7.62,6,13.77,13.27,13.77C1276.13,1342.16,1281.99,1336.3,1282.27,1328.96z"/>
		<path d="M1383.38,1338.92c-3.04,4.09-7.84,6.71-13.27,6.71c-9.32,0-16.73-7.77-16.73-17.23c0-9.6,7.41-17.37,16.73-17.37
			c5.44,0,10.24,2.68,13.27,6.78v-19.91c0-0.92,0.78-1.69,1.77-1.69c0.92,0,1.69,0.78,1.69,1.69v29.79v0.71v15.53
			c0,0.92-0.78,1.69-1.69,1.69c-0.99,0-1.77-0.78-1.77-1.69V1338.92z M1383.38,1328.96v-1.13c-0.28-7.41-6.14-13.34-13.27-13.34
			c-7.27,0-13.27,6.21-13.27,13.91c0,7.62,6,13.77,13.27,13.77C1377.24,1342.16,1383.1,1336.3,1383.38,1328.96z"/>
		<path d="M1402.38,1301.43c0-0.92,0.78-1.69,1.69-1.69c0.99,0,1.76,0.78,1.76,1.69v1.62c0,0.99-0.78,1.84-1.76,1.84
			c-0.92,0-1.69-0.85-1.69-1.84V1301.43z M1402.38,1312.72c0-0.99,0.78-1.69,1.69-1.69c0.99,0,1.76,0.71,1.76,1.69v31.21
			c0,0.92-0.78,1.69-1.76,1.69c-0.92,0-1.69-0.78-1.69-1.69V1312.72z"/>
		<path d="M1451.16,1312.72v31.21c0,0.92-0.78,1.69-1.69,1.69c-0.92,0-1.69-0.78-1.69-1.69v-5.15c-2.97,4.1-7.7,6.85-12.99,6.85
			c-9.11,0-16.38-7.84-16.38-17.3c0-9.46,7.27-17.3,16.38-17.3c5.29,0,10.03,2.68,12.99,6.78v-5.08c0-0.99,0.78-1.69,1.69-1.69
			C1450.39,1311.03,1451.16,1311.73,1451.16,1312.72z M1447.78,1328.33c0-7.77-5.86-13.98-12.99-13.98
			c-7.06,0-12.99,6.21-12.99,13.98c0,7.77,5.93,13.91,12.99,13.91C1441.92,1342.23,1447.78,1336.09,1447.78,1328.33z"/>
		<path d="M1515.35,1325.15c-0.14-5.86-4.8-10.73-10.73-10.73c-5.86,0-10.66,4.87-10.66,10.73V1344v0.21c0,0.07-0.07,0.14-0.07,0.14
			v0.14c-0.14,0.42-0.49,0.71-0.85,0.92c-0.28,0.14-0.56,0.21-0.85,0.21h-0.21h-0.14c-0.07,0-0.14-0.07-0.14-0.07
			c-0.14,0-0.28-0.14-0.42-0.21c-0.07,0-0.14-0.07-0.21-0.14l-0.21-0.21c-0.07-0.07-0.07-0.14-0.14-0.14c0-0.07,0-0.07-0.07-0.14
			c0,0,0-0.07-0.07-0.14c0-0.07,0-0.14-0.07-0.21v-0.21V1344v-18.85c0-5.86-4.73-10.73-10.66-10.73c-5.93,0-10.66,4.87-10.66,10.73
			V1344c0,0.56-0.28,1.06-0.78,1.34c-0.07,0.07-0.28,0.21-0.42,0.21c-0.07,0.07-0.14,0.07-0.28,0.07h-0.21h-0.21
			c-0.64-0.07-1.2-0.64-1.41-1.27V1344v-18.85v-0.57v-11.86c0-0.92,0.78-1.62,1.62-1.62c0.99,0,1.69,0.71,1.69,1.62v3.32
			c2.54-3.04,6.35-4.94,10.66-4.94c5.37,0,9.95,2.97,12.36,7.34c2.47-4.38,7.13-7.34,12.43-7.34c7.77,0,14.05,6.28,14.05,14.05V1344
			c0,0.85-0.71,1.62-1.69,1.62c-0.92,0-1.62-0.78-1.62-1.62V1325.15z"/>
		<path d="M1612.22,1325.15c0-5.86-4.73-10.66-10.66-10.66c-5.86,0-10.59,4.8-10.73,10.66v18.78v0.28
			c-0.07,0.28-0.14,0.56-0.35,0.78c-0.28,0.42-0.78,0.64-1.27,0.64h-0.42c-0.49-0.14-0.92-0.49-1.13-0.92
			c-0.07-0.07-0.07-0.14-0.07-0.21c0-0.07-0.07-0.14-0.07-0.14v-0.42v-18.78v-0.57v-11.79c0-0.92,0.71-1.69,1.69-1.69
			c0.92,0,1.62,0.78,1.62,1.69v3.32c2.54-3.04,6.42-5.01,10.73-5.01c7.77,0,14.05,6.35,14.05,14.05v18.78
			c0,0.99-0.78,1.69-1.69,1.69c-0.92,0-1.69-0.71-1.69-1.69V1325.15z"/>
		<path d="M1645.55,1311.03c9.11,0,16.38,7.91,16.38,17.3c0,9.39-7.27,17.3-16.38,17.3c-9.04,0-16.38-7.91-16.38-17.3
			C1629.17,1318.94,1636.52,1311.03,1645.55,1311.03z M1645.55,1342.23c7.06,0,12.99-6.21,12.99-13.91s-5.93-13.98-12.99-13.98
			c-7.06,0-12.99,6.28-12.99,13.98S1638.49,1342.23,1645.55,1342.23z"/>
		<path d="M1699.64,1325.15c0-5.86-4.73-10.66-10.66-10.66c-5.86,0-10.59,4.8-10.73,10.66v18.78v0.28
			c-0.07,0.28-0.14,0.56-0.35,0.78c-0.28,0.42-0.78,0.64-1.27,0.64h-0.42c-0.49-0.14-0.92-0.49-1.13-0.92
			c-0.07-0.07-0.07-0.14-0.07-0.21c0-0.07-0.07-0.14-0.07-0.14v-0.42v-18.78v-0.57v-11.79c0-0.92,0.71-1.69,1.69-1.69
			c0.92,0,1.62,0.78,1.62,1.69v3.32c2.54-3.04,6.42-5.01,10.73-5.01c7.77,0,14.05,6.35,14.05,14.05v18.78
			c0,0.99-0.78,1.69-1.69,1.69c-0.92,0-1.69-0.71-1.69-1.69V1325.15z"/>
		<path d="M1717.5,1312.65c0-0.99,0.78-1.69,1.69-1.69c0.92,0,1.69,0.71,1.69,1.69v18.85c0,5.93,4.73,10.66,10.59,10.73
			c5.93-0.07,10.73-4.8,10.73-10.73v-18.85c0-0.99,0.85-1.69,1.69-1.69c0.99,0,1.77,0.71,1.77,1.69v18.85
			c0,7.77-6.28,14.12-14.19,14.12c-7.77,0-13.98-6.35-13.98-14.12V1312.65z"/>
		<path d="M1810.98,1325.15c-0.14-5.86-4.8-10.73-10.73-10.73c-5.86,0-10.66,4.87-10.66,10.73V1344v0.21c0,0.07-0.07,0.14-0.07,0.14
			v0.14c-0.14,0.42-0.49,0.71-0.85,0.92c-0.28,0.14-0.57,0.21-0.85,0.21h-0.21h-0.14c-0.07,0-0.14-0.07-0.14-0.07
			c-0.14,0-0.28-0.14-0.42-0.21c-0.07,0-0.14-0.07-0.21-0.14l-0.21-0.21c-0.07-0.07-0.07-0.14-0.14-0.14c0-0.07,0-0.07-0.07-0.14
			c0,0,0-0.07-0.07-0.14c0-0.07,0-0.14-0.07-0.21v-0.21V1344v-18.85c0-5.86-4.73-10.73-10.66-10.73c-5.93,0-10.66,4.87-10.66,10.73
			V1344c0,0.56-0.28,1.06-0.78,1.34c-0.07,0.07-0.28,0.21-0.42,0.21c-0.07,0.07-0.14,0.07-0.28,0.07h-0.21h-0.21
			c-0.64-0.07-1.2-0.64-1.41-1.27V1344v-18.85v-0.57v-11.86c0-0.92,0.78-1.62,1.62-1.62c0.99,0,1.7,0.71,1.7,1.62v3.32
			c2.54-3.04,6.35-4.94,10.66-4.94c5.37,0,9.96,2.97,12.36,7.34c2.47-4.38,7.13-7.34,12.43-7.34c7.77,0,14.05,6.28,14.05,14.05V1344
			c0,0.85-0.71,1.62-1.69,1.62c-0.92,0-1.62-0.78-1.62-1.62V1325.15z"/>
		<path d="M1878.13,1325.15c-0.14-5.86-4.8-10.73-10.73-10.73c-5.86,0-10.66,4.87-10.66,10.73V1344v0.21c0,0.07-0.07,0.14-0.07,0.14
			v0.14c-0.14,0.42-0.49,0.71-0.85,0.92c-0.28,0.14-0.56,0.21-0.85,0.21h-0.21h-0.14c-0.07,0-0.14-0.07-0.14-0.07
			c-0.14,0-0.28-0.14-0.42-0.21c-0.07,0-0.14-0.07-0.21-0.14l-0.21-0.21c-0.07-0.07-0.07-0.14-0.14-0.14c0-0.07,0-0.07-0.07-0.14
			c0,0,0-0.07-0.07-0.14c0-0.07,0-0.14-0.07-0.21v-0.21V1344v-18.85c0-5.86-4.73-10.73-10.66-10.73c-5.93,0-10.66,4.87-10.66,10.73
			V1344c0,0.56-0.28,1.06-0.78,1.34c-0.07,0.07-0.28,0.21-0.42,0.21c-0.07,0.07-0.14,0.07-0.28,0.07h-0.21h-0.21
			c-0.64-0.07-1.2-0.64-1.41-1.27V1344v-18.85v-0.57v-11.86c0-0.92,0.78-1.62,1.62-1.62c0.99,0,1.69,0.71,1.69,1.62v3.32
			c2.54-3.04,6.35-4.94,10.66-4.94c5.37,0,9.96,2.97,12.36,7.34c2.47-4.38,7.13-7.34,12.43-7.34c7.77,0,14.05,6.28,14.05,14.05V1344
			c0,0.85-0.71,1.62-1.69,1.62c-0.92,0-1.62-0.78-1.62-1.62V1325.15z"/>
		<path d="M1891.84,1312.65c0-0.92,0.78-1.62,1.62-1.62c0.99,0,1.77,0.71,1.77,1.62v18.78c0,5.93,4.73,10.66,10.59,10.66
			c5.93,0,10.66-4.73,10.73-10.66v-18.78c0-0.28,0.07-0.64,0.28-0.85c0-0.07,0.07-0.14,0.07-0.21c0.07,0,0.07-0.07,0.14-0.07
			c0.14-0.21,0.42-0.35,0.64-0.42h0.14c0.07,0,0.14-0.07,0.21-0.07h0.21h0.21c0.28,0.07,0.57,0.21,0.85,0.35
			c0.14,0.14,0.35,0.35,0.42,0.56c0.14,0.21,0.21,0.49,0.21,0.71v18.78v0.64v10.8c0,9.04-7.34,16.24-16.45,16.24
			c-2.54,0-4.94-0.64-7.13-1.62c-0.78-0.49-1.13-1.48-0.71-2.26c0.42-0.85,1.34-1.06,2.19-0.85c1.69,0.85,3.67,1.34,5.65,1.34
			c7.2,0,12.99-5.72,13.06-12.85v-2.26c-2.61,2.97-6.42,4.94-10.73,4.94c-7.7-0.07-13.98-6.35-13.98-14.12V1312.65z"/>
		<path d="M2015.47,1325.15c0-5.86-4.73-10.66-10.66-10.66c-5.86,0-10.59,4.8-10.73,10.66v18.78v0.28
			c-0.07,0.28-0.14,0.56-0.35,0.78c-0.28,0.42-0.78,0.64-1.27,0.64h-0.42c-0.49-0.14-0.92-0.49-1.13-0.92
			c-0.07-0.07-0.07-0.14-0.07-0.21c0-0.07-0.07-0.14-0.07-0.14v-0.42v-18.78v-0.57v-11.79c0-0.92,0.71-1.69,1.69-1.69
			c0.92,0,1.62,0.78,1.62,1.69v3.32c2.54-3.04,6.42-5.01,10.73-5.01c7.77,0,14.05,6.35,14.05,14.05v18.78
			c0,0.99-0.78,1.69-1.69,1.69c-0.92,0-1.7-0.71-1.7-1.69V1325.15z"/>
		<path d="M2034.11,1301.43c0-0.92,0.78-1.69,1.69-1.69c0.99,0,1.77,0.78,1.77,1.69v1.62c0,0.99-0.78,1.84-1.77,1.84
			c-0.92,0-1.69-0.85-1.69-1.84V1301.43z M2034.11,1312.72c0-0.99,0.78-1.69,1.69-1.69c0.99,0,1.77,0.71,1.77,1.69v31.21
			c0,0.92-0.78,1.69-1.77,1.69c-0.92,0-1.69-0.78-1.69-1.69V1312.72z"/>
		<path d="M2053.88,1329.1v-0.71v-0.71v-29.79c0-0.92,0.78-1.69,1.69-1.69c0.99,0,1.77,0.78,1.77,1.69v19.91
			c3.04-4.1,7.84-6.78,13.27-6.78c9.32,0,16.73,7.77,16.73,17.37c0,9.46-7.41,17.23-16.73,17.23c-5.44,0-10.24-2.61-13.27-6.71v5.01
			c0,0.92-0.78,1.69-1.77,1.69c-0.92,0-1.69-0.78-1.69-1.69V1329.1z M2057.34,1328.4c0,7.62,6,13.77,13.27,13.77
			c7.34,0,13.27-6.14,13.27-13.77c0-7.7-5.93-13.91-13.27-13.91c-7.13,0-12.99,5.93-13.27,13.34V1328.4z"/>
		<path d="M2125.9,1324.65c0-6.07-4.94-10.17-11.01-10.17c-6,0-10.94,4.09-10.94,10.17v19.27v0.21c0,0.14-0.07,0.21-0.07,0.28
			c-0.07,0.14-0.07,0.21-0.14,0.28c-0.21,0.42-0.57,0.71-1.06,0.85c0,0-0.07,0.07-0.14,0.07h-0.14h-0.21
			c-0.49,0-0.99-0.21-1.34-0.57c-0.14-0.21-0.21-0.35-0.28-0.56c-0.07-0.21-0.07-0.35-0.07-0.56v-19.27v-0.57v-26.19
			c0-0.92,0.78-1.69,1.69-1.69c0.99,0,1.77,0.78,1.77,1.69v18.22c2.61-3.11,6.57-5.08,10.94-5.08c7.98,0,14.47,5.65,14.47,13.63
			v19.27c0,0.92-0.78,1.69-1.76,1.69c-0.92,0-1.69-0.78-1.69-1.69V1324.65z"/>
		<path d="M581.27,1413.13c0-9.6,7.48-17.37,16.8-17.37c8.9,0,15.96,7.06,16.66,16.1v0.07v0.21c0,0.92-0.78,1.55-1.69,1.55h-28.38
			c0.35,7.55,6.28,13.27,13.41,13.27c4.59,0,8.83-2.4,11.15-6.28c0.49-0.85,1.55-0.99,2.26-0.56c0.78,0.56,1.06,1.55,0.57,2.4
			c-2.97,4.73-8.12,7.84-13.98,7.84C588.75,1430.35,581.27,1422.59,581.27,1413.13z M584.87,1410.37h26.19
			c-1.13-6.5-6.64-11.23-12.99-11.23C591.58,1399.15,586.14,1403.81,584.87,1410.37z"/>
		<path d="M626.04,1397.38c0-0.99,0.78-1.69,1.69-1.69s1.69,0.71,1.69,1.69v18.85c0,5.93,4.73,10.66,10.59,10.73
			c5.93-0.07,10.73-4.8,10.73-10.73v-18.85c0-0.99,0.85-1.69,1.69-1.69c0.99,0,1.77,0.71,1.77,1.69v18.85
			c0,7.77-6.28,14.12-14.19,14.12c-7.77,0-13.98-6.35-13.98-14.12V1397.38z"/>
		<path d="M670.1,1386.16c0-0.92,0.78-1.69,1.69-1.69c0.99,0,1.77,0.78,1.77,1.69v1.62c0,0.99-0.78,1.84-1.77,1.84
			c-0.92,0-1.69-0.85-1.69-1.84V1386.16z M670.1,1397.45c0-0.99,0.78-1.69,1.69-1.69c0.99,0,1.77,0.71,1.77,1.69v31.21
			c0,0.92-0.78,1.69-1.77,1.69c-0.92,0-1.69-0.78-1.69-1.69V1397.45z"/>
		<path d="M687.46,1423.15c0.57-0.71,1.62-0.85,2.4-0.21c2.4,1.76,6.21,4.02,10.59,4.02c2.68,0,5.01-0.85,6.57-2.12
			c1.69-1.13,2.61-2.68,2.61-4.24c-0.07-1.62-0.71-2.75-2.47-4.24c-1.48-1.13-3.95-1.98-7.34-2.54l-0.14-0.07
			c-3.11-0.57-5.86-1.27-7.84-2.68c-2.19-1.27-3.74-3.53-3.74-6.21c0-2.75,1.55-5.15,3.74-6.78c2.05-1.41,4.94-2.33,8.47-2.33
			c4.45,0,7.63,2.05,10.31,3.74c0.78,0.57,0.99,1.62,0.49,2.4c-0.49,0.78-1.55,0.99-2.33,0.49c-2.54-1.69-5.08-3.46-8.47-3.46
			c-2.82,0-5.08,0.78-6.57,1.98c-1.41,1.13-2.19,2.54-2.19,3.95c0,1.41,0.64,2.4,1.98,3.46c1.55,1.06,3.88,1.91,7.06,2.4h0.14
			c3.32,0.49,6,1.48,8.4,2.82c2.26,1.48,3.88,4.17,3.88,7.06c0,2.89-1.62,5.22-3.95,6.99c-2.4,1.77-5.22,2.75-8.61,2.75
			c-5.58-0.07-9.96-2.68-12.78-4.94C686.97,1424.78,686.9,1423.86,687.46,1423.15z"/>
		<path d="M774.1,1409.88c-0.14-5.86-4.8-10.73-10.73-10.73c-5.86,0-10.66,4.87-10.66,10.73v18.85v0.21c0,0.07-0.07,0.14-0.07,0.14
			v0.14c-0.14,0.42-0.49,0.71-0.85,0.92c-0.28,0.14-0.56,0.21-0.85,0.21h-0.21h-0.14c-0.07,0-0.14-0.07-0.14-0.07
			c-0.14,0-0.28-0.14-0.42-0.21c-0.07,0-0.14-0.07-0.21-0.14l-0.21-0.21c-0.07-0.07-0.07-0.14-0.14-0.14c0-0.07,0-0.07-0.07-0.14
			c0,0,0-0.07-0.07-0.14c0-0.07,0-0.14-0.07-0.21v-0.21v-0.14v-18.85c0-5.86-4.73-10.73-10.66-10.73c-5.93,0-10.66,4.87-10.66,10.73
			v18.85c0,0.57-0.28,1.06-0.78,1.34c-0.07,0.07-0.28,0.21-0.42,0.21c-0.07,0.07-0.14,0.07-0.28,0.07h-0.21h-0.21
			c-0.64-0.07-1.2-0.64-1.41-1.27v-0.35v-18.85v-0.57v-11.86c0-0.92,0.78-1.62,1.62-1.62c0.99,0,1.69,0.71,1.69,1.62v3.32
			c2.54-3.04,6.35-4.94,10.66-4.94c5.37,0,9.95,2.97,12.36,7.34c2.47-4.38,7.13-7.34,12.43-7.34c7.77,0,14.05,6.28,14.05,14.05
			v18.85c0,0.85-0.71,1.62-1.69,1.62c-0.92,0-1.62-0.78-1.62-1.62V1409.88z"/>
		<path d="M806.51,1395.76c9.11,0,16.38,7.91,16.38,17.3s-7.27,17.3-16.38,17.3c-9.04,0-16.38-7.91-16.38-17.3
			S797.47,1395.76,806.51,1395.76z M806.51,1426.97c7.06,0,12.99-6.21,12.99-13.91c0-7.7-5.93-13.98-12.99-13.98
			c-7.06,0-12.99,6.28-12.99,13.98C793.52,1420.75,799.45,1426.97,806.51,1426.97z"/>
		<path d="M863.56,1423.65c-3.04,4.09-7.84,6.71-13.27,6.71c-9.32,0-16.73-7.77-16.73-17.23c0-9.6,7.41-17.37,16.73-17.37
			c5.44,0,10.24,2.68,13.27,6.78v-19.91c0-0.92,0.78-1.69,1.77-1.69c0.92,0,1.69,0.78,1.69,1.69v29.79v0.71v15.53
			c0,0.92-0.78,1.69-1.69,1.69c-0.99,0-1.77-0.78-1.77-1.69V1423.65z M863.56,1413.69v-1.13c-0.28-7.41-6.14-13.34-13.27-13.34
			c-7.27,0-13.27,6.21-13.27,13.91c0,7.62,6,13.77,13.27,13.77C857.42,1426.89,863.28,1421.03,863.56,1413.69z"/>
		<path d="M928,1397.45c0,0.85-0.85,1.69-1.69,1.69h-4.45v25.21c0,1.69,1.69,2.54,2.54,2.54c0.85,0,1.77,0.92,1.77,1.77
			c0,0.85-0.92,1.69-1.77,1.69c-3.46,0-6.07-2.54-6.07-6v-25.21h-4.31c-1.69,0-1.69-0.85-1.69-1.69c0-0.85,0-1.69,1.69-1.69h4.31
			v-12.85c0-0.85,0.85-1.69,1.69-1.69c0.92,0,1.84,0.85,1.84,1.69v12.85h4.45C927.15,1395.76,928,1396.61,928,1397.45z"/>
		<path d="M944.24,1386.16c0-0.92,0.78-1.69,1.69-1.69c0.99,0,1.77,0.78,1.77,1.69v1.62c0,0.99-0.78,1.84-1.77,1.84
			c-0.92,0-1.69-0.85-1.69-1.84V1386.16z M944.24,1397.45c0-0.99,0.78-1.69,1.69-1.69c0.99,0,1.77,0.71,1.77,1.69v31.21
			c0,0.92-0.78,1.69-1.77,1.69c-0.92,0-1.69-0.78-1.69-1.69V1397.45z"/>
		<path d="M988.72,1409.88c0-5.86-4.73-10.66-10.66-10.66c-5.86,0-10.59,4.8-10.73,10.66v18.78v0.28c-0.07,0.28-0.14,0.56-0.35,0.78
			c-0.28,0.42-0.78,0.64-1.27,0.64h-0.42c-0.49-0.14-0.92-0.49-1.13-0.92c-0.07-0.07-0.07-0.14-0.07-0.21
			c0-0.07-0.07-0.14-0.07-0.14v-0.42v-18.78v-0.57v-11.79c0-0.92,0.71-1.69,1.69-1.69c0.92,0,1.62,0.78,1.62,1.69v3.32
			c2.54-3.04,6.42-5.01,10.73-5.01c7.77,0,14.05,6.35,14.05,14.05v18.78c0,0.99-0.78,1.69-1.69,1.69c-0.92,0-1.69-0.71-1.69-1.69
			V1409.88z"/>
		<path d="M1004.82,1412.99c0-9.6,7.91-17.23,17.79-17.23c4.09,0,7.98,1.41,11.01,3.81c0.71,0.49,0.85,1.55,0.21,2.33
			c-0.57,0.64-1.55,0.85-2.33,0.28c-2.47-1.98-5.58-3.11-8.9-3.11c-8.05,0-14.4,6.28-14.4,13.91c0,7.77,6.35,13.98,14.4,13.98
			c3.32,0,6.42-1.13,8.9-3.04c0.78-0.57,1.77-0.35,2.33,0.28c0.64,0.78,0.49,1.84-0.35,2.47c-2.9,2.26-6.78,3.67-10.87,3.67
			C1012.73,1430.35,1004.82,1422.73,1004.82,1412.99z"/>
		<path d="M1047.68,1386.16c0-0.92,0.78-1.69,1.69-1.69c0.99,0,1.77,0.78,1.77,1.69v1.62c0,0.99-0.78,1.84-1.77,1.84
			c-0.92,0-1.69-0.85-1.69-1.84V1386.16z M1047.68,1397.45c0-0.99,0.78-1.69,1.69-1.69c0.99,0,1.77,0.71,1.77,1.69v31.21
			c0,0.92-0.78,1.69-1.77,1.69c-0.92,0-1.69-0.78-1.69-1.69V1397.45z"/>
		<path d="M1095.13,1423.65c-3.04,4.09-7.84,6.71-13.27,6.71c-9.32,0-16.73-7.77-16.73-17.23c0-9.6,7.41-17.37,16.73-17.37
			c5.44,0,10.24,2.68,13.27,6.78v-19.91c0-0.92,0.78-1.69,1.77-1.69c0.92,0,1.69,0.78,1.69,1.69v29.79v0.71v15.53
			c0,0.92-0.78,1.69-1.69,1.69c-0.99,0-1.77-0.78-1.77-1.69V1423.65z M1095.13,1413.69v-1.13c-0.28-7.41-6.14-13.34-13.27-13.34
			c-7.27,0-13.27,6.21-13.27,13.91c0,7.62,6,13.77,13.27,13.77C1088.98,1426.89,1094.84,1421.03,1095.13,1413.69z"/>
		<path d="M1113.35,1397.38c0-0.99,0.78-1.69,1.69-1.69c0.92,0,1.69,0.71,1.69,1.69v18.85c0,5.93,4.73,10.66,10.59,10.73
			c5.93-0.07,10.73-4.8,10.73-10.73v-18.85c0-0.99,0.85-1.69,1.69-1.69c0.99,0,1.77,0.71,1.77,1.69v18.85
			c0,7.77-6.28,14.12-14.19,14.12c-7.77,0-13.98-6.35-13.98-14.12V1397.38z"/>
		<path d="M1180.35,1409.88c0-5.86-4.73-10.66-10.66-10.66c-5.86,0-10.59,4.8-10.73,10.66v18.78v0.28
			c-0.07,0.28-0.14,0.56-0.35,0.78c-0.28,0.42-0.78,0.64-1.27,0.64h-0.42c-0.49-0.14-0.92-0.49-1.13-0.92
			c-0.07-0.07-0.07-0.14-0.07-0.21c0-0.07-0.07-0.14-0.07-0.14v-0.42v-18.78v-0.57v-11.79c0-0.92,0.71-1.69,1.69-1.69
			c0.92,0,1.62,0.78,1.62,1.69v3.32c2.54-3.04,6.42-5.01,10.73-5.01c7.77,0,14.05,6.35,14.05,14.05v18.78
			c0,0.99-0.78,1.69-1.69,1.69c-0.92,0-1.69-0.71-1.69-1.69V1409.88z"/>
		<path d="M1211,1397.45c0,0.85-0.85,1.69-1.69,1.69h-4.45v25.21c0,1.69,1.69,2.54,2.54,2.54c0.85,0,1.77,0.92,1.77,1.77
			c0,0.85-0.92,1.69-1.77,1.69c-3.46,0-6.07-2.54-6.07-6v-25.21h-4.31c-1.69,0-1.69-0.85-1.69-1.69c0-0.85,0-1.69,1.69-1.69h4.31
			v-12.85c0-0.85,0.85-1.69,1.69-1.69c0.92,0,1.84,0.85,1.84,1.69v12.85h4.45C1210.15,1395.76,1211,1396.61,1211,1397.45z"/>
		<path d="M1259.9,1397.38c0-0.99,0.78-1.69,1.69-1.69c0.92,0,1.69,0.71,1.69,1.69v18.85c0,5.93,4.73,10.66,10.59,10.73
			c5.93-0.07,10.73-4.8,10.73-10.73v-18.85c0-0.99,0.85-1.69,1.69-1.69c0.99,0,1.77,0.71,1.77,1.69v18.85
			c0,7.77-6.28,14.12-14.19,14.12c-7.77,0-13.98-6.35-13.98-14.12V1397.38z"/>
		<path d="M1315.96,1397.45c0,0.85-0.85,1.69-1.7,1.69h-4.45v25.21c0,1.69,1.69,2.54,2.54,2.54c0.85,0,1.77,0.92,1.77,1.77
			c0,0.85-0.92,1.69-1.77,1.69c-3.46,0-6.07-2.54-6.07-6v-25.21h-4.31c-1.69,0-1.69-0.85-1.69-1.69c0-0.85,0-1.69,1.69-1.69h4.31
			v-12.85c0-0.85,0.85-1.69,1.69-1.69c0.92,0,1.84,0.85,1.84,1.69v12.85h4.45C1315.12,1395.76,1315.96,1396.61,1315.96,1397.45z"/>
		<path d="M1366.07,1382.63c0-0.92,0.78-1.69,1.69-1.69c0.99,0,1.77,0.78,1.77,1.69v46.03c0,0.92-0.78,1.69-1.77,1.69
			c-0.92,0-1.69-0.78-1.69-1.69V1382.63z"/>
		<path d="M1412.17,1397.45v31.21c0,0.92-0.78,1.69-1.69,1.69c-0.92,0-1.69-0.78-1.69-1.69v-5.15c-2.97,4.1-7.7,6.85-12.99,6.85
			c-9.11,0-16.38-7.84-16.38-17.3s7.27-17.3,16.38-17.3c5.3,0,10.03,2.68,12.99,6.78v-5.08c0-0.99,0.78-1.69,1.69-1.69
			C1411.4,1395.76,1412.17,1396.47,1412.17,1397.45z M1408.78,1413.06c0-7.77-5.86-13.98-12.99-13.98
			c-7.06,0-12.99,6.21-12.99,13.98s5.93,13.91,12.99,13.91C1402.92,1426.97,1408.78,1420.82,1408.78,1413.06z"/>
		<path d="M1441.62,1395.76c9.11,0,16.38,7.91,16.38,17.3s-7.27,17.3-16.38,17.3c-9.04,0-16.38-7.91-16.38-17.3
			S1432.58,1395.76,1441.62,1395.76z M1441.62,1426.97c7.06,0,12.99-6.21,12.99-13.91c0-7.7-5.93-13.98-12.99-13.98
			c-7.06,0-12.99,6.28-12.99,13.98C1428.63,1420.75,1434.56,1426.97,1441.62,1426.97z"/>
		<path d="M1469.58,1397.52c0-0.99,0.78-1.69,1.77-1.69c0.85,0,1.62,0.71,1.62,1.69v7.62c0.14-0.28,0.28-0.56,0.49-0.85
			c2.61-4.1,7.2-8.47,13.84-8.47c0.92,0,1.69,0.71,1.69,1.69c0,0.92-0.78,1.69-1.69,1.69c-4.52,0-7.62,2.54-10.03,5.65
			c-2.33,3.11-3.67,6.64-4.17,8.05c-0.14,0.28-0.14,0.42-0.14,0.57v15.18c0,0.99-0.78,1.69-1.62,1.69c-0.99,0-1.77-0.71-1.77-1.69
			V1397.52z"/>
		<path d="M1494.58,1413.13c0-9.6,7.48-17.37,16.8-17.37c8.9,0,15.96,7.06,16.66,16.1v0.07v0.21c0,0.92-0.78,1.55-1.69,1.55h-28.38
			c0.35,7.55,6.28,13.27,13.41,13.27c4.59,0,8.83-2.4,11.15-6.28c0.49-0.85,1.55-0.99,2.26-0.56c0.78,0.56,1.06,1.55,0.57,2.4
			c-2.97,4.73-8.12,7.84-13.98,7.84C1502.06,1430.35,1494.58,1422.59,1494.58,1413.13z M1498.18,1410.37h26.19
			c-1.13-6.5-6.64-11.23-12.99-11.23C1504.88,1399.15,1499.45,1403.81,1498.18,1410.37z"/>
		<path d="M1537.58,1413.13c0-9.6,7.48-17.37,16.8-17.37c8.9,0,15.96,7.06,16.66,16.1v0.07v0.21c0,0.92-0.78,1.55-1.69,1.55h-28.38
			c0.35,7.55,6.28,13.27,13.41,13.27c4.59,0,8.83-2.4,11.15-6.28c0.49-0.85,1.55-0.99,2.26-0.56c0.78,0.56,1.06,1.55,0.56,2.4
			c-2.97,4.73-8.12,7.84-13.98,7.84C1545.06,1430.35,1537.58,1422.59,1537.58,1413.13z M1541.18,1410.37h26.19
			c-1.13-6.5-6.64-11.23-12.99-11.23C1547.89,1399.15,1542.45,1403.81,1541.18,1410.37z"/>
		<path d="M1592.3,1397.45c0,0.85-0.85,1.69-1.69,1.69h-4.45v25.21c0,1.69,1.69,2.54,2.54,2.54s1.77,0.92,1.77,1.77
			c0,0.85-0.92,1.69-1.77,1.69c-3.46,0-6.07-2.54-6.07-6v-25.21h-4.31c-1.69,0-1.69-0.85-1.69-1.69c0-0.85,0-1.69,1.69-1.69h4.31
			v-12.85c0-0.85,0.85-1.69,1.69-1.69c0.92,0,1.84,0.85,1.84,1.69v12.85h4.45C1591.45,1395.76,1592.3,1396.61,1592.3,1397.45z"/>
		<path d="M1669.59,1423.65c-3.04,4.09-7.84,6.71-13.27,6.71c-9.32,0-16.73-7.77-16.73-17.23c0-9.6,7.41-17.37,16.73-17.37
			c5.44,0,10.24,2.68,13.27,6.78v-19.91c0-0.92,0.78-1.69,1.77-1.69c0.92,0,1.69,0.78,1.69,1.69v29.79v0.71v15.53
			c0,0.92-0.78,1.69-1.69,1.69c-0.99,0-1.77-0.78-1.77-1.69V1423.65z M1669.59,1413.69v-1.13c-0.28-7.41-6.14-13.34-13.27-13.34
			c-7.27,0-13.27,6.21-13.27,13.91c0,7.62,6,13.77,13.27,13.77C1663.44,1426.89,1669.3,1421.03,1669.59,1413.69z"/>
		<path d="M1703.27,1395.76c9.11,0,16.38,7.91,16.38,17.3s-7.27,17.3-16.38,17.3c-9.04,0-16.38-7.91-16.38-17.3
			S1694.23,1395.76,1703.27,1395.76z M1703.27,1426.97c7.06,0,12.99-6.21,12.99-13.91c0-7.7-5.93-13.98-12.99-13.98
			c-7.06,0-12.99,6.28-12.99,13.98C1690.28,1420.75,1696.21,1426.97,1703.27,1426.97z"/>
		<path d="M1733.14,1382.63c0-0.92,0.78-1.69,1.69-1.69c0.99,0,1.77,0.78,1.77,1.69v46.03c0,0.92-0.78,1.69-1.77,1.69
			c-0.92,0-1.69-0.78-1.69-1.69V1382.63z"/>
		<path d="M1764.98,1395.76c9.11,0,16.38,7.91,16.38,17.3s-7.27,17.3-16.38,17.3c-9.04,0-16.38-7.91-16.38-17.3
			S1755.94,1395.76,1764.98,1395.76z M1764.98,1426.97c7.06,0,12.99-6.21,12.99-13.91c0-7.7-5.93-13.98-12.99-13.98
			c-7.06,0-12.99,6.28-12.99,13.98C1751.99,1420.75,1757.92,1426.97,1764.98,1426.97z"/>
		<path d="M1792.94,1397.52c0-0.99,0.78-1.69,1.77-1.69c0.85,0,1.62,0.71,1.62,1.69v7.62c0.14-0.28,0.28-0.56,0.49-0.85
			c2.61-4.1,7.2-8.47,13.84-8.47c0.92,0,1.69,0.71,1.69,1.69c0,0.92-0.78,1.69-1.69,1.69c-4.52,0-7.62,2.54-10.03,5.65
			c-2.33,3.11-3.67,6.64-4.17,8.05c-0.14,0.28-0.14,0.42-0.14,0.57v15.18c0,0.99-0.78,1.69-1.62,1.69c-0.99,0-1.77-0.71-1.77-1.69
			V1397.52z"/>
		<path d="M1817.94,1413.13c0-9.6,7.48-17.37,16.8-17.37c8.9,0,15.96,7.06,16.66,16.1v0.07v0.21c0,0.92-0.78,1.55-1.69,1.55h-28.38
			c0.35,7.55,6.28,13.27,13.41,13.27c4.59,0,8.83-2.4,11.15-6.28c0.49-0.85,1.55-0.99,2.26-0.56c0.78,0.56,1.06,1.55,0.57,2.4
			c-2.97,4.73-8.12,7.84-13.98,7.84C1825.42,1430.35,1817.94,1422.59,1817.94,1413.13z M1821.54,1410.37h26.19
			c-1.13-6.5-6.64-11.23-12.99-11.23C1828.25,1399.15,1822.81,1403.81,1821.54,1410.37z"/>
		<path d="M1946.34,1409.88c-0.14-5.86-4.8-10.73-10.73-10.73c-5.86,0-10.66,4.87-10.66,10.73v18.85v0.21
			c0,0.07-0.07,0.14-0.07,0.14v0.14c-0.14,0.42-0.49,0.71-0.85,0.92c-0.28,0.14-0.56,0.21-0.85,0.21h-0.21h-0.14
			c-0.07,0-0.14-0.07-0.14-0.07c-0.14,0-0.28-0.14-0.42-0.21c-0.07,0-0.14-0.07-0.21-0.14l-0.21-0.21
			c-0.07-0.07-0.07-0.14-0.14-0.14c0-0.07,0-0.07-0.07-0.14c0,0,0-0.07-0.07-0.14c0-0.07,0-0.14-0.07-0.21v-0.21v-0.14v-18.85
			c0-5.86-4.73-10.73-10.66-10.73c-5.93,0-10.66,4.87-10.66,10.73v18.85c0,0.57-0.28,1.06-0.78,1.34c-0.07,0.07-0.28,0.21-0.42,0.21
			c-0.07,0.07-0.14,0.07-0.28,0.07h-0.21h-0.21c-0.64-0.07-1.2-0.64-1.41-1.27v-0.35v-18.85v-0.57v-11.86
			c0-0.92,0.78-1.62,1.62-1.62c0.99,0,1.69,0.71,1.69,1.62v3.32c2.54-3.04,6.35-4.94,10.66-4.94c5.37,0,9.95,2.97,12.36,7.34
			c2.47-4.38,7.13-7.34,12.43-7.34c7.77,0,14.05,6.28,14.05,14.05v18.85c0,0.85-0.71,1.62-1.69,1.62c-0.92,0-1.62-0.78-1.62-1.62
			V1409.88z"/>
		<path d="M1993.01,1397.45v31.21c0,0.92-0.78,1.69-1.69,1.69s-1.69-0.78-1.69-1.69v-5.15c-2.97,4.1-7.7,6.85-12.99,6.85
			c-9.11,0-16.38-7.84-16.38-17.3s7.27-17.3,16.38-17.3c5.29,0,10.03,2.68,12.99,6.78v-5.08c0-0.99,0.78-1.69,1.69-1.69
			S1993.01,1396.47,1993.01,1397.45z M1989.63,1413.06c0-7.77-5.86-13.98-12.99-13.98c-7.06,0-12.99,6.21-12.99,13.98
			s5.93,13.91,12.99,13.91C1983.77,1426.97,1989.63,1420.82,1989.63,1413.06z"/>
		<path d="M2040.39,1427.6c0,8.97-7.27,16.24-16.31,16.24c-2.54,0-4.94-0.64-7.2-1.62c-0.71-0.49-1.13-1.48-0.71-2.26
			c0.42-0.92,1.41-1.27,2.26-0.78c1.77,0.85,3.53,1.27,5.65,1.27c7.2,0,12.92-5.72,12.92-12.85v-4.24
			c-2.89,4.17-7.63,6.78-12.92,6.78c-9.04,0-16.24-7.7-16.24-17.23c0-9.32,7.2-17.16,16.24-17.16c5.3,0,10.03,2.68,12.92,6.78v-5.08
			c0-0.92,0.78-1.69,1.77-1.69c0.85,0,1.62,0.78,1.62,1.69V1427.6z M2037,1412.92c0-7.7-5.79-13.77-12.92-13.77
			c-7.06,0-12.85,6.07-12.85,13.77c0,7.77,5.79,13.91,12.85,13.91C2031.21,1426.82,2037,1420.68,2037,1412.92z"/>
		<path d="M2081.49,1409.88c0-5.86-4.73-10.66-10.66-10.66c-5.86,0-10.59,4.8-10.73,10.66v18.78v0.28
			c-0.07,0.28-0.14,0.56-0.35,0.78c-0.28,0.42-0.78,0.64-1.27,0.64h-0.42c-0.49-0.14-0.92-0.49-1.13-0.92
			c-0.07-0.07-0.07-0.14-0.07-0.21c0-0.07-0.07-0.14-0.07-0.14v-0.42v-18.78v-0.57v-11.79c0-0.92,0.71-1.69,1.69-1.69
			c0.92,0,1.62,0.78,1.62,1.69v3.32c2.54-3.04,6.42-5.01,10.73-5.01c7.77,0,14.05,6.35,14.05,14.05v18.78
			c0,0.99-0.78,1.69-1.69,1.69c-0.92,0-1.7-0.71-1.7-1.69V1409.88z"/>
		<path d="M2129.08,1397.45v31.21c0,0.92-0.78,1.69-1.69,1.69s-1.69-0.78-1.69-1.69v-5.15c-2.97,4.1-7.7,6.85-12.99,6.85
			c-9.11,0-16.38-7.84-16.38-17.3s7.27-17.3,16.38-17.3c5.29,0,10.03,2.68,12.99,6.78v-5.08c0-0.99,0.78-1.69,1.69-1.69
			S2129.08,1396.47,2129.08,1397.45z M2125.69,1413.06c0-7.77-5.86-13.98-12.99-13.98c-7.06,0-12.99,6.21-12.99,13.98
			s5.93,13.91,12.99,13.91C2119.83,1426.97,2125.69,1420.82,2125.69,1413.06z"/>
		<path d="M612.76,1482.18v31.21c0,0.92-0.78,1.69-1.69,1.69c-0.92,0-1.69-0.78-1.69-1.69v-5.15c-2.97,4.1-7.7,6.85-12.99,6.85
			c-9.11,0-16.38-7.84-16.38-17.3c0-9.46,7.27-17.3,16.38-17.3c5.29,0,10.03,2.68,12.99,6.78v-5.08c0-0.99,0.78-1.69,1.69-1.69
			C611.98,1480.49,612.76,1481.2,612.76,1482.18z M609.37,1497.79c0-7.77-5.86-13.98-12.99-13.98c-7.06,0-12.99,6.21-12.99,13.98
			c0,7.77,5.93,13.91,12.99,13.91C603.51,1511.7,609.37,1505.55,609.37,1497.79z"/>
		<path d="M628.93,1467.36c0-0.92,0.78-1.69,1.69-1.69c0.99,0,1.77,0.78,1.77,1.69v46.03c0,0.92-0.78,1.69-1.77,1.69
			c-0.92,0-1.69-0.78-1.69-1.69V1467.36z"/>
		<path d="M646.09,1470.89c0-0.92,0.78-1.69,1.69-1.69c0.99,0,1.77,0.78,1.77,1.69v1.62c0,0.99-0.78,1.84-1.77,1.84
			c-0.92,0-1.69-0.85-1.69-1.84V1470.89z M646.09,1482.18c0-0.99,0.78-1.69,1.69-1.69c0.99,0,1.77,0.71,1.77,1.69v31.21
			c0,0.92-0.78,1.69-1.77,1.69c-0.92,0-1.69-0.78-1.69-1.69V1482.18z"/>
		<path d="M693.39,1508.1c-3.04,4.09-7.84,6.85-13.27,6.85c-9.11-0.07-16.59-7.91-16.59-17.3c0-9.46,7.48-17.16,16.59-17.16
			c5.44,0,10.24,2.68,13.27,6.78v-5.08c0-0.92,0.78-1.69,1.69-1.69c1.06,0,1.77,0.78,1.77,1.69v14.76v0.71v0.71v29.51
			c0,0.92-0.71,1.69-1.77,1.69c-0.92,0-1.69-0.78-1.69-1.69V1508.1z M680.12,1511.48c7.34-0.07,13.27-6.21,13.27-13.84
			c0-7.7-5.93-13.7-13.27-13.7c-7.2,0-13.13,6-13.13,13.7C666.99,1505.27,672.92,1511.41,680.12,1511.48z"/>
		<path d="M711.75,1482.11c0-0.99,0.78-1.69,1.69-1.69c0.92,0,1.69,0.71,1.69,1.69v18.85c0,5.93,4.73,10.66,10.59,10.73
			c5.93-0.07,10.73-4.8,10.73-10.73v-18.85c0-0.99,0.85-1.69,1.69-1.69c0.99,0,1.77,0.71,1.77,1.69v18.85
			c0,7.77-6.28,14.12-14.19,14.12c-7.77,0-13.98-6.35-13.98-14.12V1482.11z"/>
		<path d="M784.76,1482.18v31.21c0,0.92-0.78,1.69-1.69,1.69c-0.92,0-1.69-0.78-1.69-1.69v-5.15c-2.97,4.1-7.7,6.85-12.99,6.85
			c-9.11,0-16.38-7.84-16.38-17.3c0-9.46,7.27-17.3,16.38-17.3c5.3,0,10.03,2.68,12.99,6.78v-5.08c0-0.99,0.78-1.69,1.69-1.69
			C783.98,1480.49,784.76,1481.2,784.76,1482.18z M781.37,1497.79c0-7.77-5.86-13.98-12.99-13.98c-7.06,0-12.99,6.21-12.99,13.98
			c0,7.77,5.93,13.91,12.99,13.91C775.51,1511.7,781.37,1505.55,781.37,1497.79z"/>
		<path d="M848.94,1494.61c-0.14-5.86-4.8-10.73-10.73-10.73c-5.86,0-10.66,4.87-10.66,10.73v18.85v0.21c0,0.07-0.07,0.14-0.07,0.14
			v0.14c-0.14,0.42-0.49,0.71-0.85,0.92c-0.28,0.14-0.57,0.21-0.85,0.21h-0.21h-0.14c-0.07,0-0.14-0.07-0.14-0.07
			c-0.14,0-0.28-0.14-0.42-0.21c-0.07,0-0.14-0.07-0.21-0.14l-0.21-0.21c-0.07-0.07-0.07-0.14-0.14-0.14c0-0.07,0-0.07-0.07-0.14
			c0,0,0-0.07-0.07-0.14c0-0.07,0-0.14-0.07-0.21v-0.21v-0.14v-18.85c0-5.86-4.73-10.73-10.66-10.73c-5.93,0-10.66,4.87-10.66,10.73
			v18.85c0,0.56-0.28,1.06-0.78,1.34c-0.07,0.07-0.28,0.21-0.42,0.21c-0.07,0.07-0.14,0.07-0.28,0.07h-0.21h-0.21
			c-0.64-0.07-1.2-0.64-1.41-1.27v-0.35v-18.85v-0.57v-11.86c0-0.92,0.78-1.62,1.62-1.62c0.99,0,1.7,0.71,1.7,1.62v3.32
			c2.54-3.04,6.35-4.94,10.66-4.94c5.37,0,9.96,2.97,12.36,7.34c2.47-4.38,7.13-7.34,12.43-7.34c7.77,0,14.05,6.28,14.05,14.05
			v18.85c0,0.85-0.71,1.62-1.69,1.62c-0.92,0-1.62-0.78-1.62-1.62V1494.61z"/>
		<path d="M885.31,1497.86c0-9.6,7.48-17.37,16.8-17.37c8.9,0,15.96,7.06,16.66,16.1v0.07v0.21c0,0.92-0.78,1.55-1.69,1.55H888.7
			c0.35,7.55,6.28,13.27,13.41,13.27c4.59,0,8.83-2.4,11.15-6.28c0.49-0.85,1.55-0.99,2.26-0.56c0.78,0.56,1.06,1.55,0.57,2.4
			c-2.97,4.73-8.12,7.84-13.98,7.84C892.79,1515.08,885.31,1507.32,885.31,1497.86z M888.91,1495.1h26.19
			c-1.13-6.5-6.64-11.23-12.99-11.23C895.62,1483.88,890.18,1488.54,888.91,1495.1z"/>
		<path d="M929.3,1482.26c0-0.99,0.78-1.69,1.77-1.69c0.85,0,1.62,0.71,1.62,1.69v7.62c0.14-0.28,0.28-0.56,0.49-0.85
			c2.61-4.1,7.2-8.47,13.84-8.47c0.92,0,1.69,0.71,1.69,1.69c0,0.92-0.78,1.69-1.69,1.69c-4.52,0-7.62,2.54-10.03,5.65
			c-2.33,3.11-3.67,6.64-4.17,8.05c-0.14,0.28-0.14,0.42-0.14,0.56v15.18c0,0.99-0.78,1.69-1.62,1.69c-0.99,0-1.77-0.71-1.77-1.69
			V1482.26z"/>
		<path d="M987.55,1482.18v31.21c0,0.92-0.78,1.69-1.69,1.69c-0.92,0-1.69-0.78-1.69-1.69v-5.15c-2.97,4.1-7.7,6.85-12.99,6.85
			c-9.11,0-16.38-7.84-16.38-17.3c0-9.46,7.27-17.3,16.38-17.3c5.3,0,10.03,2.68,12.99,6.78v-5.08c0-0.99,0.78-1.69,1.69-1.69
			C986.77,1480.49,987.55,1481.2,987.55,1482.18z M984.16,1497.79c0-7.77-5.86-13.98-12.99-13.98c-7.06,0-12.99,6.21-12.99,13.98
			c0,7.77,5.93,13.91,12.99,13.91C978.3,1511.7,984.16,1505.55,984.16,1497.79z"/>
		<path d="M1014.31,1482.18c0,0.85-0.85,1.69-1.69,1.69h-4.45v25.2c0,1.69,1.69,2.54,2.54,2.54c0.85,0,1.77,0.92,1.77,1.77
			c0,0.85-0.92,1.69-1.77,1.69c-3.46,0-6.07-2.54-6.07-6v-25.2h-4.31c-1.69,0-1.69-0.85-1.69-1.69c0-0.85,0-1.69,1.69-1.69h4.31
			v-12.85c0-0.85,0.85-1.69,1.69-1.69c0.92,0,1.84,0.85,1.84,1.69v12.85h4.45C1013.46,1480.49,1014.31,1481.34,1014.31,1482.18z"/>
		<path d="M1062.74,1514.8c-0.21-0.21-0.42-0.42-0.56-0.78l-12.99-30.92c-0.35-0.85,0.07-1.84,0.85-2.19
			c0.85-0.35,1.91,0.07,2.19,0.92l11.51,27.25l11.51-27.25c0.28-0.85,1.34-1.27,2.19-0.92c0.85,0.35,1.2,1.34,0.85,2.19
			l-12.92,30.64c-0.07,0.28-0.21,0.57-0.42,0.85c-0.28,0.35-0.78,0.49-1.13,0.49c-0.21,0-0.35,0-0.56-0.07c-0.07,0-0.07,0-0.14-0.07
			C1062.96,1514.94,1062.89,1514.87,1062.74,1514.8z"/>
		<path d="M1105.39,1480.49c9.11,0,16.38,7.91,16.38,17.3s-7.27,17.3-16.38,17.3c-9.04,0-16.38-7.91-16.38-17.3
			S1096.35,1480.49,1105.39,1480.49z M1105.39,1511.7c7.06,0,12.99-6.21,12.99-13.91s-5.93-13.98-12.99-13.98
			c-7.06,0-12.99,6.28-12.99,13.98S1098.33,1511.7,1105.39,1511.7z"/>
		<path d="M1135.26,1467.36c0-0.92,0.78-1.69,1.69-1.69c0.99,0,1.77,0.78,1.77,1.69v46.03c0,0.92-0.78,1.69-1.77,1.69
			c-0.92,0-1.69-0.78-1.69-1.69V1467.36z"/>
		<path d="M1151.64,1482.11c0-0.99,0.78-1.69,1.69-1.69c0.92,0,1.69,0.71,1.69,1.69v18.85c0,5.93,4.73,10.66,10.59,10.73
			c5.93-0.07,10.73-4.8,10.73-10.73v-18.85c0-0.99,0.85-1.69,1.69-1.69c0.99,0,1.77,0.71,1.77,1.69v18.85
			c0,7.77-6.28,14.12-14.19,14.12c-7.77,0-13.98-6.35-13.98-14.12V1482.11z"/>
		<path d="M1207.7,1482.18c0,0.85-0.85,1.69-1.69,1.69h-4.45v25.2c0,1.69,1.69,2.54,2.54,2.54c0.85,0,1.77,0.92,1.77,1.77
			c0,0.85-0.92,1.69-1.77,1.69c-3.46,0-6.07-2.54-6.07-6v-25.2h-4.31c-1.69,0-1.69-0.85-1.69-1.69c0-0.85,0-1.69,1.69-1.69h4.31
			v-12.85c0-0.85,0.85-1.69,1.69-1.69c0.92,0,1.84,0.85,1.84,1.69v12.85h4.45C1206.86,1480.49,1207.7,1481.34,1207.7,1482.18z"/>
		<path d="M1223.87,1498.35v-0.71v-0.71v-14.76c0-0.92,0.78-1.69,1.69-1.69c0.99,0,1.77,0.78,1.77,1.69v5.01
			c2.96-4.02,7.77-6.71,13.13-6.71c9.32,0,16.73,7.7,16.73,17.16c0,9.39-7.41,17.23-16.73,17.23c-5.37,0-10.17-2.68-13.13-6.78
			v19.77c0,0.92-0.78,1.69-1.77,1.69c-0.92,0-1.69-0.78-1.69-1.69V1498.35z M1227.33,1497.65c0,7.63,6,13.77,13.13,13.84
			c7.34-0.07,13.27-6.21,13.27-13.84c0-7.62-5.93-13.7-13.27-13.7c-6.99,0-12.85,5.79-13.13,13.13V1497.65z"/>
		<path d="M1299.49,1482.18v31.21c0,0.92-0.78,1.69-1.69,1.69s-1.69-0.78-1.69-1.69v-5.15c-2.97,4.1-7.7,6.85-12.99,6.85
			c-9.11,0-16.38-7.84-16.38-17.3c0-9.46,7.27-17.3,16.38-17.3c5.29,0,10.03,2.68,12.99,6.78v-5.08c0-0.99,0.78-1.69,1.69-1.69
			S1299.49,1481.2,1299.49,1482.18z M1296.1,1497.79c0-7.77-5.86-13.98-12.99-13.98c-7.06,0-12.99,6.21-12.99,13.98
			c0,7.77,5.93,13.91,12.99,13.91C1290.24,1511.7,1296.1,1505.55,1296.1,1497.79z"/>
		<path d="M1326.25,1482.18c0,0.85-0.85,1.69-1.7,1.69h-4.45v25.2c0,1.69,1.69,2.54,2.54,2.54s1.77,0.92,1.77,1.77
			c0,0.85-0.92,1.69-1.77,1.69c-3.46,0-6.07-2.54-6.07-6v-25.2h-4.31c-1.69,0-1.69-0.85-1.69-1.69c0-0.85,0-1.69,1.69-1.69h4.31
			v-12.85c0-0.85,0.85-1.69,1.69-1.69c0.92,0,1.84,0.85,1.84,1.69v12.85h4.45C1325.41,1480.49,1326.25,1481.34,1326.25,1482.18z"/>
	</g>
	<g class="st2">
		<path d="M939.7,1148.98c-5.8-0.18-10.89-1.4-15.29-3.67c-4.39-2.26-8.18-5.25-11.35-8.97c-3.17-3.71-5.84-8.04-8.02-12.98
			c-2.17-4.94-3.9-10.21-5.16-15.83c-1.27-5.62-2.17-11.46-2.72-17.53c-0.54-6.07-0.82-12.09-0.82-18.07c0-3.8,0.09-7.59,0.27-11.35
			c0.18-3.76,0.41-7.36,0.68-10.8c0.63-7.52,1.65-15.06,3.06-22.62c1.4-7.56,3.01-14.81,4.82-21.74c1.81-6.93,3.67-13.4,5.57-19.43
			c1.9-6.02,3.65-11.28,5.23-15.76c1.58-4.48,2.9-8.02,3.94-10.6c1.04-2.58,1.56-3.92,1.56-4.01c0.27-0.63,0.41-1.27,0.41-1.9
			c0-1.36-0.48-2.56-1.43-3.6c-0.95-1.04-2.2-1.56-3.74-1.56c-1.45,0-2.67,0.5-3.67,1.49c-0.18,0.27-1.52,1.83-4.01,4.69
			c-2.49,2.85-5.91,7.27-10.26,13.25c-4.35,5.98-9.51,13.57-15.49,22.76c-5.98,9.19-12.55,20.22-19.7,33.09
			c-5.07,9.06-10.03,18.68-14.88,28.87c-4.85,10.19-9.44,20.2-13.79,30.03c-4.35,9.83-8.29,19.11-11.82,27.85
			c-3.53,8.74-6.52,16.19-8.97,22.35c-1.27-5.34-2.65-11.32-4.14-17.94c-1.49-6.61-3.06-13.54-4.69-20.79
			c-1.63-7.25-3.31-14.67-5.03-22.28c-1.72-7.61-3.4-15.06-5.03-22.35c-1.63-7.29-3.22-14.33-4.76-21.13
			c-1.54-6.79-2.9-12.95-4.08-18.48c1.63-6.88,2.85-13.18,3.67-18.89c0.81-5.71,1.22-10.73,1.22-15.08c0-3.98-0.32-7.15-0.95-9.51
			c-0.63-2.35-1.43-4.14-2.38-5.37c-0.95-1.22-1.99-2.01-3.13-2.38c-1.13-0.36-2.15-0.54-3.06-0.54c-1.09,0-2.22,0.16-3.4,0.48
			c-1.18,0.32-2.26,1.09-3.26,2.31c-1,1.22-1.81,3.01-2.45,5.37c-0.63,2.36-0.95,5.53-0.95,9.51c0,3.72,0.34,8.38,1.02,13.99
			c0.68,5.62,1.79,12.41,3.33,20.38c-1.81,5.53-3.58,11.01-5.3,16.44c-1.72,5.43-3.49,10.51-5.3,15.22
			c-5.98,15.67-11.94,29.26-17.87,40.76c-5.93,11.5-11.94,21.33-18,29.48c-6.07,8.15-12.18,14.77-18.34,19.84
			c-6.16,5.07-12.43,9.06-18.82,11.96c-6.39,2.9-12.86,4.87-19.43,5.91c-6.57,1.04-13.29,1.56-20.18,1.56
			c-4.08,0-8.4-0.43-12.98-1.29c-4.58-0.86-9.13-2.17-13.66-3.94c-4.53-1.77-8.88-4.01-13.04-6.73c-4.17-2.72-7.84-5.93-11.01-9.65
			c-3.17-3.71-5.71-7.93-7.61-12.64c-1.9-4.71-2.85-9.92-2.85-15.63c0-5.8,1.24-11.12,3.74-15.96c2.49-4.84,5.84-9.04,10.05-12.57
			c4.21-3.53,9.15-6.27,14.81-8.22c5.66-1.95,11.66-2.92,18-2.92c6.97,0,12.88,0.77,17.73,2.31c4.84,1.54,8.81,3.26,11.89,5.16
			c3.08,1.9,5.3,3.65,6.66,5.23c1.36,1.59,2.08,2.42,2.17,2.51c1.09,1.54,2.54,2.31,4.35,2.31c1.54,0,2.79-0.54,3.74-1.63
			c0.95-1.09,1.43-2.26,1.43-3.53c0-0.9-0.27-1.86-0.81-2.85c-0.09,0-0.5-0.52-1.22-1.56c-0.73-1.04-1.9-2.29-3.53-3.74
			c-1.63-1.45-3.67-3.03-6.11-4.76c-2.45-1.72-5.39-3.31-8.83-4.76c-3.44-1.45-7.41-2.65-11.89-3.6c-4.48-0.95-9.53-1.43-15.15-1.43
			c-7.7,0-15.01,1.22-21.94,3.67c-6.93,2.45-13.02,5.87-18.28,10.26c-5.25,4.39-9.42,9.65-12.5,15.76
			c-3.08,6.11-4.62,12.84-4.62,20.18c0,6.98,1.09,13.29,3.26,18.95c2.17,5.66,5.12,10.73,8.83,15.22
			c3.71,4.48,7.97,8.36,12.77,11.62c4.8,3.26,9.83,5.98,15.08,8.15c5.25,2.17,10.55,3.78,15.9,4.82c5.34,1.04,10.37,1.56,15.08,1.56
			c9.15,0,17.82-0.86,26.02-2.58c8.2-1.72,16.03-4.6,23.51-8.63c7.47-4.03,14.63-9.35,21.47-15.97
			c6.84-6.61,13.47-14.79,19.91-24.52c6.43-9.74,12.7-21.2,18.82-34.38c6.12-13.18,12.21-28.33,18.28-45.45
			c1.81,8.24,3.76,16.94,5.84,26.09c2.08,9.15,4.14,18.19,6.18,27.11c2.04,8.92,3.99,17.48,5.84,25.68
			c1.85,8.2,3.51,15.45,4.96,21.74c1.45,6.3,2.6,11.32,3.46,15.08c0.86,3.76,1.29,5.69,1.29,5.78c0.27,1.18,0.86,2.15,1.77,2.92
			c0.9,0.77,1.95,1.15,3.13,1.15c2.35,0,3.99-1.13,4.89-3.4c0-0.09,0.72-2.06,2.17-5.91c1.45-3.85,3.44-8.97,5.98-15.35
			c2.54-6.39,5.52-13.77,8.97-22.15c3.44-8.38,7.2-17.12,11.28-26.22c4.08-9.1,8.36-18.3,12.84-27.58
			c4.48-9.28,9.04-18.05,13.66-26.29c5.43-9.87,10.55-18.8,15.35-26.77c4.8-7.97,9.15-14.81,13.04-20.52
			c-1.9,6.16-3.76,12.82-5.57,19.97c-1.81,7.16-3.4,14.56-4.76,22.21c-1.36,7.66-2.45,15.51-3.26,23.57
			c-0.82,8.06-1.22,16.12-1.22,24.19c0,6.79,0.29,13.52,0.88,20.18c0.59,6.66,1.61,13.07,3.06,19.23
			c1.45,6.16,3.37,11.94,5.77,17.32c2.4,5.39,5.41,10.19,9.04,14.4c3.62,4.21,7.93,7.74,12.91,10.6c4.98,2.85,10.73,4.73,17.26,5.64
			c1.45,0.27,2.9,0.41,4.35,0.41c1.36,0,2.54-0.5,3.53-1.49c1-1,1.49-2.13,1.49-3.4c0-1.27-0.43-2.47-1.29-3.6
			C942.3,1149.68,941.15,1149.07,939.7,1148.98z"/>
		<path d="M1431.84,1062.29c3.44,0,6.36-1.2,8.76-3.6c2.4-2.4,3.6-5.32,3.6-8.76c0-1.72-0.32-3.33-0.95-4.82
			c-0.63-1.49-1.52-2.81-2.65-3.94c-1.13-1.13-2.45-2.01-3.94-2.65c-1.49-0.63-3.1-0.95-4.82-0.95c-1.72,0-3.33,0.32-4.82,0.95
			c-1.49,0.64-2.81,1.52-3.94,2.65c-1.13,1.13-2.02,2.45-2.65,3.94c-0.63,1.49-0.95,3.1-0.95,4.82c0,3.44,1.2,6.36,3.6,8.76
			C1425.47,1061.09,1428.39,1062.29,1431.84,1062.29z M1428.58,1046.6c0.9-0.95,1.99-1.43,3.26-1.43c1.27,0,2.38,0.48,3.33,1.43
			c0.95,0.95,1.43,2.06,1.43,3.33c0,1.27-0.48,2.36-1.43,3.26c-0.95,0.91-2.06,1.36-3.33,1.36c-1.27,0-2.36-0.45-3.26-1.36
			c-0.91-0.9-1.36-1.99-1.36-3.26C1427.22,1048.66,1427.67,1047.55,1428.58,1046.6z"/>
		<path d="M1608.88,1111.48c-1,0-1.93,0.27-2.79,0.81c-0.86,0.54-1.52,1.31-1.97,2.31c-1,2.36-2.51,5.44-4.55,9.24
			c-2.04,3.8-4.44,7.54-7.2,11.21c-2.76,3.67-5.78,6.84-9.04,9.51c-3.26,2.67-6.61,4.01-10.05,4.01c-1.9,0-3.44-0.43-4.62-1.29
			c-1.18-0.86-2.09-2.04-2.72-3.53c-0.63-1.49-1.06-3.24-1.29-5.23c-0.23-1.99-0.34-4.08-0.34-6.25c0-1.72,0.07-3.55,0.2-5.5
			c0.14-1.95,0.27-3.87,0.41-5.77c0.14-1.9,0.27-3.69,0.41-5.37c0.14-1.68,0.2-3.1,0.2-4.28c0-5.07-1.13-9.33-3.4-12.77
			c-2.27-3.44-5.75-5.16-10.46-5.16c-2.36,0-4.87,0.7-7.54,2.11c-2.67,1.41-5.32,3.69-7.95,6.86c-2.63,3.26-5.14,6.7-7.54,10.33
			c-2.4,3.62-4.69,7.27-6.86,10.94c-2.17,3.67-4.21,7.29-6.11,10.87c-1.9,3.58-3.58,6.86-5.03,9.85c0.27-2.63,0.56-5.89,0.88-9.78
			c0.32-3.89,0.66-7.81,1.02-11.75c0.36-3.94,0.66-7.63,0.88-11.07c0.23-3.44,0.34-5.98,0.34-7.61c0-2.17-0.2-4.3-0.61-6.39
			c-0.41-2.08-1.04-3.99-1.9-5.71c-0.86-1.72-2.02-3.1-3.47-4.14c-1.45-1.04-3.22-1.56-5.3-1.56c-3.53,0-7.09,2.29-10.67,6.86
			c-3.58,4.58-7.4,11.71-11.48,21.4c-0.08,0.2-0.12,0.4-0.17,0.59c-2.67,5.27-5.37,10.09-8.12,14.42c-2.9,4.57-5.77,8.49-8.63,11.75
			c-2.85,3.26-5.64,5.8-8.36,7.61c-2.72,1.81-5.35,2.72-7.88,2.72c-1.54,0-3.15-0.27-4.82-0.82c-1.68-0.54-3.26-1.63-4.76-3.26
			c-1.49-1.63-2.72-3.92-3.67-6.86c-0.95-2.94-1.43-6.81-1.43-11.62c0-3.53,0.11-7.41,0.34-11.62c0.23-4.21,0.5-8.2,0.81-11.96
			c0.32-3.76,0.59-7,0.81-9.72c0.23-2.72,0.34-4.35,0.34-4.89c0-1.36-0.45-2.56-1.36-3.6c-0.91-1.04-2.04-1.56-3.4-1.56
			c-1.54,0-2.79,0.48-3.74,1.43c-0.95,0.95-1.52,2.06-1.7,3.33c-0.96,7.62-1.63,15.26-2.02,22.91c-0.27,0.34-0.5,0.71-0.69,1.14
			c-0.82,1.72-1.81,3.76-2.99,6.11c-1.18,2.36-2.54,4.8-4.08,7.34c-1.54,2.54-3.24,5.05-5.1,7.54c-1.86,2.49-3.8,4.71-5.84,6.66
			c-2.04,1.95-4.12,3.51-6.25,4.69c-2.13,1.18-4.28,1.77-6.45,1.77c-3.35,0-5.98-1.13-7.88-3.4c-1.9-2.26-3.33-4.94-4.28-8.02
			c-0.95-3.08-1.56-6.18-1.83-9.31c-0.27-3.12-0.45-5.55-0.54-7.27c-0.09-1.27-0.61-2.4-1.56-3.4c-0.95-1-2.06-1.49-3.33-1.49
			c-1.36,0-2.54,0.43-3.53,1.29c-1,0.86-1.59,1.93-1.77,3.19c-0.63,4.71-1.75,8.79-3.33,12.23c-1.59,3.44-3.35,6.3-5.3,8.56
			c-1.95,2.27-3.99,3.94-6.11,5.03c-2.13,1.09-4.01,1.63-5.64,1.63c-2.27,0-4.17-0.45-5.71-1.36c-1.54-0.9-2.76-2.08-3.67-3.53
			c-0.91-1.45-1.54-3.06-1.9-4.82c-0.36-1.77-0.54-3.51-0.54-5.23c0-5.52,0.88-10.3,2.65-14.34c1.77-4.03,3.96-7.38,6.59-10.05
			c2.63-2.67,5.52-4.64,8.7-5.91c3.17-1.27,6.16-1.9,8.97-1.9c1.9,0,3.6,0.2,5.09,0.61c1.5,0.41,2.79,0.88,3.87,1.43
			c1.09,0.54,1.95,1.07,2.58,1.56c0.63,0.5,1.04,0.84,1.22,1.02c1,1,2.22,1.49,3.67,1.49c1.36,0,2.54-0.52,3.53-1.56
			c1-1.04,1.49-2.24,1.49-3.6c0-1.27-0.5-2.49-1.49-3.67c-0.09-0.09-0.59-0.52-1.49-1.29c-0.91-0.77-2.2-1.61-3.87-2.51
			c-1.68-0.9-3.69-1.74-6.05-2.51c-2.36-0.77-4.94-1.15-7.75-1.15c-4.17,0-8.49,0.91-12.98,2.72c-4.48,1.81-8.58,4.53-12.3,8.15
			c-2.97,2.89-5.51,6.36-7.64,10.38c-1.47,0.4-2.55,1.42-3.23,3.07c-0.91,2.27-2.38,5.28-4.42,9.04c-2.04,3.76-4.39,7.47-7.07,11.14
			c-2.67,3.67-5.57,6.84-8.7,9.51c-3.13,2.67-6.27,4.01-9.44,4.01c-2.72,0-5.25-0.77-7.61-2.31c-2.36-1.54-4.55-3.64-6.59-6.32
			c-2.04-2.67-3.87-5.8-5.5-9.38c-1.63-3.58-3.04-7.45-4.21-11.62c1.45-1.81,3.08-4.55,4.89-8.22c1.81-3.67,3.65-7.99,5.5-12.98
			c1.86-4.98,3.67-10.42,5.43-16.31c1.77-5.89,3.35-11.93,4.76-18.14c1.4-6.2,2.51-12.43,3.33-18.68
			c0.82-6.25,1.22-12.14,1.22-17.66v-1.49h68.89c1.45,0,2.67-0.43,3.67-1.29c1-0.86,1.49-2.01,1.49-3.46c0-1.45-0.5-2.6-1.49-3.47
			c-1-0.86-2.22-1.29-3.67-1.29h-69.43c-0.36-3.26-0.88-6.25-1.56-8.97c-0.68-2.72-1.61-5.07-2.79-7.07
			c-1.18-1.99-2.61-3.55-4.28-4.69c-1.68-1.13-3.65-1.7-5.91-1.7c-2.36,0-4.51,0.57-6.45,1.7c-1.95,1.13-3.72,2.7-5.3,4.69
			c-1.59,1.99-2.99,4.35-4.21,7.07c-1.22,2.72-2.29,5.71-3.19,8.97h-51.09c-1.45,0-2.67,0.43-3.67,1.29c-1,0.86-1.49,2.02-1.49,3.47
			c0,1.45,0.5,2.6,1.49,3.46c1,0.86,2.22,1.29,3.67,1.29h48.78c-0.91,4.53-1.63,9.17-2.17,13.93c-0.54,4.76-0.95,9.38-1.22,13.86
			c-0.27,4.48-0.45,8.74-0.54,12.77c-0.09,4.03-0.14,7.54-0.14,10.53c0,11.96,0.9,22.96,2.72,33.02c0.39,2.15,0.82,4.23,1.29,6.26
			c-0.98,2.19-2.34,4.9-4.07,8.14c-2.04,3.8-4.44,7.54-7.2,11.21c-2.76,3.67-5.78,6.84-9.04,9.51c-3.26,2.67-6.61,4.01-10.05,4.01
			c-1.9,0-3.44-0.43-4.62-1.29c-1.18-0.86-2.09-2.04-2.72-3.53c-0.63-1.49-1.07-3.24-1.29-5.23c-0.23-1.99-0.34-4.08-0.34-6.25
			c0-1.72,0.07-3.55,0.2-5.5c0.14-1.95,0.27-3.87,0.41-5.77c0.14-1.9,0.27-3.69,0.41-5.37c0.14-1.68,0.2-3.1,0.2-4.28
			c0-5.07-1.13-9.33-3.4-12.77c-2.27-3.44-5.75-5.16-10.46-5.16c-2.36,0-4.87,0.7-7.54,2.11c-2.67,1.41-5.32,3.69-7.95,6.86
			c-2.63,3.26-5.14,6.7-7.54,10.33c-2.4,3.62-4.69,7.27-6.86,10.94c-2.17,3.67-4.21,7.29-6.11,10.87c-1.9,3.58-3.58,6.86-5.03,9.85
			c0.27-2.63,0.56-5.89,0.88-9.78c0.32-3.89,0.66-7.81,1.02-11.75c0.36-3.94,0.66-7.63,0.88-11.07c0.23-3.44,0.34-5.98,0.34-7.61
			c0-2.17-0.2-4.3-0.61-6.39c-0.41-2.08-1.04-3.99-1.9-5.71c-0.86-1.72-2.02-3.1-3.47-4.14c-1.45-1.04-3.22-1.56-5.3-1.56
			c-3.53,0-7.09,2.29-10.67,6.86c-3.58,4.58-7.4,11.71-11.48,21.4c-0.11,0.29-0.18,0.58-0.25,0.86c-0.66,1.45-1.43,3.13-2.33,5.05
			c-1.09,2.31-2.38,4.73-3.87,7.27c-1.49,2.54-3.12,5.05-4.89,7.54c-1.77,2.49-3.69,4.73-5.78,6.73c-2.08,1.99-4.26,3.6-6.52,4.82
			c-2.27,1.22-4.57,1.83-6.93,1.83c-3.26,0-5.89-1.06-7.88-3.19c-1.99-2.13-3.49-4.69-4.48-7.68c-1-2.99-1.65-6.02-1.97-9.1
			c-0.32-3.08-0.39-5.57-0.2-7.47l1.77-22.56c0-1.45-0.45-2.74-1.36-3.87c-0.91-1.13-2.13-1.7-3.67-1.7c-1.36,0-2.54,0.45-3.53,1.36
			c-1,0.91-1.59,2.04-1.77,3.4l-2.04,23.37c-0.45,4.53-1.45,8.47-2.99,11.82c-1.54,3.35-3.33,6.11-5.37,8.29
			c-2.04,2.17-4.12,3.78-6.25,4.82c-2.13,1.04-4.01,1.56-5.64,1.56c-3.9,0-6.91-1.38-9.04-4.14c-2.13-2.76-3.19-6.81-3.19-12.16
			c0-4.71,0.41-8.9,1.22-12.57c0.82-3.67,1.77-6.86,2.85-9.58c1.09-2.72,2.13-4.91,3.13-6.59c1-1.68,1.72-2.92,2.17-3.74
			c0.27-0.54,0.52-1.09,0.75-1.63c0.23-0.54,0.34-1.09,0.34-1.63c0-1.36-0.48-2.56-1.43-3.6c-0.95-1.04-2.15-1.56-3.6-1.56
			c-0.73,0-1.43,0.14-2.11,0.41c-0.68,0.27-1.25,0.68-1.7,1.22c-2.54,3.44-4.53,6.82-5.98,10.12c-1.28,2.91-2.46,6.44-3.56,10.58
			c-0.36,0.29-0.63,0.6-0.78,0.91c-1.45,2.99-2.97,5.62-4.55,7.88c-1.59,2.27-3.38,4.12-5.37,5.57c-1.99,1.45-4.21,2.54-6.66,3.26
			c-2.45,0.73-5.21,1.09-8.29,1.09c-0.64,0-1.22,0-1.77,0c-0.54,0-1.09-0.04-1.63-0.14c0.72-3.17,1.09-6.2,1.09-9.1
			c0-5.52-0.5-10.28-1.49-14.27c-1-3.99-2.33-7.25-4.01-9.78c-1.68-2.53-3.6-4.39-5.78-5.57c-2.17-1.18-4.48-1.77-6.93-1.77
			c-4.08,0-7.36,1.63-9.85,4.89c-2.49,3.26-3.74,7.47-3.74,12.64c0,6.43,1.72,12.23,5.16,17.39c3.44,5.16,7.83,9.15,13.18,11.96
			c-1.81,3.72-4.42,6.77-7.81,9.17c-3.4,2.4-7.68,3.6-12.84,3.6c-2.9,0-5.53-0.52-7.88-1.56c-2.36-1.04-4.39-2.49-6.11-4.35
			c-1.72-1.86-3.04-4.08-3.94-6.66c-0.91-2.58-1.36-5.37-1.36-8.36c0-3.35,0.45-6.39,1.36-9.1c0.9-2.72,2.06-5.07,3.47-7.07
			c1.4-1.99,2.92-3.65,4.55-4.96c1.63-1.31,3.17-2.33,4.62-3.06c1.45-0.72,2.65-1.47,3.6-2.24c0.95-0.77,1.43-1.92,1.43-3.47
			c0-1.36-0.39-2.45-1.16-3.26c-0.77-0.82-1.92-1.22-3.46-1.22c-1.36,0-3.4,0.7-6.12,2.11c-2.72,1.41-5.43,3.53-8.15,6.39
			c-2.72,2.85-5.12,6.43-7.2,10.73c-2.08,4.3-3.12,9.35-3.12,15.15c0,4.53,0.72,8.67,2.17,12.43c1.45,3.76,3.49,6.98,6.11,9.65
			c2.63,2.67,5.71,4.76,9.24,6.25c3.53,1.49,7.43,2.24,11.69,2.24c3.62,0,6.97-0.5,10.05-1.49c3.08-1,5.86-2.35,8.36-4.08
			c2.49-1.72,4.69-3.74,6.59-6.05c1.9-2.31,3.53-4.82,4.89-7.54c1.72,0.36,3.71,0.54,5.98,0.54c4.26,0.09,8.11-0.41,11.55-1.49
			c3.44-1.09,6.54-2.56,9.31-4.42c1.2-0.81,2.32-1.68,3.38-2.61c0.13,3.41,0.61,6.53,1.51,9.34c1.04,3.26,2.56,6.05,4.55,8.36
			c1.99,2.31,4.35,4.1,7.06,5.37c2.72,1.27,5.8,1.9,9.24,1.9c4.26,0,8.49-1.49,12.7-4.48c4.21-2.99,7.9-7.07,11.07-12.23
			c1.72,5.62,4.35,9.94,7.88,12.98c3.53,3.03,7.97,4.55,13.32,4.55c3.89,0,7.54-0.88,10.94-2.65c3.4-1.77,6.54-4.03,9.44-6.79
			c2.9-2.76,5.52-5.77,7.88-9.04c2.35-3.26,4.37-6.36,6.05-9.31c1.67-2.94,3.03-5.57,4.08-7.88c1.04-2.31,1.74-3.83,2.11-4.55
			c3.26-7.88,5.93-13.38,8.02-16.51c2.08-3.13,3.53-4.82,4.35-5.1c0.54,0.45,0.9,1.72,1.09,3.8c0.18,2.08,0.27,4.26,0.27,6.52
			c0,1.72-0.09,3.85-0.27,6.39c-0.18,2.54-0.41,5.28-0.68,8.22c-0.27,2.94-0.54,5.91-0.82,8.9c-0.27,2.99-0.54,5.77-0.81,8.36
			c-0.27,2.58-0.5,4.8-0.68,6.66c-0.18,1.86-0.27,3.1-0.27,3.74c0,2.9,0.79,5.14,2.38,6.73c1.58,1.58,3.69,2.38,6.32,2.38
			c1.9,0,3.76-0.66,5.57-1.97c1.81-1.31,3.62-3.87,5.44-7.68c0.9-1.99,2.15-4.51,3.74-7.54c1.58-3.03,3.31-6.23,5.16-9.58
			c1.85-3.35,3.85-6.73,5.98-10.12c2.13-3.4,4.21-6.45,6.25-9.17c2.04-2.72,3.99-4.91,5.84-6.59c1.86-1.68,3.51-2.51,4.96-2.51
			c0.72,0,1.54,0.52,2.45,1.56c0.9,1.04,1.36,3.01,1.36,5.91c0,1.72-0.07,3.53-0.2,5.43c-0.14,1.9-0.32,3.8-0.54,5.71
			c-0.23,1.9-0.41,3.72-0.54,5.44c-0.14,1.72-0.2,3.26-0.2,4.62c0,3.17,0.25,6.32,0.75,9.44c0.5,3.13,1.47,5.98,2.92,8.56
			c1.45,2.58,3.44,4.67,5.98,6.25c2.53,1.58,5.84,2.38,9.92,2.38c3.62,0,7.09-0.91,10.39-2.72c3.31-1.81,6.39-4.08,9.24-6.79
			c2.85-2.72,5.46-5.73,7.81-9.04c2.35-3.31,4.42-6.43,6.18-9.38c0.24-0.4,0.46-0.78,0.68-1.16c0.76,1.99,1.58,3.89,2.44,5.71
			c3.49,7.34,7.72,13.04,12.7,17.12c4.98,4.08,10.6,6.11,16.85,6.11c3.53,0,6.88-0.91,10.06-2.72c3.17-1.81,6.14-4.08,8.9-6.79
			c2.76-2.72,5.25-5.73,7.47-9.04c0.31-0.47,0.61-0.93,0.92-1.39c0.26,1.54,0.63,3.03,1.12,4.45c1.04,2.99,2.51,5.59,4.42,7.81
			c1.9,2.22,4.21,3.94,6.93,5.16c2.72,1.22,5.75,1.83,9.1,1.83c4.26,0,8.51-1.52,12.77-4.55c4.26-3.03,7.93-7.13,11.01-12.3
			c1.63,5.07,4.23,9.29,7.81,12.64c3.58,3.35,7.99,5.03,13.25,5.03c3.71,0,7.25-0.88,10.6-2.65c3.35-1.77,6.47-4.01,9.38-6.73
			c2.9-2.72,5.52-5.71,7.88-8.97c1.38-1.91,2.64-3.76,3.82-5.58c0.25,2.52,0.66,4.96,1.28,7.28c1.04,3.94,2.63,7.36,4.76,10.26
			c2.13,2.9,4.73,5.21,7.81,6.93c3.08,1.72,6.66,2.58,10.73,2.58c3.17,0,6.29-0.77,9.37-2.31c3.08-1.54,6.02-3.55,8.83-6.05
			c2.81-2.49,5.46-5.3,7.95-8.42c2.49-3.12,4.78-6.27,6.86-9.44c2.08-3.17,3.94-6.25,5.57-9.24c1.63-2.99,2.99-5.52,4.08-7.61
			c0.03-0.05,0.05-0.11,0.08-0.16c0.02-0.04,0.04-0.07,0.06-0.11c0.02-0.05,0.04-0.09,0.06-0.14c0.02-0.05,0.04-0.09,0.06-0.14
			c3.21-7.73,5.84-13.15,7.9-16.23c2.08-3.13,3.53-4.82,4.35-5.1c0.54,0.45,0.9,1.72,1.09,3.8c0.18,2.08,0.27,4.26,0.27,6.52
			c0,1.72-0.09,3.85-0.27,6.39c-0.18,2.54-0.41,5.28-0.68,8.22c-0.27,2.94-0.54,5.91-0.82,8.9c-0.27,2.99-0.54,5.77-0.81,8.36
			c-0.27,2.58-0.5,4.8-0.68,6.66c-0.18,1.86-0.27,3.1-0.27,3.74c0,2.9,0.79,5.14,2.38,6.73c1.58,1.58,3.69,2.38,6.32,2.38
			c1.9,0,3.76-0.66,5.57-1.97c1.81-1.31,3.62-3.87,5.44-7.68c0.9-1.99,2.15-4.51,3.74-7.54c1.58-3.03,3.31-6.23,5.16-9.58
			c1.85-3.35,3.85-6.73,5.98-10.12c2.13-3.4,4.21-6.45,6.25-9.17c2.04-2.72,3.99-4.91,5.84-6.59c1.86-1.68,3.51-2.51,4.96-2.51
			c0.72,0,1.54,0.52,2.45,1.56c0.9,1.04,1.36,3.01,1.36,5.91c0,1.72-0.07,3.53-0.2,5.43c-0.14,1.9-0.32,3.8-0.54,5.71
			c-0.23,1.9-0.41,3.72-0.54,5.44c-0.14,1.72-0.2,3.26-0.2,4.62c0,3.17,0.25,6.32,0.75,9.44c0.5,3.13,1.47,5.98,2.92,8.56
			c1.45,2.58,3.44,4.67,5.98,6.25c2.53,1.58,5.84,2.38,9.92,2.38c3.62,0,7.09-0.91,10.39-2.72c3.31-1.81,6.39-4.08,9.24-6.79
			c2.85-2.72,5.46-5.73,7.81-9.04c2.35-3.31,4.42-6.43,6.18-9.38c1.77-2.94,3.19-5.55,4.28-7.81c1.09-2.26,1.81-3.76,2.17-4.48
			c0.27-0.63,0.41-1.27,0.41-1.9c0-1.27-0.48-2.47-1.43-3.6C1611.67,1112.04,1610.42,1111.48,1608.88,1111.48z M1003.02,1128.05
			c-1.9-1.18-3.56-2.6-4.96-4.28c-1.41-1.68-2.58-3.44-3.53-5.3c-0.95-1.86-1.65-3.74-2.11-5.64c-0.45-1.9-0.68-3.71-0.68-5.43
			c0-2.72,0.45-4.48,1.36-5.3c0.9-0.81,1.63-1.22,2.17-1.22c1.36,0,2.53,0.66,3.53,1.97c1,1.31,1.83,3.04,2.51,5.16
			c0.68,2.13,1.2,4.46,1.56,7c0.36,2.54,0.54,5.03,0.54,7.47C1003.43,1124.3,1003.29,1126.15,1003.02,1128.05z M1278.3,1006.24
			c1.54-1.77,2.72-2.65,3.53-2.65c1.09,0,2.06,1.09,2.92,3.26c0.86,2.17,1.52,5.16,1.97,8.97h-13.04
			C1275.22,1011.2,1276.76,1008.01,1278.3,1006.24z M1268.18,1046.19c0.77-8.29,1.79-15.24,3.06-20.86h16.03
			c0,5.71-0.43,11.96-1.29,18.75c-0.86,6.79-2.08,13.72-3.67,20.79c-1.59,7.07-3.49,14.06-5.71,20.99
			c-2.22,6.93-4.69,13.38-7.41,19.36c-0.73-3.62-1.27-7.68-1.63-12.16c-0.36-4.48-0.54-10.03-0.54-16.64
			C1267.02,1064.56,1267.41,1054.48,1268.18,1046.19z"/>
		<path d="M2330.57,1113.11c-0.95-1.09-2.2-1.63-3.74-1.63c-1,0-1.9,0.25-2.72,0.75c-0.81,0.5-1.45,1.25-1.9,2.24
			c-1.9,4.26-4.03,8.52-6.39,12.77c-2.36,4.26-5.03,8.11-8.02,11.55c-2.99,3.44-6.3,6.23-9.92,8.36c-3.62,2.13-7.66,3.19-12.09,3.19
			c-4.35,0-8.02-0.79-11.01-2.38c-2.99-1.58-5.43-3.69-7.34-6.32c3.53-1.72,6.84-3.76,9.92-6.11c3.08-2.35,5.73-4.94,7.95-7.74
			c2.22-2.81,3.96-5.84,5.23-9.1c1.27-3.26,1.9-6.75,1.9-10.46c0-2.9-0.5-5.48-1.49-7.74c-1-2.26-2.31-4.19-3.94-5.77
			c-1.63-1.58-3.47-2.81-5.5-3.67c-2.04-0.86-4.1-1.29-6.18-1.29c-3.53,0-6.77,0.81-9.71,2.45c-2.95,1.63-5.48,3.9-7.61,6.79
			c-2.13,2.9-3.76,6.3-4.89,10.19c-0.36,1.23-0.64,2.52-0.89,3.83c-0.43,0.44-0.79,0.97-1.08,1.61
			c-6.61,14.67-18.43,33.11-35.46,55.3c0.09-6.52,0.2-12.7,0.34-18.55c0.14-5.84,0.25-10.98,0.34-15.42
			c0.09-4.44,0.18-7.99,0.27-10.67c0.09-2.67,0.14-4.05,0.14-4.14c0-1.36-0.43-2.58-1.29-3.67c-0.86-1.09-2.06-1.63-3.6-1.63
			c-1.36,0-2.54,0.43-3.53,1.29c-1,0.86-1.59,1.93-1.77,3.19c-0.63,4.71-1.7,8.79-3.19,12.23c-1.49,3.44-3.24,6.3-5.23,8.56
			c-1.99,2.27-4.05,3.94-6.18,5.03c-2.13,1.09-4.14,1.63-6.05,1.63c-3.99,0-6.93-1.34-8.83-4.01c-1.9-2.67-2.85-6.18-2.85-10.53
			c0-5.8,0.95-10.76,2.85-14.88c1.9-4.12,4.26-7.49,7.07-10.12c2.81-2.63,5.84-4.55,9.1-5.77c3.26-1.22,6.25-1.83,8.97-1.83
			c1.81,0,3.37,0.18,4.69,0.54c1.31,0.36,2.45,0.81,3.4,1.36c0.95,0.54,1.72,1.07,2.31,1.56c0.59,0.5,1.06,0.88,1.43,1.16
			c1.18,1,2.4,1.49,3.67,1.49c1.36,0,2.54-0.52,3.53-1.56c1-1.04,1.49-2.24,1.49-3.6c0-1.36-0.5-2.58-1.49-3.67
			c-0.09-0.09-0.59-0.54-1.49-1.36c-0.91-0.82-2.2-1.68-3.87-2.58c-1.68-0.9-3.69-1.72-6.05-2.45c-2.36-0.72-4.94-1.09-7.75-1.09
			c-4.17,0-8.49,0.91-12.98,2.72c-4.48,1.81-8.58,4.53-12.3,8.15c-3.03,2.95-5.61,6.5-7.76,10.62c-0.25,0.11-0.49,0.23-0.73,0.38
			c-0.86,0.54-1.52,1.31-1.97,2.31c-1,2.36-2.51,5.44-4.55,9.24c-2.04,3.8-4.44,7.54-7.2,11.21c-2.76,3.67-5.78,6.84-9.04,9.51
			c-3.26,2.67-6.61,4.01-10.05,4.01c-1.9,0-3.44-0.43-4.62-1.29c-1.18-0.86-2.09-2.04-2.72-3.53c-0.63-1.49-1.07-3.24-1.29-5.23
			c-0.23-1.99-0.34-4.08-0.34-6.25c0-1.72,0.07-3.55,0.2-5.5c0.14-1.95,0.27-3.87,0.41-5.77c0.14-1.9,0.27-3.69,0.41-5.37
			c0.14-1.68,0.2-3.1,0.2-4.28c0-5.07-1.13-9.33-3.4-12.77c-2.27-3.44-5.75-5.16-10.46-5.16c-2.36,0-4.87,0.7-7.54,2.11
			c-2.67,1.41-5.32,3.69-7.95,6.86c-2.63,3.26-5.14,6.7-7.54,10.33c-2.4,3.62-4.69,7.27-6.86,10.94c-2.17,3.67-4.21,7.29-6.11,10.87
			c-1.9,3.58-3.58,6.86-5.03,9.85c0.27-2.63,0.56-5.89,0.88-9.78c0.32-3.89,0.66-7.81,1.02-11.75c0.36-3.94,0.66-7.63,0.88-11.07
			c0.23-3.44,0.34-5.98,0.34-7.61c0-2.17-0.2-4.3-0.61-6.39c-0.41-2.08-1.04-3.99-1.9-5.71c-0.86-1.72-2.02-3.1-3.47-4.14
			c-1.45-1.04-3.22-1.56-5.3-1.56c-3.53,0-7.09,2.29-10.67,6.86c-3.58,4.58-7.4,11.71-11.48,21.4c0,0,0,0,0,0.01
			c-0.82,1.72-1.81,3.76-2.99,6.11c-1.18,2.36-2.54,4.8-4.08,7.34c-1.54,2.54-3.24,5.05-5.1,7.54c-1.86,2.49-3.8,4.71-5.84,6.66
			c-2.04,1.95-4.12,3.51-6.25,4.69c-2.13,1.18-4.28,1.77-6.45,1.77c-3.35,0-5.98-1.13-7.88-3.4c-1.9-2.26-3.33-4.94-4.28-8.02
			c-0.95-3.08-1.56-6.18-1.83-9.31c-0.27-3.12-0.45-5.55-0.54-7.27c-0.09-1.27-0.61-2.4-1.56-3.4c-0.95-1-2.06-1.49-3.33-1.49
			c-1.36,0-2.54,0.43-3.53,1.29c-1,0.86-1.59,1.93-1.77,3.19c-0.63,4.71-1.75,8.79-3.33,12.23c-1.59,3.44-3.35,6.3-5.3,8.56
			c-1.95,2.27-3.99,3.94-6.11,5.03c-2.13,1.09-4.01,1.63-5.64,1.63c-2.27,0-4.17-0.45-5.71-1.36c-1.54-0.9-2.76-2.08-3.67-3.53
			c-0.91-1.45-1.54-3.06-1.9-4.82c-0.36-1.77-0.54-3.51-0.54-5.23c0-5.52,0.88-10.3,2.65-14.34c1.77-4.03,3.96-7.38,6.59-10.05
			c2.63-2.67,5.52-4.64,8.7-5.91c3.17-1.27,6.16-1.9,8.97-1.9c1.9,0,3.6,0.2,5.09,0.61c1.5,0.41,2.79,0.88,3.87,1.43
			c1.09,0.54,1.95,1.07,2.58,1.56c0.63,0.5,1.04,0.84,1.22,1.02c1,1,2.22,1.49,3.67,1.49c1.36,0,2.54-0.52,3.53-1.56
			c1-1.04,1.49-2.24,1.49-3.6c0-1.27-0.5-2.49-1.49-3.67c-0.09-0.09-0.59-0.52-1.49-1.29c-0.91-0.77-2.2-1.61-3.87-2.51
			c-1.68-0.9-3.69-1.74-6.05-2.51c-2.36-0.77-4.94-1.15-7.75-1.15c-4.17,0-8.49,0.91-12.98,2.72c-4.48,1.81-8.58,4.53-12.3,8.15
			c-3.15,3.07-5.83,6.79-8.03,11.14c-0.74,0.56-1.32,1.38-1.75,2.45c0,0.09-0.39,1.11-1.16,3.06c-0.77,1.95-1.88,4.39-3.33,7.34
			c-1.45,2.94-3.24,6.11-5.37,9.51c-2.13,3.4-4.57,6.55-7.34,9.44c-2.76,2.9-5.87,5.32-9.31,7.27c-3.44,1.95-7.2,2.92-11.28,2.92
			c-2.9,0-5.37-0.34-7.4-1.02c-2.04-0.68-3.76-1.92-5.16-3.74c-1.4-1.81-2.49-4.32-3.26-7.54c-0.77-3.21-1.25-7.41-1.43-12.57
			c-0.18-3.53-0.48-7.93-0.88-13.18c-0.41-5.25-1.31-10.78-2.72-16.58c-1.41-5.8-3.53-11.53-6.39-17.19
			c-2.85-5.66-6.77-10.62-11.75-14.88c13.59-6.61,23.89-14.9,30.91-24.86c7.02-9.96,10.53-21.06,10.53-33.29
			c0-9.24-2.26-17.5-6.79-24.8c-4.53-7.29-10.87-13.45-19.02-18.48c-8.15-5.03-17.87-8.88-29.15-11.55
			c-11.28-2.67-23.67-4.01-37.16-4.01c-13.23,0-26.04,1.09-38.45,3.26c-12.41,2.17-24.03,5.25-34.85,9.24
			c-10.83,3.99-20.72,8.76-29.69,14.33s-16.67,11.8-23.1,18.68c-6.43,6.88-11.41,14.29-14.95,22.22c-3.53,7.93-5.3,16.19-5.3,24.8
			c0,7.79,1.38,14.74,4.14,20.86c2.76,6.11,6.5,11.3,11.21,15.56c4.71,4.26,10.17,7.52,16.37,9.78c6.2,2.27,12.75,3.4,19.63,3.4
			c7.43,0,14.02-0.81,19.77-2.45c5.75-1.63,10.62-3.44,14.61-5.44c3.99-1.99,7.04-3.87,9.17-5.64c2.13-1.77,3.28-2.74,3.47-2.92
			c1-0.9,1.49-2.08,1.49-3.53c0-1.45-0.5-2.65-1.49-3.6c-1-0.95-2.17-1.43-3.53-1.43c-0.91,0-1.77,0.29-2.58,0.88
			c-0.81,0.59-1.54,1.11-2.17,1.56c-0.18,0.18-1.11,0.93-2.79,2.24c-1.68,1.31-4.14,2.72-7.41,4.21c-3.26,1.49-7.29,2.88-12.09,4.14
			c-4.8,1.27-10.37,1.9-16.71,1.9c-5.35,0-10.46-0.84-15.35-2.51c-4.89-1.68-9.22-4.17-12.98-7.47c-3.76-3.31-6.77-7.43-9.04-12.36
			c-2.27-4.94-3.4-10.67-3.4-17.19c0-8.79,1.9-16.94,5.71-24.46c3.8-7.52,9.01-14.34,15.63-20.45c6.61-6.11,14.36-11.53,23.23-16.24
			c8.88-4.71,18.36-8.65,28.47-11.82c10.1-3.17,20.56-5.55,31.39-7.13c10.82-1.58,21.44-2.38,31.86-2.38
			c11.96,0,22.94,1.13,32.95,3.4c10.01,2.27,18.61,5.53,25.82,9.78c7.2,4.26,12.79,9.49,16.78,15.69
			c3.98,6.21,5.98,13.29,5.98,21.26c0,10.69-3.49,20.38-10.46,29.08c-6.98,8.7-17.03,15.67-30.16,20.92
			c-5.07-2.72-10.64-4.8-16.71-6.25c-6.07-1.45-12.36-2.17-18.89-2.17c-1.99,0-3.87,0.07-5.64,0.2c-1.77,0.14-3.47,0.29-5.1,0.48
			c0.09-1.45,0.16-2.9,0.2-4.35c0.04-1.45,0.16-2.9,0.34-4.35c0.63-8.33,2.13-15.33,4.48-20.99c2.36-5.66,4.8-10.21,7.34-13.66
			c2.53-3.44,4.87-5.93,7-7.47c2.13-1.54,3.33-2.4,3.6-2.58c1.72-1,2.58-2.49,2.58-4.48c0-1.54-0.52-2.79-1.56-3.74
			c-1.04-0.95-2.24-1.43-3.6-1.43c-0.91,0-1.68,0.18-2.31,0.54c-0.18,0.09-0.91,0.54-2.17,1.36c-1.27,0.82-2.85,2.11-4.76,3.87
			c-1.9,1.77-3.94,4.01-6.12,6.73c-2.17,2.72-4.28,6.03-6.32,9.92c-2.04,3.9-3.8,8.42-5.3,13.59c-1.49,5.16-2.51,11.01-3.06,17.53
			c-0.18,1.99-0.32,4.01-0.41,6.05c-0.09,2.04-0.14,4.1-0.14,6.18c-3.17,1.27-5.62,2.9-7.34,4.89c-1.72,1.99-2.58,4.3-2.58,6.93
			c0,2.63,0.9,4.85,2.72,6.66c1.81,1.81,4.21,3.22,7.2,4.21v5.3c0,10.6-0.95,20.18-2.85,28.74c-1.9,8.56-4.94,15.9-9.1,22.01
			c-4.17,6.11-9.56,10.83-16.17,14.13c-6.61,3.31-14.59,4.96-23.91,4.96c-4.62,0-9.17-0.59-13.66-1.77
			c-4.48-1.18-8.7-2.83-12.64-4.96c-3.94-2.13-7.5-4.69-10.67-7.68c-3.17-2.99-5.75-6.25-7.75-9.78c-1-1.72-2.49-2.58-4.48-2.58
			c-1.54,0-2.79,0.52-3.74,1.56c-0.95,1.04-1.43,2.2-1.43,3.46c0,0.91,0.23,1.72,0.68,2.45c2.17,4.17,5.14,8.04,8.9,11.62
			c3.76,3.58,8.02,6.68,12.77,9.31c4.76,2.63,9.87,4.69,15.35,6.18c5.48,1.49,11.03,2.24,16.64,2.24c11.32,0,20.92-2.06,28.81-6.18
			c7.88-4.12,14.31-9.78,19.29-16.98c4.98-7.2,8.58-15.67,10.8-25.41c2.22-9.74,3.33-20.18,3.33-31.32v-4.08
			c7.97-0.09,15.69-0.79,23.17-2.11c7.47-1.31,14.7-3.15,21.67-5.5c3.53,2.36,6.52,5.12,8.97,8.29c2.45,3.17,4.48,6.52,6.11,10.05
			c1.63,3.53,2.9,7.16,3.8,10.87c0.9,3.72,1.61,7.32,2.11,10.8c0.5,3.49,0.84,6.79,1.02,9.92c0.18,3.12,0.32,5.82,0.41,8.08
			c0.18,5.44,0.75,10.26,1.7,14.47c0.95,4.21,2.45,7.79,4.48,10.73c2.04,2.94,4.66,5.18,7.88,6.73c3.21,1.54,7.22,2.31,12.02,2.31
			c5.44,0,10.39-1.09,14.88-3.26c4.48-2.17,8.51-4.91,12.09-8.22c3.58-3.31,6.73-6.91,9.44-10.8c0.27-0.38,0.51-0.75,0.77-1.13
			c0.19,0.75,0.41,1.49,0.66,2.22c1.04,2.99,2.51,5.59,4.42,7.81c1.9,2.22,4.21,3.94,6.93,5.16c2.72,1.22,5.75,1.83,9.1,1.83
			c4.26,0,8.51-1.52,12.77-4.55c4.26-3.03,7.93-7.13,11.01-12.3c1.63,5.07,4.23,9.29,7.81,12.64c3.58,3.35,7.99,5.03,13.25,5.03
			c3.71,0,7.25-0.88,10.6-2.65c3.35-1.77,6.47-4.01,9.38-6.73c2.9-2.72,5.52-5.71,7.88-8.97c2.36-3.26,4.42-6.39,6.18-9.38
			c1.77-2.99,3.21-5.64,4.35-7.95c1.13-2.31,1.88-3.83,2.24-4.55c3.26-7.88,5.93-13.38,8.02-16.51c2.08-3.13,3.53-4.82,4.35-5.1
			c0.54,0.45,0.9,1.72,1.09,3.8c0.18,2.08,0.27,4.26,0.27,6.52c0,1.72-0.09,3.85-0.27,6.39c-0.18,2.54-0.41,5.28-0.68,8.22
			c-0.27,2.94-0.54,5.91-0.82,8.9c-0.27,2.99-0.54,5.77-0.81,8.36c-0.27,2.58-0.5,4.8-0.68,6.66c-0.18,1.86-0.27,3.1-0.27,3.74
			c0,2.9,0.79,5.14,2.38,6.73c1.58,1.58,3.69,2.38,6.32,2.38c1.9,0,3.76-0.66,5.57-1.97c1.81-1.31,3.62-3.87,5.44-7.68
			c0.9-1.99,2.15-4.51,3.74-7.54c1.58-3.03,3.31-6.23,5.16-9.58c1.85-3.35,3.85-6.73,5.98-10.12c2.13-3.4,4.21-6.45,6.25-9.17
			c2.04-2.72,3.99-4.91,5.84-6.59c1.86-1.68,3.51-2.51,4.96-2.51c0.72,0,1.54,0.52,2.45,1.56c0.9,1.04,1.36,3.01,1.36,5.91
			c0,1.72-0.07,3.53-0.2,5.43c-0.14,1.9-0.32,3.8-0.54,5.71c-0.23,1.9-0.41,3.72-0.54,5.44c-0.14,1.72-0.2,3.26-0.2,4.62
			c0,3.17,0.25,6.32,0.75,9.44c0.5,3.13,1.47,5.98,2.92,8.56c1.45,2.58,3.44,4.67,5.98,6.25c2.53,1.58,5.84,2.38,9.92,2.38
			c3.62,0,7.09-0.91,10.39-2.72c3.31-1.81,6.39-4.08,9.24-6.79c2.85-2.72,5.46-5.73,7.81-9.04c0.41-0.58,0.8-1.15,1.2-1.71
			c0.25,1.61,0.62,3.16,1.11,4.63c1,2.99,2.4,5.59,4.21,7.81c1.81,2.22,4.01,3.94,6.59,5.16c2.58,1.22,5.46,1.83,8.63,1.83
			c3.71,0,7.45-1,11.21-2.99c3.76-1.99,7-4.71,9.71-8.15c-0.18,5.25-0.29,11.01-0.34,17.26c-0.05,6.25-0.11,12.54-0.2,18.89
			c-3.72,4.08-7.23,8.6-10.53,13.59c-3.31,4.98-6.37,10.19-9.17,15.63c-2.81,5.43-5.37,11.03-7.68,16.78
			c-2.31,5.75-4.28,11.43-5.91,17.05c-1.63,5.61-2.88,11.07-3.74,16.37c-0.86,5.3-1.29,10.21-1.29,14.74
			c0,8.51,1.63,15.08,4.89,19.7c3.26,4.62,7.93,6.93,13.99,6.93c4.26,0,7.95-1.07,11.07-3.19c3.13-2.13,5.8-5.07,8.02-8.83
			c2.22-3.76,4.03-8.2,5.43-13.32c1.4-5.12,2.51-10.69,3.33-16.71c0.81-6.03,1.38-12.36,1.7-19.02c0.32-6.66,0.48-13.38,0.48-20.18
			s-0.05-13.04-0.14-18.75c-0.09-5.71-0.14-11.41-0.14-17.12c11.23-14.04,20.52-26.63,27.85-37.77c3.51-5.33,6.62-10.41,9.36-15.25
			c0.17,0.69,0.36,1.38,0.56,2.07c1.36,4.62,3.44,8.76,6.25,12.43c2.81,3.67,6.39,6.66,10.73,8.97c4.35,2.31,9.51,3.47,15.49,3.47
			c9.33-0.18,17.68-3.76,25.07-10.73c7.38-6.97,14.2-17.35,20.45-31.12c0.18-0.36,0.32-0.7,0.41-1.02c0.09-0.32,0.14-0.7,0.14-1.15
			C2332,1115.37,2331.52,1114.19,2330.57,1113.11z M1831.92,1068.81c-5.84,0.64-11.53,0.95-17.05,0.95v-6.52v-0.14
			c2.99-0.54,6.84-0.81,11.55-0.81c2.63,0,4.96,0.11,7,0.34c2.04,0.23,3.89,0.5,5.57,0.81c1.67,0.32,3.24,0.7,4.69,1.16
			c1.45,0.45,2.94,0.91,4.48,1.36C1843.17,1067.23,1837.76,1068.18,1831.92,1068.81z M2205.64,1223.3c0,4.35-0.09,9.1-0.27,14.27
			c-0.18,5.16-0.5,10.35-0.95,15.56c-0.45,5.21-1.13,10.26-2.04,15.15c-0.91,4.89-2.08,9.22-3.53,12.98
			c-1.45,3.76-3.22,6.77-5.3,9.04c-2.08,2.26-4.53,3.4-7.34,3.4c-0.91,0-1.88-0.18-2.92-0.54c-1.04-0.36-1.99-1.09-2.85-2.17
			c-0.86-1.09-1.59-2.63-2.17-4.62c-0.59-1.99-0.88-4.67-0.88-8.02c0-5.25,0.66-11.21,1.97-17.87c1.31-6.66,3.19-13.52,5.64-20.58
			c2.45-7.07,5.39-14.06,8.83-20.99c3.44-6.93,7.29-13.34,11.55-19.23c0.18,4.08,0.27,8.06,0.27,11.96
			C2205.64,1215.51,2205.64,1219.41,2205.64,1223.3z M2262.23,1127.65c-0.32-1.81-0.48-3.53-0.48-5.16c0-2.63,0.25-5.28,0.75-7.95
			c0.5-2.67,1.29-5.1,2.38-7.27c1.09-2.17,2.49-3.94,4.21-5.3c1.72-1.36,3.8-2.04,6.25-2.04c1.81,0,3.4,0.7,4.76,2.11
			c1.36,1.41,2.04,3.46,2.04,6.18c0,2.45-0.45,4.87-1.36,7.27c-0.91,2.4-2.17,4.69-3.8,6.86c-1.63,2.17-3.6,4.17-5.91,5.98
			c-2.31,1.81-4.87,3.31-7.68,4.48C2262.93,1131.18,2262.55,1129.46,2262.23,1127.65z"/>
	</g>
</g>
<path class="st3" d="M7430.5,2408.94c-81.81,0-197.07-220.61-216.02-159.95c-18.96,60.66-18.22-33.67-114.91-75.38
	c-96.68-41.71-99.12-153.74-150.3-134.78c-75.97,28.14-225.59-295.73-246.45-210.43c-9.1,37.24-58.77-39.81-96.68-60.66
	c-37.92-20.85-64.46-77.73-100.47-94.79c-36.02-17.06-79.62-87.2-92.89-58.77c-13.27,28.44-62.56,136.49-94.79,153.55
	c-32.23,17.06-68.25,136.49-96.68,161.14c-28.44,24.64-90.05,43.6-127.01,119.43c-36.97,75.83,0-19.91,0-36.02
	c0-16.11,89.1-70.4,89.1-99.66c0-29.25-6.64-107.93,17.06-133.52s107.11-45.5,109.95-91.94c2.84-46.45,75.83-47.39,68.25-90.05
	s-17.06-12.32-46.45,6.64c-29.38,18.96-61.61-94.79-81.52-99.53c-19.91-4.74-12.32,27.49-38.86,33.18
	c-26.54,5.69-33.18-47.39-58.77-39.81c-25.59,7.58,12.32,83.41-47.39,114.69c-59.72,31.28-74.88,110.9-82.46,155.45
	c-7.58,44.55-75.83,71.09-75.83,111.85c0,40.76-4.74,15.17-3.48-22.12c1.26-37.28,35.39-68.25,25.28-101.11
	c-10.11-32.86,20.85-114.69,54.98-144.08c34.12-29.38,86.26-36.02,90.05-73.93c3.79-37.91-15.17,14.22-47.39,24.64
	c-32.23,10.43-36.02-42.65-55.92-34.12c-19.91,8.53-92.89,109-121.33,127.01s-92.89,81.52-105.21,143.13
	c-12.32,61.61,15.17,49.29,51.19-10.43c36.02-59.72,66.35-92.89,93.84-124.17c27.49-31.28-84.36,104.27-84.36,149.76
	c0,45.5-16.11,87.89-90.05,98.45s-92.42,2.5-172.04,127.62c-79.62,125.12-116.59,72.51-137.92,137.91
	c-21.33,65.4-57.03,65.97-61.15,146.76c-4.26,83.57-8.05,72.2-27.01-30.17c-14.65-79.08,28.91-106.64,47.39-159.24
	s115.64-36.02,182.94-146.29c35.9-58.82,31.28-159.4,89.57-219.11c58.29-59.72,230.33-162.09,217.54-176.3s-29.86,27.01-96.68-39.81
	c-66.82-66.82-34.12-115.17-110.9-133.65c-76.78-18.48-49.76,8.53-5.69,66.82c44.08,58.29,39.81,73.93-11.37,17.06
	c-51.18-56.87-75.36-102.37-81.04-137.91c-5.69-35.55-22.75-45.5-44.08-52.61c-21.33-7.11-24.17-112.32-41.23-83.89
	c-17.06,28.44-38.86-108.53-63.03-119.91c-24.17-11.37-36.97-118.01-54.03-81.04s-40.76-70.14-57.82-97.16
	c-17.06-27.01-69.78-129.62-111.01-182.23c-41.23-52.61-20.65,90.36-53.92,180.33c-46.77,126.52-54.03,305.21-22.75,350.71
	c31.28,45.5,85.31,107.11,76.78,158.29s76.78,99.53,36.97,170.62c-39.81,71.09-54.03,176.3-45.5,204.74s-35.54-42.65-34.12-81.04
	s58.29-146.45,27.01-207.58c-31.28-61.14-88.15-149.29-149.29-173.46c-61.14-24.17-7.11-199.05,8.53-228.91
	c15.64-29.86,37.42-102.16,68.25-225.59c39.81-159.42,15.17-98.58-60.66-13.27c-93.5,105.18-105.69,150.71-221.8,327.96
	c-37.01,56.5,66.35,186.73,47.87,236.49c-18.48,49.76-14.22-54.03-66.82-108.06c-52.61-54.03-14.22,18.48-44.08,73.93
	c-29.86,55.45-73.46,61.14-126.54,112.32c-53.08,51.18-34.12,94.79-66.35,200.95s-128.09,105.06-176.3,225.59
	c-37.91,94.79-75.83,58.77-185.64,194.17c-151.63,186.96-140.43,225.07-117.67,128.11c21.8-92.89,42.65-80.57,102.37-180.09
	c59.72-99.53,238.86-213.27,236.02-332.7c-2.84-119.43,92.43-173.14,116.59-221.8c66.35-133.65,139.46-125.86,157.35-198.1
	c47.39-191.47,92.89-189.57-114.69-49.29c-158.49,107.1-157.35,47.39-188.63,16.11c-31.28-31.28-54.03-224.64-62.56-176.3
	c-8.53,48.34-115.64-256.87-150.71-200.95c-42.78,68.22-40.79,135.76-127.01,200c-105.55,78.64-21.54,192.95,17.28,211.63
	c75.85,36.49,42.69,37.83,58.7,61.86s51.24,7.38,46.5,40.05c-12.2,84.11,13.26,157.15,0,141.07
	c-59.08-71.65-87.67-182.45-163.14-218.94c-31.78-15.37-63.98-111.55-48.92-158.41c39.81-123.85-3.79-21.33-41.23-21.33
	c-14.89,0,38.54,169.42,36.79,178.85c-8.35,44.85-103.14,110.25-89.87,171.86c13.27,61.61,53.08,124.17-59.72,174.41
	c-112.8,50.24-117.54,185.78-117.54,185.78s-5.69-6.06-7.11-99.71c-1.42-93.65,43.13-52.89,65.88-113.56
	c22.75-60.66,91-132.7,37.91-197.16c-53.08-64.46,137.08-56.29,121.3-112.98c-11.47-41.21-20.05-180.26-37.08-163.05
	c-74.86,75.63-89.91,103.53-180.9,72.25c-91-31.28-59.72-99.53-130.81-22.75c-71.09,76.78-25.59,193.36-145.02,247.39
	c-119.43,54.03-91,133.65-108.06,173.46c-17.06,39.81,4.27,25.59-18.48-36.97c-22.75-62.56,48.34-109.48,51.18-146.45
	s17.06-79.62-24.17-25.59c-41.23,54.03-120.85,25.59-149.29,106.64c-28.44,81.04-54.46,263.57-119.91,298.58
	c-81.52,43.6-91-8.66-157.35,54.98c-66.35,63.64-202.84,125.12-227.49,83.41c-24.64-41.71,22.75,153.55-140.28,189.57
	c-163.03,36.02,0,20.85,26.54-53.08s60.66-197.16,81.52-197.16c20.85,0,164.93,19.77,238.86-77.72
	c73.93-97.5,142.18,1.9,194.52-94.31c34.06-62.6,63.77-195.74,36.76-222.75c-27.01-27.01-14.22-51.18-49.76-15.64
	c-35.55,35.54-73.93,183.41-173.46,207.58c-99.53,24.17-119.3,81.23-153.78-6.09c-69.12-175.04-74.06,103.68-222.18,98.75
	c-102.31-3.41-212.3,390.05-340.67,414.73c-53.72,10.33-94.67,30.07-125.39,51.79c-88.09,62.29-193.78,94.84-301.67,94.84H69.5"/>
</svg>
