<svg width="953" height="246" viewBox="0 0 953 246" fill="none" xmlns="http://www.w3.org/2000/svg">
<g clip-path="url(#clip0)">
<path d="M766.832 107.618C766.475 107.618 766.188 107.33 766.188 106.974C766.188 106.617 766.475 106.329 766.832 106.329C785.574 106.329 800.826 91.0634 800.826 72.2944V28.9014C800.826 20.1316 807.954 12.9955 816.714 12.9955H847.552C847.908 12.9955 848.196 13.2835 848.196 13.6403C848.196 13.9971 847.908 14.2851 847.552 14.2851H816.714C808.663 14.2851 802.114 20.841 802.114 28.9014V72.2987C802.114 91.7727 786.287 107.618 766.832 107.618Z" fill="#6A2EA0"/>
<path d="M761.079 88.5014C753.749 88.5014 747.785 82.5302 747.785 75.192C747.785 67.8538 753.749 61.8826 761.079 61.8826C768.409 61.8826 774.373 67.8538 774.373 75.192C774.377 82.5302 768.413 88.5014 761.079 88.5014ZM761.079 63.1723C754.458 63.1723 749.073 68.5631 749.073 75.192C749.073 81.8209 754.458 87.2117 761.079 87.2117C767.7 87.2117 773.085 81.8209 773.085 75.192C773.089 68.5631 767.7 63.1723 761.079 63.1723Z" fill="#6A2EA0"/>
<path d="M716.834 27.431C712.355 27.431 708.727 31.0636 708.727 35.5473C708.727 40.0311 712.355 43.6637 716.834 43.6637C721.312 43.6637 724.94 40.0311 724.94 35.5473C724.94 31.0636 721.312 27.431 716.834 27.431ZM501.624 91.8027C500.71 90.685 499.645 89.7177 498.271 89.7177C495.317 89.7177 495.78 95.2074 495.78 95.2074L487.957 102.124C487.957 102.124 493.045 104.463 497.644 104.059C500.465 103.573 501.302 102.455 501.62 101.217C502.539 97.6105 499.589 92.3142 499.589 92.3142L501.624 91.8027ZM649.703 66.2758C651.777 72.8574 651.85 75.2046 645.607 80.3289C639.256 85.5392 639.415 91.8414 642.257 97.503C644.598 102.167 643.172 108.199 636.525 112.601C625.76 119.733 624.781 131.413 631.205 143.471C639.458 158.964 663.418 160.396 663.478 160.387L663.289 45.1769C646.71 45.4176 648.754 63.2795 649.703 66.2758ZM654.8 224.342C653.885 223.224 652.82 222.257 651.446 222.257C648.492 222.257 648.956 227.747 648.956 227.747L641.132 234.664C641.132 234.664 646.221 237.002 650.819 236.598C653.641 236.112 654.478 234.995 654.796 233.757C655.714 230.15 652.765 224.853 652.765 224.853L654.8 224.342ZM573.719 141.068C572.345 140.333 570.533 139.959 568.145 140.26C565.732 140.565 564.143 141.412 563.113 142.521C559.064 142.826 554.701 142.856 550.274 142.388C550.274 142.388 548.282 131.911 537.053 133.549C530.338 134.529 527.495 139.757 529.556 149.988C531.617 160.22 538.084 192.332 538.084 192.332H556.285L551.919 156.037L560.008 155.938L561.095 203.828L578.82 203.819L580.207 156.054C580.207 156.054 585.518 152.133 585.853 147.602C586.188 143.071 584.243 138.321 584.243 138.321C584.243 138.321 580.074 139.817 573.719 141.068ZM688.816 229.789L680.821 236.504C680.821 236.504 675.466 235.227 675.024 238.15C674.818 239.508 675.617 240.708 676.583 241.778L677.386 239.844C677.386 239.844 680.967 242.745 685.325 242.582L683.496 246H685.007L687.841 242.157C692.298 240.88 695.029 237.307 695.029 237.307L689.516 236.022C689.417 232.966 688.816 229.789 688.816 229.789ZM870.533 194.748C870.533 198.273 867.677 201.132 864.156 201.132C860.635 201.132 857.78 198.273 857.78 194.748C857.78 191.223 860.635 188.364 864.156 188.364C867.677 188.364 870.533 191.223 870.533 194.748ZM737.942 216.638C737.942 208.973 744.151 202.757 751.807 202.757C752.151 202.757 752.494 202.774 752.833 202.8L795.532 190.656L811.35 191.902L819.616 199.898L807.353 156.278C804.987 147.865 797.327 142.057 788.597 142.057H786.377V157.107C786.377 161.38 782.916 164.85 778.644 164.85C774.376 164.85 770.911 161.385 770.911 157.107V142.057H769.919C761.37 142.057 753.735 147.413 750.82 155.461L732.133 207.009C729.994 212.903 733.215 219.071 738.664 221.066C738.2 219.673 737.942 218.186 737.942 216.638ZM940.111 224.424C940.111 224.424 940.111 229.9 940.111 234.483C940.111 239.066 934.318 244.53 934.318 244.53H931.755H923.974H921.411C921.411 244.53 915.618 239.061 915.618 234.483C915.618 229.9 915.618 224.424 915.618 224.424H923.18H932.554H940.111ZM809.929 114.836C802.775 113.843 793.78 102 792.681 94.756C792.831 110.292 771.701 114.836 771.701 114.836C771.701 114.836 771.679 111.771 771.718 109.97C771.726 109.639 764.921 108.706 764.135 113.314C763.572 116.62 766.295 122.591 770.923 122.398L771.267 127.006C760.124 124.453 751.811 114.475 751.811 102.55C751.811 96.8066 753.744 91.5146 756.986 87.2845C753.469 84.7009 751.331 80.3418 751.902 75.5271C752.584 69.7579 757.243 65.1323 763.014 64.4961C770.64 63.6535 777.094 69.6075 777.094 77.0747C777.094 77.1993 777.089 77.324 777.085 77.4487C804.931 76.7007 813.63 103.195 809.929 114.836ZM862.16 27.3751C855.431 37.6667 857.11 51.6037 866.612 59.9479C876.068 68.2447 889.988 68.133 899.302 60.2316L862.16 27.3751ZM541.304 57.8715H551.219C551.597 55.3266 553.778 53.4436 556.346 53.4436H564.938C567.712 53.4436 569.996 55.6318 570.116 58.4046L570.142 59.0322C569.206 59.1698 568.48 59.9737 568.48 60.9495V65.4848H548.904C544.709 65.4891 541.304 62.0801 541.304 57.8715ZM550.059 118.77H561.198V105.344C561.18 105.344 561.159 105.349 561.142 105.349C557.986 105.349 555.422 102.812 555.367 99.6697H548.174V107.739H558.836C558.836 107.739 558.261 110.133 557.191 110.563C557.191 110.563 557.969 114.239 554.443 114.892C554.443 114.905 554.448 114.918 554.452 114.931C554.478 116.629 552.576 118.77 550.059 118.77ZM780.297 221.728H764.702C763.774 221.728 745.332 221.062 745.332 221.062C745.332 221.062 763.658 217.404 765.668 216.638C777.042 214.502 796.24 200.088 796.24 200.088C808.86 206.132 816.503 201.227 816.503 201.227C818.221 202.843 819.646 203.656 820.775 204.038L823.923 215.241H786.776C783.2 215.241 780.297 218.143 780.297 221.728Z" fill="url(#paint0_linear)"/>
<path d="M755.286 36.9189H696.747C696.567 36.9189 696.399 36.8459 696.275 36.7169C696.155 36.5879 696.09 36.4117 696.103 36.2354C696.558 29.34 700.38 23.674 706.593 20.6906C715.288 16.5121 726.843 18.4337 737.539 25.8278C752.331 22.9776 755.87 35.9861 755.904 36.1193C755.956 36.3128 755.913 36.5191 755.788 36.6739C755.672 36.8244 755.483 36.9189 755.286 36.9189ZM697.451 35.6293H754.401C753.414 32.9425 749.382 24.723 737.526 27.139C737.354 27.1733 737.174 27.139 737.028 27.0358C726.654 19.7835 715.486 17.8447 707.151 21.847C701.582 24.5252 698.074 29.5248 697.451 35.6293Z" fill="#6A2EA0"/>
<path d="M619.59 205.165H593.062C592.706 205.165 592.418 204.877 592.418 204.52C592.418 204.163 592.706 203.875 593.062 203.875H619.59C624.236 203.875 628.018 200.088 628.018 195.436C628.018 190.071 632.377 185.708 637.736 185.708H698.721C716.661 185.57 731.265 170.842 731.265 152.873V122.2C731.265 113.452 738.375 106.333 747.113 106.333C747.47 106.333 747.758 106.621 747.758 106.978C747.758 107.335 747.47 107.623 747.113 107.623C739.084 107.623 732.553 114.161 732.553 122.2V152.873C732.553 171.547 717.378 186.856 698.726 186.998H637.736C633.09 186.998 629.307 190.785 629.307 195.436C629.307 200.801 624.948 205.165 619.59 205.165Z" fill="#6A2EA0"/>
<path d="M663.431 26.0942C664.683 26.0942 665.698 25.078 665.698 23.8244C665.698 22.5708 664.683 21.5546 663.431 21.5546C662.179 21.5546 661.164 22.5708 661.164 23.8244C661.164 25.078 662.179 26.0942 663.431 26.0942Z" fill="#0061FF"/>
<path d="M542.326 221.247H479.3C478.944 221.247 478.656 220.959 478.656 220.602C478.656 220.245 478.944 219.957 479.3 219.957H542.326C542.682 219.957 542.97 220.245 542.97 220.602C542.97 220.959 542.682 221.247 542.326 221.247Z" fill="#6A2EA0"/>
<path d="M632.363 221.247H588.355C587.999 221.247 587.711 220.959 587.711 220.602C587.711 220.245 587.999 219.957 588.355 219.957H632.363C632.719 219.957 633.007 220.245 633.007 220.602C633.007 220.959 632.719 221.247 632.363 221.247Z" fill="#6A2EA0"/>
<path d="M616.744 96.94C596.554 96.94 583.574 92.5293 574.986 89.6104C571.615 88.4626 568.949 87.5598 566.767 87.2202C566.415 87.1643 566.175 86.8376 566.231 86.4851C566.287 86.1326 566.617 85.8918 566.965 85.9477C569.258 86.3045 571.967 87.2288 575.398 88.3938C583.904 91.287 596.764 95.6546 616.74 95.6546C617.096 95.6546 617.384 95.9427 617.384 96.2995C617.384 96.6563 617.096 96.94 616.744 96.94Z" fill="#6A2EA0"/>
<path d="M559.953 86.5239C554.895 86.5239 550.777 82.4013 550.777 77.3372V65.7172C550.777 65.3604 551.065 65.0724 551.421 65.0724C551.778 65.0724 552.066 65.3604 552.066 65.7172V77.3372C552.066 81.6919 555.604 85.2342 559.953 85.2342C564.303 85.2342 567.841 81.6919 567.841 77.3372V65.7172C567.841 65.3604 568.129 65.0724 568.485 65.0724C568.842 65.0724 569.129 65.3604 569.129 65.7172V77.3372C569.129 82.4013 565.016 86.5239 559.953 86.5239Z" fill="#6A2EA0"/>
<path d="M552.429 89.8724C552.073 89.8724 551.785 89.5844 551.785 89.2276V81.5197C551.785 81.1629 552.073 80.8749 552.429 80.8749C552.786 80.8749 553.073 81.1629 553.073 81.5197V89.2276C553.073 89.5844 552.786 89.8724 552.429 89.8724Z" fill="#6A2EA0"/>
<path d="M566.781 89.8726C566.424 89.8726 566.137 89.5846 566.137 89.2278V82.5301C566.137 82.1733 566.424 81.8853 566.781 81.8853C567.137 81.8853 567.425 82.1733 567.425 82.5301V89.2278C567.425 89.5846 567.137 89.8726 566.781 89.8726Z" fill="#6A2EA0"/>
<path d="M561.199 119.414H548.188C547.832 119.414 547.544 119.126 547.544 118.77C547.544 118.413 547.832 118.125 548.188 118.125H560.555V100.31H548.819V107.734C548.819 108.091 548.532 108.379 548.175 108.379C547.819 108.379 547.531 108.091 547.531 107.734V99.6654C547.531 99.3086 547.819 99.0205 548.175 99.0205H561.199C561.555 99.0205 561.843 99.3086 561.843 99.6654V118.77C561.843 119.126 561.551 119.414 561.199 119.414Z" fill="#6A2EA0"/>
<path d="M529.002 141.494H475.015C474.659 141.494 474.371 141.206 474.371 140.849V127.2C474.371 114.26 484.887 103.737 497.807 103.737H527.929C528.285 103.737 528.573 104.025 528.573 104.381C528.573 104.738 528.285 105.026 527.929 105.026H497.807C485.595 105.026 475.659 114.974 475.659 127.2V140.204H529.002C529.358 140.204 529.646 140.492 529.646 140.849C529.646 141.206 529.358 141.494 529.002 141.494Z" fill="#6A2EA0"/>
<path d="M621.641 141.494H585.07C584.713 141.494 584.426 141.206 584.426 140.849C584.426 140.492 584.713 140.204 585.07 140.204H621.641C632.964 140.204 642.178 130.979 642.178 119.642V105.022H626.961C626.605 105.022 626.317 104.734 626.317 104.377C626.317 104.02 626.605 103.732 626.961 103.732H642.823C643.179 103.732 643.467 104.02 643.467 104.377V119.642C643.467 131.692 633.677 141.494 621.641 141.494Z" fill="#6A2EA0"/>
<path d="M560.897 82.1432C560.295 82.1432 559.759 82.0142 559.394 81.8595C559.067 81.7219 558.913 81.3436 559.05 81.0169C559.188 80.6902 559.565 80.5354 559.892 80.673C559.982 80.7074 561.931 81.4726 563.237 79.5424C563.434 79.2458 563.838 79.1684 564.13 79.3704C564.426 79.5725 564.499 79.9723 564.302 80.2646C563.323 81.7176 561.991 82.1432 560.897 82.1432Z" fill="#6A2EA0"/>
<path d="M541.327 113.357C541.156 113.357 540.988 113.289 540.859 113.155C540.615 112.897 540.628 112.489 540.885 112.244L546.137 107.262C546.257 107.15 546.416 107.085 546.579 107.085H558.838C559.194 107.085 559.482 107.373 559.482 107.73C559.482 107.769 559.426 111.78 554.75 111.78H548.168C547.811 111.78 547.523 111.492 547.523 111.135C547.523 110.778 547.811 110.49 548.168 110.49H554.75C557.137 110.49 557.872 109.192 558.095 108.375H546.836L541.77 113.181C541.645 113.297 541.486 113.357 541.327 113.357Z" fill="#6A2EA0"/>
<path d="M594.336 109.459C585.641 109.459 581.72 108.852 581.459 108.814C581.106 108.758 580.87 108.427 580.926 108.074C580.982 107.722 581.313 107.481 581.665 107.541C581.768 107.558 591.979 109.123 616.097 107.206V96.2954C616.097 95.9386 616.385 95.6505 616.741 95.6505C617.098 95.6505 617.385 95.9386 617.385 96.2954V107.804C617.385 108.139 617.128 108.418 616.793 108.448C607.218 109.218 599.823 109.459 594.336 109.459Z" fill="#6A2EA0"/>
<path d="M534.047 135.243C533.875 135.243 533.708 135.174 533.579 135.041C527.619 128.773 523.454 116.569 527.581 103.427C529.835 96.2522 534.481 91.9705 537.98 89.6448C542.193 86.842 547.182 85.2385 551.661 85.2385C552.017 85.2385 552.305 85.5265 552.305 85.8833C552.305 86.2401 552.017 86.5281 551.661 86.5281C543.215 86.5281 532.334 92.5853 528.809 103.818C524.841 116.461 528.813 128.163 534.511 134.156C534.756 134.414 534.747 134.822 534.489 135.067C534.365 135.183 534.206 135.243 534.047 135.243Z" fill="#6A2EA0"/>
<path d="M542.873 123.262C542.753 123.262 542.632 123.228 542.525 123.159C536.99 119.621 536.926 115.111 536.926 114.922C536.926 114.566 537.213 114.277 537.57 114.277C537.926 114.277 538.214 114.566 538.214 114.918C538.214 115.081 538.313 118.933 543.221 122.071C543.521 122.265 543.607 122.66 543.418 122.961C543.294 123.155 543.083 123.262 542.873 123.262Z" fill="#6A2EA0"/>
<path d="M559.498 76.8514C559.37 76.8514 559.245 76.8385 559.125 76.817C558.283 76.6537 557.742 75.9658 557.742 75.0631V68.7437C557.742 68.3869 558.03 68.0988 558.386 68.0988C558.743 68.0988 559.03 68.3869 559.03 68.7437V75.0631C559.03 75.3425 559.146 75.5058 559.374 75.5488C559.79 75.6305 560.593 75.2823 561.113 74.0012C561.246 73.6702 561.624 73.5112 561.954 73.6487C562.285 73.782 562.444 74.1603 562.307 74.4913C561.628 76.155 560.469 76.8514 559.498 76.8514Z" fill="#6A2EA0"/>
<path d="M568.789 75.0115C568.432 75.0115 568.145 74.7234 568.145 74.3666C568.145 74.0098 568.432 73.7218 568.789 73.7218C569.982 73.7218 570.953 72.7503 570.953 71.5552C570.953 70.3601 569.982 69.3885 568.789 69.3885C568.432 69.3885 568.145 69.1005 568.145 68.7437C568.145 68.3869 568.432 68.0988 568.789 68.0988C570.691 68.0988 572.241 69.6507 572.241 71.5552C572.241 73.4596 570.691 75.0115 568.789 75.0115Z" fill="#6A2EA0"/>
<path d="M551.378 75.0115C549.476 75.0115 547.926 73.4596 547.926 71.5552C547.926 69.6507 549.476 68.0988 551.378 68.0988C551.734 68.0988 552.022 68.3869 552.022 68.7437C552.022 69.1005 551.734 69.3885 551.378 69.3885C550.184 69.3885 549.214 70.3601 549.214 71.5552C549.214 72.7503 550.184 73.7218 551.378 73.7218C551.734 73.7218 552.022 74.0098 552.022 74.3666C552.022 74.7234 551.73 75.0115 551.378 75.0115Z" fill="#6A2EA0"/>
<path d="M624.713 108.139C620.436 108.139 616.692 106.565 616.486 106.479C616.159 106.337 616.005 105.959 616.146 105.632C616.288 105.306 616.666 105.151 616.992 105.293C617.052 105.319 622.69 107.679 627.74 106.527C627.074 105.667 625.675 104.248 623.455 103.84C623.107 103.775 622.875 103.44 622.939 103.087C623.004 102.739 623.343 102.507 623.691 102.572C627.564 103.29 629.277 106.479 629.346 106.617C629.436 106.785 629.445 106.987 629.372 107.163C629.299 107.339 629.153 107.477 628.968 107.533C627.568 107.967 626.113 108.139 624.713 108.139Z" fill="#6A2EA0"/>
<path d="M636.111 105.026C635.982 105.026 635.853 104.988 635.738 104.906L627.523 99.0811L617.321 98.217C616.965 98.1869 616.703 97.8731 616.733 97.5206C616.763 97.1681 617.072 96.9015 617.428 96.9316L627.807 97.8129C627.923 97.8215 628.03 97.8645 628.124 97.929L636.48 103.857C636.772 104.063 636.841 104.468 636.635 104.756C636.51 104.932 636.313 105.026 636.111 105.026Z" fill="#6A2EA0"/>
<path d="M560.003 156.583H552.171C551.815 156.583 551.527 156.295 551.527 155.938C551.527 155.581 551.815 155.293 552.171 155.293H560.003C560.36 155.293 560.648 155.581 560.648 155.938C560.648 156.295 560.36 156.583 560.003 156.583Z" fill="#6A2EA0"/>
<path d="M632.792 156.583H580.269C579.913 156.583 579.625 156.295 579.625 155.938C579.625 155.581 579.913 155.293 580.269 155.293H632.792C633.148 155.293 633.436 155.581 633.436 155.938C633.436 156.295 633.148 156.583 632.792 156.583Z" fill="#6A2EA0"/>
<path d="M533 168.714H481.074C477.377 168.714 474.371 165.705 474.371 162.004C474.371 158.303 477.377 155.293 481.074 155.293H530.587C530.943 155.293 531.231 155.581 531.231 155.938C531.231 156.295 530.943 156.583 530.587 156.583H481.074C478.09 156.583 475.659 159.016 475.659 162.004C475.659 164.992 478.09 167.425 481.074 167.425H533C533.356 167.425 533.644 167.713 533.644 168.07C533.644 168.426 533.356 168.714 533 168.714Z" fill="#6A2EA0"/>
<path d="M556.066 221.247H526.039C525.682 221.247 525.395 220.959 525.395 220.602C525.395 220.245 525.682 219.957 526.039 219.957H555.422L555.443 200.419C555.443 200.062 555.731 199.774 556.087 199.774C556.431 199.774 556.731 200.062 556.731 200.419L556.71 220.602C556.71 220.959 556.422 221.247 556.066 221.247Z" fill="#6A2EA0"/>
<path d="M557.191 200.535L539.595 200.505C539.239 200.505 538.951 200.217 538.951 199.86C538.951 199.503 539.239 199.215 539.595 199.215L556.461 199.245L549.63 142.465C549.132 139.654 547.599 137.229 545.323 135.677C543.026 134.113 540.132 133.58 537.178 134.181C536.156 134.388 535.203 134.723 534.344 135.17C529.578 137.659 528.397 143.239 529.698 147.461C529.702 147.482 529.711 147.504 529.715 147.525L538.711 192.204C538.779 192.552 538.556 192.891 538.208 192.965C537.86 193.033 537.521 192.81 537.448 192.462L528.457 147.813C527.014 143.08 528.367 136.838 533.747 134.031C534.713 133.528 535.782 133.154 536.92 132.922C540.218 132.251 543.46 132.853 546.049 134.616C548.617 136.365 550.343 139.086 550.905 142.281L557.827 199.817C557.848 200.002 557.793 200.182 557.668 200.324C557.552 200.453 557.376 200.535 557.191 200.535Z" fill="#6A2EA0"/>
<path d="M569.799 231.629C566.518 231.629 563.852 228.959 563.852 225.675V208.823C563.852 208.466 564.139 208.178 564.496 208.178C564.852 208.178 565.14 208.466 565.14 208.823V225.675C565.14 228.245 567.231 230.339 569.799 230.339C572.366 230.339 574.457 228.245 574.457 225.675V208.823C574.457 208.466 574.745 208.178 575.101 208.178C575.458 208.178 575.746 208.466 575.746 208.823V225.675C575.746 228.955 573.079 231.629 569.799 231.629Z" fill="#6A2EA0"/>
<path d="M535.881 214.807C535.644 214.807 535.421 214.678 535.305 214.455C535.142 214.137 535.271 213.75 535.589 213.586L544.614 208.986L542.308 200.028C542.218 199.684 542.429 199.331 542.772 199.241C543.116 199.151 543.468 199.361 543.558 199.705L545.993 209.167C546.07 209.459 545.928 209.765 545.662 209.902L536.177 214.734C536.078 214.781 535.975 214.807 535.881 214.807Z" fill="#6A2EA0"/>
<path d="M578.67 209.464H572.843C572.487 209.464 572.199 209.176 572.199 208.819C572.199 208.462 572.487 208.174 572.843 208.174H578.038L579.189 150.676C579.189 144.559 576.003 140.836 570.67 140.729C568.893 140.694 565.556 140.978 563.207 143.282C561.533 144.924 560.683 147.293 560.683 150.315L561.833 208.174H566.806C567.162 208.174 567.45 208.462 567.45 208.819C567.45 209.176 567.162 209.464 566.806 209.464H561.202C560.85 209.464 560.567 209.184 560.558 208.832L559.395 150.328C559.395 146.932 560.374 144.258 562.306 142.362C564.294 140.41 567.278 139.374 570.696 139.443C577.91 139.589 580.477 145.35 580.477 150.693L579.314 208.836C579.31 209.184 579.022 209.464 578.67 209.464Z" fill="#6A2EA0"/>
<path d="M526.039 221.247C525.682 221.247 525.395 220.959 525.395 220.602C525.395 216.402 528.808 212.984 533.003 212.984C535.537 212.984 537.894 214.24 539.311 216.342C539.509 216.639 539.431 217.038 539.139 217.236C538.847 217.434 538.444 217.356 538.246 217.064C537.065 215.319 535.107 214.274 533.003 214.274C529.517 214.274 526.683 217.111 526.683 220.602C526.683 220.959 526.395 221.247 526.039 221.247Z" fill="#6A2EA0"/>
<path d="M539.594 200.505C536.833 200.505 534.746 199.705 533.385 198.136C531.294 195.716 531.745 192.384 531.766 192.242C531.813 191.924 532.084 191.688 532.402 191.688H544.738C545.094 191.688 545.382 191.976 545.382 192.332C545.382 192.689 545.094 192.977 544.738 192.977H533.003C532.981 193.914 533.106 195.849 534.364 197.298C535.467 198.57 537.228 199.215 539.59 199.215C539.946 199.215 540.234 199.503 540.234 199.86C540.234 200.217 539.95 200.505 539.594 200.505Z" fill="#6A2EA0"/>
<path d="M580.269 156.583C580.028 156.583 579.796 156.445 579.685 156.213C579.53 155.891 579.667 155.508 579.989 155.353C583.674 153.604 585.417 150.285 585.181 145.496C584.996 141.812 583.657 138.605 583.644 138.575C577.688 122.269 581.548 104.171 581.587 103.986C581.664 103.638 582.008 103.418 582.355 103.496C582.703 103.573 582.922 103.917 582.845 104.265C582.806 104.442 579.028 122.187 584.842 138.102C584.889 138.209 590.51 151.781 580.543 156.523C580.453 156.561 580.363 156.583 580.269 156.583Z" fill="#6A2EA0"/>
<path d="M574.333 141.455C574.032 141.455 573.766 141.244 573.701 140.939C573.628 140.591 573.852 140.251 574.199 140.178C577.398 139.516 580.713 138.682 584.058 137.702C584.402 137.603 584.758 137.797 584.857 138.14C584.956 138.48 584.762 138.841 584.419 138.94C581.044 139.929 577.69 140.771 574.461 141.438C574.418 141.451 574.376 141.455 574.333 141.455Z" fill="#6A2EA0"/>
<path d="M556.576 143.463C552.449 143.463 550.277 143.046 550.148 143.02C549.8 142.951 549.572 142.611 549.641 142.263C549.71 141.915 550.049 141.687 550.397 141.756C550.44 141.765 554.85 142.603 563.038 141.868C563.39 141.833 563.704 142.096 563.738 142.452C563.768 142.809 563.51 143.119 563.154 143.153C560.586 143.381 558.392 143.463 556.576 143.463Z" fill="#6A2EA0"/>
<path d="M572.53 213.247C572.174 213.247 571.886 212.959 571.886 212.602V206.454C571.886 205.32 570.963 204.391 569.825 204.391C568.688 204.391 567.769 205.315 567.769 206.454V212.602C567.769 212.959 567.481 213.247 567.125 213.247C566.768 213.247 566.48 212.959 566.48 212.602V206.454C566.48 204.606 567.983 203.101 569.825 203.101C571.667 203.101 573.175 204.606 573.175 206.454V212.602C573.175 212.959 572.887 213.247 572.53 213.247Z" fill="#6A2EA0"/>
<path d="M572.53 219.876H567.125C566.768 219.876 566.48 219.587 566.48 219.231C566.48 218.874 566.768 218.586 567.125 218.586H572.53C572.887 218.586 573.175 218.874 573.175 219.231C573.175 219.587 572.887 219.876 572.53 219.876Z" fill="#6A2EA0"/>
<path d="M572.101 224.17H566.695C566.338 224.17 566.051 223.882 566.051 223.525C566.051 223.168 566.338 222.88 566.695 222.88H572.101C572.457 222.88 572.745 223.168 572.745 223.525C572.745 223.882 572.457 224.17 572.101 224.17Z" fill="#6A2EA0"/>
<path d="M488.164 220.546C487.807 220.546 487.52 220.258 487.52 219.901V168.925C487.52 168.568 487.807 168.28 488.164 168.28C488.52 168.28 488.808 168.568 488.808 168.925V219.901C488.808 220.258 488.52 220.546 488.164 220.546Z" fill="#6A2EA0"/>
<path d="M622.617 220.546C622.26 220.546 621.973 220.258 621.973 219.901V168.925C621.973 168.568 622.26 168.28 622.617 168.28C622.973 168.28 623.261 168.568 623.261 168.925V219.901C623.261 220.258 622.969 220.546 622.617 220.546Z" fill="#6A2EA0"/>
<path d="M632.792 168.714H580.269C579.913 168.714 579.625 168.426 579.625 168.069C579.625 167.713 579.913 167.425 580.269 167.425H632.792C633.148 167.425 633.436 167.713 633.436 168.069C633.436 168.426 633.148 168.714 632.792 168.714Z" fill="#6A2EA0"/>
<path d="M663.347 161.024C663.339 161.024 663.334 161.024 663.33 161.024C662.978 160.968 662.737 160.641 662.793 160.289C662.84 159.97 663.111 159.747 663.42 159.743C663.948 159.713 687.187 158.088 695.135 143.17C701.803 130.656 699.94 119.707 690.029 113.143C683.67 108.93 681.334 102.679 684.078 97.2152C686.311 92.7615 687.573 86.3089 680.896 80.8321C674.335 75.4499 674.468 72.8232 676.594 66.0869C677.285 63.8944 678.084 55.8469 674.374 50.7054C672.089 47.5371 668.47 45.895 663.613 45.8262C663.257 45.8219 662.974 45.5296 662.978 45.1727C662.982 44.8159 663.278 44.5193 663.631 44.5365C668.916 44.6139 672.884 46.4323 675.417 49.9488C679.458 55.5546 678.595 64.0234 677.822 66.4738C675.885 72.6126 675.568 74.7921 681.712 79.8347C689.05 85.8532 687.676 92.9249 685.229 97.7955C682.798 102.636 684.963 108.238 690.738 112.068C701.271 119.049 703.289 130.605 696.268 143.781C687.921 159.45 664.081 161.024 663.347 161.024Z" fill="#6A2EA0"/>
<path d="M663.39 186.997C663.034 186.997 662.746 186.709 662.746 186.353V38.1267C662.746 37.7699 663.034 37.4818 663.39 37.4818C663.747 37.4818 664.034 37.7699 664.034 38.1267V186.348C664.034 186.705 663.742 186.997 663.39 186.997Z" fill="#6A2EA0"/>
<path d="M663.392 74.1256C663.233 74.1256 663.074 74.0655 662.95 73.9494L654.577 65.9921C654.319 65.7471 654.306 65.3387 654.551 65.0808C654.796 64.8228 655.203 64.8099 655.461 65.0593L663.834 73.0165C664.092 73.2616 664.105 73.67 663.86 73.9279C663.731 74.0569 663.559 74.1256 663.392 74.1256Z" fill="#6A2EA0"/>
<path d="M663.391 144.563C663.22 144.563 663.052 144.494 662.923 144.361C662.679 144.103 662.687 143.695 662.949 143.45L678.918 128.27C679.176 128.025 679.584 128.034 679.828 128.292C680.073 128.55 680.065 128.958 679.803 129.203L663.834 144.387C663.709 144.507 663.55 144.563 663.391 144.563Z" fill="#6A2EA0"/>
<path d="M663.391 108.874C663.232 108.874 663.074 108.813 662.949 108.697L634.287 81.451C634.03 81.206 634.017 80.7976 634.262 80.5396C634.506 80.2817 634.914 80.2731 635.172 80.5182L663.834 107.765C664.091 108.01 664.104 108.418 663.859 108.676C663.731 108.805 663.559 108.874 663.391 108.874Z" fill="#6A2EA0"/>
<path d="M570.43 66.1339H548.909C544.361 66.1339 540.66 62.4283 540.66 57.8757C540.66 57.5189 540.948 57.2309 541.304 57.2309H551.219C551.575 57.2309 551.863 57.5189 551.863 57.8757C551.863 58.2326 551.575 58.5206 551.219 58.5206H541.978C542.305 62.0629 545.289 64.8443 548.913 64.8443H569.79V59.2686C569.79 58.9118 570.078 58.6237 570.434 58.6237C570.79 58.6237 571.078 58.9118 571.078 59.2686V65.4891C571.074 65.8459 570.786 66.1339 570.43 66.1339Z" fill="#6A2EA0"/>
<path d="M551.218 62.6004C550.862 62.6004 550.574 62.3124 550.574 61.9556V59.2688C550.574 55.7007 553.473 52.799 557.037 52.799H564.62C568.183 52.799 571.082 55.7007 571.082 59.2688C571.082 59.6256 570.794 59.9136 570.438 59.9136C570.081 59.9136 569.794 59.6256 569.794 59.2688C569.794 56.4143 567.475 54.0886 564.62 54.0886H557.037C554.185 54.0886 551.862 56.41 551.862 59.2688V61.9556C551.862 62.3124 551.575 62.6004 551.218 62.6004Z" fill="#6A2EA0"/>
<path d="M657.663 245.562C657.307 245.562 657.019 245.273 657.019 244.917C657.019 240.712 653.601 237.29 649.402 237.29C645.202 237.29 641.784 240.712 641.784 244.917C641.784 245.273 641.497 245.562 641.14 245.562C640.784 245.562 640.496 245.273 640.496 244.917C640.496 239.999 644.494 236.001 649.402 236.001C654.309 236.001 658.307 240.003 658.307 244.917C658.307 245.273 658.015 245.562 657.663 245.562Z" fill="#6A2EA0"/>
<path d="M562.092 136.395C559.198 136.395 557.36 136.167 557.313 136.163C556.961 136.116 556.712 135.793 556.755 135.441C556.802 135.088 557.124 134.839 557.476 134.882C557.601 134.899 570.147 136.43 581.5 131.245C581.822 131.099 582.205 131.241 582.355 131.563C582.501 131.886 582.359 132.268 582.037 132.419C574.716 135.763 566.927 136.395 562.092 136.395Z" fill="#6A2EA0"/>
<path d="M560.283 168.766H553.375C553.018 168.766 552.73 168.478 552.73 168.121C552.73 167.764 553.018 167.476 553.375 167.476H560.283C560.64 167.476 560.927 167.764 560.927 168.121C560.927 168.478 560.636 168.766 560.283 168.766Z" fill="#6A2EA0"/>
<path d="M615.866 59.8449C619.421 59.8449 622.303 56.9598 622.303 53.4008C622.303 49.8419 619.421 46.9568 615.866 46.9568C612.311 46.9568 609.43 49.8419 609.43 53.4008C609.43 56.9598 612.311 59.8449 615.866 59.8449Z" fill="#FF4C84"/>
<path d="M567.936 104.829C567.786 104.829 567.635 104.777 567.515 104.67C567.245 104.437 567.219 104.029 567.451 103.758L567.502 103.702C567.73 103.431 568.138 103.397 568.408 103.625C568.679 103.853 568.713 104.261 568.485 104.532L568.425 104.605C568.297 104.751 568.116 104.829 567.936 104.829ZM569.615 102.241C569.52 102.241 569.426 102.219 569.336 102.176C569.014 102.021 568.881 101.639 569.035 101.316L569.069 101.243C569.22 100.921 569.606 100.783 569.928 100.934C570.25 101.084 570.388 101.471 570.237 101.794L570.199 101.875C570.083 102.103 569.855 102.241 569.615 102.241ZM570.632 99.3217C570.585 99.3217 570.534 99.3175 570.486 99.3046C570.139 99.2229 569.924 98.8747 570.006 98.5308L570.023 98.4534C570.1 98.1052 570.444 97.8859 570.791 97.9676C571.139 98.045 571.358 98.3889 571.276 98.7371L571.255 98.8274C571.186 99.124 570.924 99.3217 570.632 99.3217ZM571.053 96.2609C571.04 96.2609 571.027 96.2609 571.015 96.2609C570.658 96.2394 570.388 95.9342 570.409 95.5774L570.413 95.5C570.431 95.1432 570.727 94.8681 571.083 94.8853C571.44 94.9025 571.714 95.2034 571.697 95.5559L571.693 95.6505C571.676 95.9987 571.388 96.2609 571.053 96.2609ZM572.058 92.6327L570.787 92.4177L570.804 92.3317C570.869 91.9835 571.203 91.7514 571.556 91.8159C571.903 91.8804 572.135 92.2157 572.071 92.5682L572.058 92.6327ZM572.741 89.675L571.5 89.3354L571.526 89.2494C571.624 88.9055 571.981 88.7078 572.324 88.811C572.668 88.9098 572.861 89.2666 572.762 89.6105L572.741 89.675ZM573.114 87.2204C573.037 87.2204 572.955 87.2075 572.878 87.1731C572.548 87.0398 572.384 86.6658 572.517 86.3348L572.552 86.2531C572.685 85.9221 573.058 85.763 573.389 85.8963C573.72 86.0296 573.879 86.4036 573.745 86.7346L573.715 86.812C573.612 87.0656 573.368 87.2204 573.114 87.2204ZM574.415 84.4132C574.312 84.4132 574.209 84.3874 574.11 84.3358C573.797 84.1681 573.681 83.7769 573.849 83.4631L573.891 83.3857C574.059 83.0719 574.45 82.9559 574.763 83.1278C575.077 83.2955 575.193 83.6867 575.021 84.0005L574.982 84.0736C574.866 84.2885 574.647 84.4132 574.415 84.4132ZM576.051 81.7866C575.923 81.7866 575.789 81.7479 575.673 81.6662C575.386 81.4555 575.321 81.0558 575.527 80.7677L575.579 80.6989C575.789 80.4109 576.189 80.3464 576.476 80.5528C576.764 80.7634 576.828 81.1632 576.618 81.4512L576.567 81.52C576.451 81.6963 576.253 81.7866 576.051 81.7866ZM578.035 79.4136C577.872 79.4136 577.713 79.3534 577.589 79.233C577.335 78.9837 577.327 78.5753 577.576 78.3217L577.64 78.2572C577.889 78.0035 578.297 77.9992 578.55 78.2486C578.804 78.4979 578.808 78.9063 578.559 79.1599L578.503 79.2158C578.37 79.3491 578.203 79.4136 578.035 79.4136ZM580.349 77.3716C580.152 77.3716 579.963 77.2813 579.834 77.1137C579.62 76.8299 579.675 76.4258 579.963 76.2109L580.036 76.155C580.324 75.9444 580.723 76.0045 580.938 76.2883C581.148 76.5763 581.088 76.9804 580.805 77.191L580.74 77.2383C580.62 77.3286 580.483 77.3716 580.349 77.3716ZM582.956 75.7208C582.724 75.7208 582.501 75.5962 582.385 75.3769C582.217 75.0631 582.342 74.6719 582.655 74.5042L582.733 74.4612C583.05 74.2979 583.437 74.4183 583.6 74.7364C583.763 75.0502 583.643 75.4414 583.325 75.6047L583.252 75.6434C583.158 75.695 583.055 75.7208 582.956 75.7208ZM585.786 74.4956C585.519 74.4956 585.27 74.328 585.176 74.0614C585.06 73.7261 585.24 73.3564 585.575 73.2404L585.657 73.2103C585.996 73.0942 586.361 73.2748 586.473 73.6144C586.588 73.9497 586.408 74.3194 586.069 74.4312L585.992 74.4569C585.927 74.487 585.854 74.4956 585.786 74.4956ZM588.761 73.696C588.461 73.696 588.19 73.4854 588.13 73.1759C588.061 72.8277 588.289 72.4881 588.637 72.4193L588.723 72.4021C589.07 72.3333 589.41 72.5611 589.478 72.9136C589.547 73.2619 589.319 73.6015 588.967 73.6702L588.886 73.6874C588.847 73.6917 588.804 73.696 588.761 73.696ZM591.814 73.2232C591.501 73.2232 591.23 72.9953 591.179 72.6772C591.123 72.3247 591.363 71.9937 591.715 71.9421L591.797 71.9292C592.145 71.8733 592.48 72.1141 592.535 72.4666C592.591 72.8191 592.351 73.1501 591.999 73.206L591.913 73.2189C591.879 73.2232 591.848 73.2232 591.814 73.2232ZM594.846 72.6342C594.554 72.6342 594.287 72.4322 594.219 72.1355C594.137 71.7873 594.352 71.4434 594.7 71.3617L594.781 71.3402C595.129 71.2586 595.472 71.4735 595.554 71.8217C595.636 72.1699 595.421 72.5138 595.073 72.5955L594.992 72.617C594.944 72.6299 594.897 72.6342 594.846 72.6342ZM597.826 71.8131C597.555 71.8131 597.302 71.6412 597.212 71.366C597.104 71.0264 597.289 70.6653 597.628 70.5535L597.71 70.5278C598.045 70.4203 598.41 70.6051 598.521 70.9447C598.633 71.2844 598.444 71.6455 598.105 71.7572L598.023 71.783C597.959 71.8045 597.894 71.8131 597.826 71.8131ZM600.72 70.7255C600.471 70.7255 600.234 70.5793 600.127 70.3343C599.985 70.0076 600.136 69.6293 600.462 69.4874L600.539 69.453C600.866 69.3112 601.243 69.4573 601.389 69.784C601.531 70.1108 601.385 70.4891 601.059 70.6352L600.977 70.6696C600.891 70.7083 600.806 70.7255 600.72 70.7255ZM603.476 69.3327C603.253 69.3327 603.038 69.2166 602.918 69.0102C602.738 68.7007 602.845 68.3095 603.15 68.129L603.223 68.086C603.532 67.9054 603.923 68.0086 604.103 68.3181C604.284 68.6276 604.18 69.0188 603.871 69.1994L603.794 69.2424C603.7 69.3069 603.588 69.3327 603.476 69.3327ZM606.044 67.6131C605.851 67.6131 605.662 67.5271 605.533 67.3638C605.314 67.08 605.366 66.6759 605.649 66.461L605.718 66.4094C605.997 66.1902 606.405 66.2418 606.619 66.5255C606.838 66.8092 606.787 67.2133 606.503 67.4283L606.435 67.4798C606.319 67.5701 606.181 67.6131 606.044 67.6131ZM608.35 65.5539C608.187 65.5539 608.028 65.4938 607.903 65.3734C607.65 65.124 607.641 64.7156 607.89 64.462L607.946 64.4018C608.191 64.1439 608.599 64.1353 608.857 64.3803C609.114 64.6254 609.123 65.0338 608.878 65.2917L608.814 65.3562C608.685 65.4895 608.517 65.5539 608.35 65.5539ZM610.321 63.1766C610.192 63.1766 610.063 63.138 609.947 63.0563C609.655 62.8499 609.586 62.4458 609.793 62.1578L609.84 62.089C610.042 61.7967 610.445 61.7279 610.737 61.93C611.029 62.132 611.098 62.5361 610.896 62.8284L610.845 62.9015C610.72 63.0821 610.523 63.1766 610.321 63.1766Z" fill="#6A2EA0"/>
<path d="M616.536 56.4272C616.352 56.4272 616.175 56.3499 616.055 56.208L612.345 51.9994C612.109 51.7328 612.135 51.3244 612.401 51.088C612.667 50.8516 613.075 50.8774 613.311 51.1439L616.45 54.7034L621.298 46.974C621.487 46.673 621.886 46.5828 622.187 46.7719C622.488 46.9611 622.578 47.3609 622.389 47.6618L617.082 56.1177C616.974 56.2897 616.79 56.4014 616.588 56.4186C616.571 56.4272 616.553 56.4272 616.536 56.4272Z" fill="#6A2EA0"/>
<path d="M554.26 115.567H548.175C547.819 115.567 547.531 115.279 547.531 114.922C547.531 114.566 547.819 114.277 548.175 114.277H554.26C554.616 114.277 554.904 114.566 554.904 114.922C554.904 115.279 554.616 115.567 554.26 115.567Z" fill="#6A2EA0"/>
<path d="M819.169 199.619C818.885 199.619 818.628 199.43 818.55 199.146C818.465 198.837 809.976 168.164 806.012 154.597C804.419 149.141 800.667 145.483 794.853 143.733C790.456 142.409 786.471 142.728 786.432 142.732C786.085 142.762 785.767 142.5 785.737 142.143C785.707 141.79 785.969 141.477 786.325 141.446C786.492 141.434 803.144 140.161 807.253 154.231C811.217 167.807 819.71 198.488 819.796 198.798C819.89 199.142 819.688 199.494 819.349 199.593C819.285 199.615 819.225 199.619 819.169 199.619Z" fill="#6A2EA0"/>
<path d="M778.643 159.45C774.023 159.45 770.266 155.689 770.266 151.063V147.521C770.266 147.164 770.553 146.876 770.91 146.876C771.266 146.876 771.554 147.164 771.554 147.521V151.063C771.554 154.975 774.731 158.161 778.643 158.161C782.555 158.161 785.732 154.979 785.732 151.063V136.236C785.732 135.879 786.02 135.591 786.376 135.591C786.733 135.591 787.02 135.879 787.02 136.236V151.063C787.02 155.689 783.263 159.45 778.643 159.45Z" fill="#6A2EA0"/>
<path d="M745.331 205.358C745.052 205.358 744.79 205.173 744.713 204.89C744.614 204.546 744.816 204.189 745.159 204.094L795.47 189.874C795.548 189.852 795.625 189.843 795.702 189.852L811.603 191.262C811.749 191.275 811.886 191.335 811.989 191.438L822.277 201.231C822.535 201.476 822.543 201.885 822.299 202.143C822.054 202.401 821.646 202.409 821.388 202.164L811.263 192.522L795.707 191.142L745.507 205.332C745.447 205.354 745.387 205.358 745.331 205.358Z" fill="#6A2EA0"/>
<path d="M772.5 185.385C767.846 185.385 764.059 181.594 764.059 176.934C764.059 176.577 764.346 176.289 764.703 176.289C765.059 176.289 765.347 176.577 765.347 176.934C765.347 180.884 768.554 184.096 772.5 184.096C776.446 184.096 779.654 180.884 779.654 176.934C779.654 176.577 779.942 176.289 780.298 176.289C780.655 176.289 780.942 176.577 780.942 176.934C780.942 181.594 777.155 185.385 772.5 185.385Z" fill="#6A2EA0"/>
<path d="M802.368 191.541C802.059 191.541 801.784 191.318 801.733 191L800.457 183.154C800.419 182.909 800.522 182.664 800.728 182.522C802.656 181.181 803.811 178.98 803.811 176.633C803.811 176.276 804.098 175.988 804.455 175.988C804.811 175.988 805.099 176.276 805.099 176.633C805.099 179.264 803.871 181.744 801.797 183.339L803.012 190.793C803.068 191.146 802.832 191.477 802.48 191.533C802.437 191.541 802.402 191.541 802.368 191.541Z" fill="#6A2EA0"/>
<path d="M751.806 203.402C751.746 203.402 751.681 203.393 751.621 203.376C751.282 203.273 751.089 202.912 751.192 202.572L756.014 186.559C756.117 186.219 756.473 186.026 756.817 186.129C757.156 186.232 757.349 186.593 757.246 186.933L752.424 202.946C752.338 203.221 752.081 203.402 751.806 203.402Z" fill="#6A2EA0"/>
<path d="M816.222 222.373H720.289C719.932 222.373 719.645 222.085 719.645 221.728C719.645 221.371 719.932 221.083 720.289 221.083H816.222C816.579 221.083 816.866 221.371 816.866 221.728C816.866 222.085 816.579 222.373 816.222 222.373Z" fill="#6A2EA0"/>
<path d="M895.164 222.373H816.272C816.071 222.373 815.877 222.279 815.757 222.115C815.637 221.952 815.598 221.741 815.654 221.548L830.524 170.335C830.605 170.06 830.854 169.871 831.142 169.871H910.033C910.235 169.871 910.428 169.965 910.549 170.129C910.669 170.292 910.707 170.503 910.652 170.696L895.786 221.909C895.705 222.184 895.451 222.373 895.164 222.373ZM817.131 221.084H894.683L909.175 171.161H831.623L817.131 221.084Z" fill="#6A2EA0"/>
<path d="M808.146 222.373C807.837 222.373 807.562 222.15 807.511 221.832L805.75 211.011C805.695 210.659 805.931 210.328 806.283 210.272C806.635 210.216 806.966 210.452 807.021 210.805L808.782 221.625C808.838 221.978 808.601 222.309 808.249 222.365C808.215 222.369 808.181 222.373 808.146 222.373Z" fill="#6A2EA0"/>
<path d="M927.866 228.912H914.546C914.19 228.912 913.902 228.624 913.902 228.267C913.902 227.91 914.19 227.622 914.546 227.622H927.866C928.222 227.622 928.51 227.91 928.51 228.267C928.51 228.624 928.222 228.912 927.866 228.912Z" fill="#6A2EA0"/>
<path d="M951.971 245.175H898.152C897.796 245.175 897.508 244.887 897.508 244.53C897.508 244.173 897.796 243.885 898.152 243.885H951.976C952.332 243.885 952.62 244.173 952.62 244.53C952.62 244.887 952.328 245.175 951.971 245.175Z" fill="#6A2EA0"/>
<path d="M942.78 238.172C939.873 238.172 937.512 235.803 937.512 232.897C937.512 229.991 939.878 227.622 942.78 227.622C945.683 227.622 948.049 229.991 948.049 232.897C948.049 235.803 945.687 238.172 942.78 238.172ZM942.78 228.912C940.586 228.912 938.8 230.7 938.8 232.897C938.8 235.094 940.586 236.882 942.78 236.882C944.974 236.882 946.761 235.094 946.761 232.897C946.761 230.7 944.974 228.912 942.78 228.912Z" fill="#6A2EA0"/>
<path d="M926.014 117.343H899.963C899.607 117.343 899.319 117.055 899.319 116.698C899.319 116.341 899.607 116.053 899.963 116.053H926.014C931.227 116.053 935.465 111.81 935.465 106.591C935.465 101.372 931.227 97.1292 926.014 97.1292H876.493C871.28 97.1292 867.042 101.372 867.042 106.591C867.042 111.81 871.28 116.053 876.493 116.053H887.125C887.481 116.053 887.769 116.341 887.769 116.698C887.769 117.055 887.481 117.343 887.125 117.343H876.493C870.572 117.343 865.754 112.519 865.754 106.591C865.754 100.663 870.572 95.8395 876.493 95.8395H926.014C931.935 95.8395 936.753 100.663 936.753 106.591C936.753 112.519 931.935 117.343 926.014 117.343Z" fill="#6A2EA0"/>
<path d="M883.25 187.574C883.198 187.574 883.151 187.569 883.1 187.556C882.752 187.475 882.541 187.126 882.623 186.778L888.123 163.659C888.205 163.311 888.557 163.1 888.901 163.182C889.248 163.263 889.459 163.612 889.377 163.96L883.877 187.079C883.808 187.372 883.542 187.574 883.25 187.574Z" fill="#6A2EA0"/>
<path d="M894.066 142.126C894.015 142.126 893.968 142.121 893.916 142.109C893.568 142.027 893.358 141.679 893.439 141.33L899.335 116.552C899.416 116.203 899.764 115.993 900.112 116.074C900.46 116.156 900.67 116.504 900.589 116.852L894.693 141.631C894.62 141.924 894.358 142.126 894.066 142.126Z" fill="#6A2EA0"/>
<path d="M769.209 127.952C756.671 127.952 746.469 117.738 746.469 105.185C746.469 92.6325 756.671 82.4183 769.209 82.4183C769.566 82.4183 769.853 82.7063 769.853 83.0631C769.853 83.4199 769.566 83.708 769.209 83.708C757.38 83.708 747.757 93.3418 747.757 105.185C747.757 117.029 757.38 126.663 769.209 126.663C769.682 126.663 770.158 126.645 770.626 126.615C770.983 126.594 771.287 126.86 771.309 127.217C771.33 127.574 771.064 127.879 770.708 127.901C770.214 127.935 769.712 127.952 769.209 127.952Z" fill="#6A2EA0"/>
<path d="M782.252 136.602C781.522 136.602 781.084 136.559 781.063 136.554C780.711 136.516 780.457 136.193 780.496 135.841C780.535 135.488 780.857 135.23 781.209 135.273C781.767 135.338 794.949 136.658 799.183 122.411C799.758 120.472 800.196 118.465 800.48 116.44C800.531 116.087 800.858 115.842 801.205 115.89C801.558 115.941 801.802 116.264 801.755 116.616C801.463 118.701 801.012 120.773 800.415 122.772C796.632 135.501 785.859 136.602 782.252 136.602Z" fill="#6A2EA0"/>
<path d="M778.643 159.515C774.023 159.515 770.266 155.753 770.266 151.128V147.585C770.266 147.228 770.553 146.94 770.91 146.94C771.266 146.94 771.554 147.228 771.554 147.585V151.128C771.554 155.04 774.731 158.225 778.643 158.225C782.555 158.225 785.732 155.044 785.732 151.128V136.301C785.732 135.944 786.02 135.656 786.376 135.656C786.733 135.656 787.02 135.944 787.02 136.301V151.128C787.02 155.753 783.263 159.515 778.643 159.515Z" fill="#6A2EA0"/>
<path d="M791.576 121.504C791.224 121.504 790.859 121.444 790.486 121.328C789.472 121.005 788.648 119.965 788.554 119.849C788.335 119.565 788.386 119.161 788.67 118.946C788.953 118.727 789.357 118.779 789.571 119.062C789.752 119.294 790.336 119.931 790.868 120.098C791.512 120.3 792.075 120.24 792.495 119.913C792.912 119.595 793.152 119.032 793.127 118.448C793.002 115.696 792.195 110.447 792.186 110.391C792.13 110.039 792.371 109.712 792.723 109.656C793.075 109.6 793.401 109.841 793.457 110.194C793.492 110.413 794.282 115.567 794.41 118.387C794.458 119.402 794.033 120.356 793.277 120.937C792.796 121.311 792.212 121.504 791.576 121.504Z" fill="#6A2EA0"/>
<path d="M787.619 129.981C787.611 129.981 787.602 129.981 787.593 129.981C783.188 129.814 781.822 125.515 781.809 125.472C781.706 125.132 781.895 124.771 782.234 124.668C782.574 124.565 782.934 124.754 783.037 125.094C783.085 125.24 784.162 128.559 787.641 128.692C787.997 128.705 788.272 129.006 788.259 129.362C788.25 129.706 787.963 129.981 787.619 129.981Z" fill="#6A2EA0"/>
<path d="M741.632 221.389C738.334 221.389 735.217 219.841 733.229 217.197C731.129 214.403 730.558 210.899 731.657 207.581C737.548 189.835 748.055 158.93 752.216 151.355C757.395 141.928 767.52 141.438 770.268 141.489V122.596C770.268 122.239 770.555 121.951 770.912 121.951C771.268 121.951 771.556 122.239 771.556 122.596V142.16C771.556 142.341 771.478 142.513 771.345 142.637C771.212 142.758 771.032 142.818 770.852 142.801C770.731 142.788 758.932 141.803 753.345 151.97C749.232 159.459 738.755 190.278 732.877 207.98C731.91 210.891 732.413 213.964 734.255 216.415C736.106 218.874 738.927 220.211 742.01 220.086C755.364 219.54 775.545 215.521 795.842 199.477C796.035 199.322 796.301 199.297 796.52 199.404C796.641 199.464 808.796 205.272 815.336 200.754C815.628 200.552 816.032 200.625 816.234 200.917C816.435 201.21 816.362 201.614 816.07 201.816C813.039 203.909 808.719 204.326 803.227 203.058C799.951 202.302 797.28 201.167 796.327 200.737C775.863 216.789 755.535 220.826 742.061 221.376C741.919 221.384 741.773 221.389 741.632 221.389Z" fill="#6A2EA0"/>
<path d="M782.308 117.175C778.517 117.175 775.434 114.088 775.434 110.292C775.434 106.496 778.517 103.41 782.308 103.41C786.1 103.41 789.183 106.496 789.183 110.292C789.183 114.088 786.1 117.175 782.308 117.175ZM782.308 104.699C779.229 104.699 776.722 107.21 776.722 110.292C776.722 113.375 779.229 115.885 782.308 115.885C785.387 115.885 787.894 113.375 787.894 110.292C787.894 107.21 785.391 104.699 782.308 104.699Z" fill="#6A2EA0"/>
<path d="M802.128 117.175C798.337 117.175 795.254 114.088 795.254 110.292C795.254 106.496 798.337 103.41 802.128 103.41C805.92 103.41 809.003 106.496 809.003 110.292C809.003 114.088 805.92 117.175 802.128 117.175ZM802.128 104.699C799.05 104.699 796.542 107.21 796.542 110.292C796.542 113.375 799.05 115.885 802.128 115.885C805.207 115.885 807.715 113.375 807.715 110.292C807.719 107.21 805.211 104.699 802.128 104.699Z" fill="#6A2EA0"/>
<path d="M795.894 110.937H788.535C788.178 110.937 787.891 110.649 787.891 110.292C787.891 109.935 788.178 109.647 788.535 109.647H795.894C796.251 109.647 796.538 109.935 796.538 110.292C796.538 110.649 796.251 110.937 795.894 110.937Z" fill="#6A2EA0"/>
<path d="M763.746 113.822C763.389 113.822 763.102 113.534 763.102 113.177C763.102 110.817 765.017 108.9 767.374 108.9H776.078C776.434 108.9 776.722 109.188 776.722 109.544C776.722 109.901 776.434 110.189 776.078 110.189H767.374C765.729 110.189 764.39 111.531 764.39 113.177C764.39 113.534 764.102 113.822 763.746 113.822Z" fill="#6A2EA0"/>
<path d="M905.38 108.281C906.633 108.281 907.648 107.264 907.648 106.011C907.648 104.757 906.633 103.741 905.38 103.741C904.128 103.741 903.113 104.757 903.113 106.011C903.113 107.264 904.128 108.281 905.38 108.281Z" fill="#0061FF"/>
<path d="M882.291 108.281C883.543 108.281 884.558 107.264 884.558 106.011C884.558 104.757 883.543 103.741 882.291 103.741C881.038 103.741 880.023 104.757 880.023 106.011C880.023 107.264 881.038 108.281 882.291 108.281Z" fill="#0061FF"/>
<path d="M847.732 108.281C848.984 108.281 849.999 107.264 849.999 106.011C849.999 104.757 848.984 103.741 847.732 103.741C846.48 103.741 845.465 104.757 845.465 106.011C845.465 107.264 846.48 108.281 847.732 108.281Z" fill="#0061FF"/>
<path d="M883.041 63.1419C870.812 63.1419 860.867 53.1814 860.867 40.9424C860.867 28.6992 870.816 18.7429 883.041 18.7429C895.27 18.7429 905.214 28.7035 905.214 40.9424C905.214 41.2993 904.927 41.5873 904.57 41.5873C904.214 41.5873 903.926 41.2993 903.926 40.9424C903.926 29.4128 894.557 20.0326 883.041 20.0326C871.525 20.0326 862.155 29.4128 862.155 40.9424C862.155 52.4721 871.525 61.8523 883.041 61.8523C889.065 61.8523 894.797 59.2471 898.769 54.7032C899.001 54.4367 899.409 54.4066 899.679 54.643C899.946 54.8795 899.976 55.2836 899.74 55.5544C895.523 60.3735 889.434 63.1419 883.041 63.1419Z" fill="#6A2EA0"/>
<path d="M892.237 50.0862C892.087 50.0862 891.936 50.0347 891.816 49.9315L881.962 41.4283C881.82 41.3079 881.738 41.1273 881.738 40.9382V14.5C881.738 14.1432 882.026 13.8551 882.382 13.8551C882.739 13.8551 883.026 14.1432 883.026 14.5V40.6459L892.658 48.9556C892.928 49.1878 892.958 49.5962 892.726 49.867C892.598 50.0089 892.417 50.0862 892.237 50.0862Z" fill="#6A2EA0"/>
<path d="M928.223 202.543C927.866 202.543 927.579 202.254 927.579 201.898V192.062C927.579 186.701 931.937 182.338 937.291 182.338H946.343C949.301 182.338 951.71 179.926 951.71 176.964C951.71 174.002 949.301 171.59 946.343 171.59H940.215C933.719 171.59 928.433 166.299 928.433 159.794V151.601C928.433 146.029 923.907 141.498 918.342 141.498H917.054C916.698 141.498 916.41 141.21 916.41 140.853C916.41 140.497 916.698 140.209 917.054 140.209H918.342C924.616 140.209 929.721 145.32 929.721 151.601V159.794C929.721 165.589 934.427 170.301 940.215 170.301H946.343C950.014 170.301 952.998 173.289 952.998 176.964C952.998 180.64 950.014 183.627 946.343 183.627H937.291C932.645 183.627 928.867 187.41 928.867 192.062V201.898C928.867 202.254 928.579 202.543 928.223 202.543Z" fill="#6A2EA0"/>
<path d="M886.954 141.498H866.343C865.987 141.498 865.699 141.21 865.699 140.853C865.699 140.497 865.987 140.209 866.343 140.209H886.954C887.31 140.209 887.598 140.497 887.598 140.853C887.598 141.21 887.31 141.498 886.954 141.498Z" fill="#6A2EA0"/>
<path d="M440.981 130.686C430.182 130.686 419.46 129.031 419.314 129.006C418.962 128.95 418.722 128.619 418.778 128.271C418.833 127.918 419.16 127.677 419.512 127.733C419.701 127.763 438.504 130.665 451.214 128.739C455.941 121.109 457.71 105.228 457.71 96.9187C457.71 85.4019 448.594 81.275 440.067 81.2535C439.818 81.2535 439.59 81.1073 439.483 80.8795L436.06 73.4424C435.91 73.12 436.052 72.7374 436.374 72.5869C436.696 72.4365 437.078 72.5783 437.228 72.9008L440.483 79.9638C449.513 80.1186 458.998 84.6367 458.998 96.9144C458.998 105.8 457.173 121.857 452.145 129.676C452.047 129.831 451.888 129.934 451.703 129.964C448.405 130.493 444.687 130.686 440.981 130.686Z" fill="#6A2EA0"/>
<path d="M427.929 79.0694C426.4 79.0694 425.043 78.5149 424.193 77.5175C419.139 72.3545 417.838 62.179 417.782 61.7449C417.739 61.3924 417.988 61.0699 418.345 61.0269C418.692 60.984 419.019 61.2333 419.062 61.5858C419.075 61.689 420.371 71.7828 425.129 76.6276C425.142 76.6405 425.15 76.6534 425.163 76.6663C425.889 77.5304 427.194 77.9302 428.654 77.7325C430.123 77.5304 432.008 76.6233 432.901 74.6759C433.051 74.3535 433.433 74.2117 433.755 74.3578C434.077 74.504 434.219 74.8909 434.073 75.2133C433.146 77.2424 431.136 78.6997 428.83 79.0135C428.521 79.0479 428.225 79.0694 427.929 79.0694Z" fill="#6A2EA0"/>
<path d="M63.4018 199.748C63.0454 199.748 62.7577 199.46 62.7577 199.103V148.965C62.7577 145.414 59.8722 142.526 56.3254 142.526H27.7712C24.2244 142.526 21.3389 145.414 21.3389 148.965V160.839C21.3389 161.196 21.0513 161.484 20.6949 161.484C20.3385 161.484 20.0508 161.196 20.0508 160.839V148.965C20.0508 144.701 23.5159 141.236 27.7712 141.236H56.3254C60.585 141.236 64.0458 144.705 64.0458 148.965V199.108C64.0458 199.46 63.7581 199.748 63.4018 199.748Z" fill="#6A2EA0"/>
<path d="M90.5971 203.841H117.833V221.011H107.747C98.2746 221.011 90.5971 213.324 90.5971 203.841ZM159.887 140.505V173.129C159.887 173.129 205.398 166.079 205.398 139.89C205.398 139.89 205.497 124.199 205.497 120.455C203.41 128.644 195.355 129.478 191.795 129.328C191.795 132.72 186.896 136.769 182.198 136.838C177.501 136.903 175.809 134.598 167.277 131.361C156.877 127.419 152.163 136.206 152.618 140.505H159.887ZM136.743 221.011H211.946V173.422C191.735 171.264 144.666 171.715 136.743 221.011ZM116.051 144.314C106.862 144.314 99.4124 136.855 99.4124 127.656C99.4124 127.381 99.421 127.11 99.4339 126.839L88.4287 131.602L93.9463 144.464C93.9463 144.464 99.0432 146.27 99.1162 156.445C99.1162 156.445 106.519 162.644 106.523 170.529L117.833 165.632C117.833 165.632 111.77 160.525 111.221 158.685C110.671 156.845 110.306 153.647 113.166 152.49L120.628 158.281L124.557 155.599L119.534 143.94C118.413 144.185 117.249 144.314 116.051 144.314ZM328.267 43.3243C315.759 34.5803 303.732 33.755 295.497 37.7701V53.7792H347.41C347.41 53.7792 343.889 40.1388 328.267 43.3243ZM420.341 63.168C419.113 61.4398 419.809 59.4967 422.123 60.2748C423.707 60.8079 427.546 61.8439 428.01 59.1356C427.696 62.1965 430.865 61.5817 432.072 60.666C433.446 59.6257 434.859 60.8896 432.78 63.6624C431.321 65.6098 434.983 67.9011 435.494 63.5162C435.829 60.6317 439.324 62.0589 437.641 64.8919C435.958 67.7291 433.24 72.8104 437.173 75.0974C441.626 77.6897 448.444 69.9517 442.515 62.0546C441.639 60.8853 440.874 59.9223 440.26 59.0841C438.83 57.1367 439.118 54.4627 440.853 52.7819C442.867 50.8302 444 47.7565 442.351 44.9837C440.423 41.7466 432.909 39.9927 430.887 43.9648C429.886 45.9294 432.02 48.0746 430.092 49.3771C426.906 51.5352 425.189 45.5167 421.805 47.0514C419.431 48.1305 419.165 50.6324 419.834 52.5755C420.504 54.5186 419.869 57.214 416.077 56.1393C411.217 54.7637 410.796 62.6392 413.78 65.498C417.529 69.0919 422.99 66.8951 420.341 63.168ZM21.6675 51.4148C13.2816 51.4148 6.48438 58.22 6.48438 66.6157C6.48438 75.0115 13.2816 81.8166 21.6675 81.8166C30.0535 81.8166 36.8507 75.0115 36.8507 66.6157C36.8507 58.22 30.0535 51.4148 21.6675 51.4148ZM50.4021 139.577H45.4728C45.4599 139.577 45.4556 139.564 45.4599 139.555C45.8721 138.932 46.1211 138.192 46.1426 137.393C46.2027 134.994 44.1116 133.016 41.7199 133.21C39.6245 133.382 37.9757 135.14 37.9757 137.285C37.9757 138.124 38.229 138.902 38.6627 139.551C38.667 139.559 38.6627 139.572 38.6498 139.572H34.2056C32.6255 139.572 31.3459 140.853 31.3459 142.435C31.3459 144.017 32.6255 145.298 34.2056 145.298H50.4021C51.9823 145.298 53.2619 144.017 53.2619 142.435C53.2619 140.853 51.978 139.577 50.4021 139.577ZM42.1278 139.34C40.9127 139.34 39.9251 138.351 39.9251 137.135C39.9251 135.918 40.9127 134.929 42.1278 134.929C43.343 134.929 44.3306 135.918 44.3306 137.135C44.3349 138.351 43.3473 139.34 42.1278 139.34ZM415.395 126.375C413.187 125.231 410.916 124.23 408.563 123.43C403.449 121.697 394.848 119.17 390.679 120.167C384.526 121.637 349.406 160.559 349.406 160.559C349.406 160.559 363.301 172.308 374.087 177.742L381.108 165.473L388.369 199.116H414.952L400.989 160.559L433.39 160.585C433.39 160.585 448.848 156.66 451.257 137.603C451.248 137.608 436.289 137.216 415.395 126.375ZM291.868 212.138C291.868 214.674 293.921 216.729 296.454 216.729C298.988 216.729 301.04 214.674 301.04 212.138V207.147H291.873V212.138H291.868ZM59.3291 197.749C59.3291 201.562 56.2418 204.653 52.4331 204.653C48.6245 204.653 45.5372 201.562 45.5372 197.749C45.5372 193.936 48.6245 190.845 52.4331 190.845C56.2418 190.845 59.3291 193.936 59.3291 197.749ZM352.275 116.969C344.129 116.969 337.529 123.58 337.529 131.731H367.024C367.024 123.58 360.42 116.969 352.275 116.969ZM397.48 112.287C397.755 112.764 398.434 112.782 398.734 112.322L404.166 104.042C404.325 103.801 404.329 103.487 404.17 103.242L395.338 89.3354C395.059 88.8926 394.419 88.8754 394.114 89.3053L388.94 96.6177C388.772 96.8541 388.76 97.1637 388.901 97.413L397.48 112.287Z" fill="url(#paint1_linear)"/>
<path d="M159.015 133.911C158.659 133.911 158.371 133.623 158.371 133.266V115.447C158.371 102.98 168.505 92.8347 180.957 92.8347H183.55C196.003 92.8347 206.136 102.98 206.136 115.447C206.136 115.804 205.849 116.092 205.492 116.092C205.136 116.092 204.848 115.804 204.848 115.447C204.848 103.689 195.294 94.1244 183.55 94.1244H180.957C169.213 94.1244 159.659 103.689 159.659 115.447V133.266C159.659 133.623 159.372 133.911 159.015 133.911Z" fill="#6A2EA0"/>
<path d="M150.676 123.83C147.696 123.83 145.27 121.401 145.27 118.417C145.27 115.434 147.696 113.005 150.676 113.005C153.655 113.005 156.082 115.434 156.082 118.417C156.082 121.401 153.655 123.83 150.676 123.83ZM150.676 114.291C148.404 114.291 146.558 116.139 146.558 118.413C146.558 120.687 148.404 122.536 150.676 122.536C152.947 122.536 154.793 120.687 154.793 118.413C154.793 116.139 152.947 114.291 150.676 114.291Z" fill="#6A2EA0"/>
<path d="M191.79 125.94C191.433 125.94 191.145 125.652 191.145 125.296C191.145 121.856 188.35 119.058 184.915 119.058H150.671C150.315 119.058 150.027 118.77 150.027 118.413C150.027 118.056 150.315 117.768 150.671 117.768H184.915C189.059 117.768 192.434 121.143 192.434 125.296C192.434 125.652 192.146 125.94 191.79 125.94Z" fill="#6A2EA0"/>
<path d="M155.986 131.873C155.441 131.873 154.912 131.774 154.479 131.589C153.483 131.159 152.997 130.3 153.178 129.289C153.581 127.05 157.965 119.557 158.463 118.71C158.644 118.405 159.039 118.301 159.344 118.482C159.649 118.662 159.752 119.058 159.571 119.363C158.249 121.612 154.749 127.811 154.444 129.517C154.414 129.681 154.337 130.123 154.99 130.403C155.9 130.798 157.536 130.545 158.201 129.646C158.412 129.358 158.816 129.298 159.103 129.509C159.391 129.719 159.451 130.123 159.241 130.411C158.502 131.404 157.188 131.873 155.986 131.873Z" fill="#6A2EA0"/>
<path d="M135.369 212.293C135.33 212.293 135.292 212.288 135.253 212.284C134.901 212.219 134.669 211.888 134.733 211.536C134.794 211.209 136.241 203.377 142.488 194.375C148.246 186.078 159.342 175.24 179.493 170.744C179.841 170.666 180.184 170.886 180.261 171.234C180.339 171.582 180.12 171.926 179.772 172.003C160.054 176.401 149.208 186.968 143.579 195.058C137.473 203.837 136.013 211.686 135.996 211.764C135.949 212.073 135.674 212.293 135.369 212.293Z" fill="#6A2EA0"/>
<path d="M159.93 144.907C159.11 144.907 158.552 144.8 158.488 144.787C158.14 144.718 157.912 144.379 157.981 144.026C158.05 143.678 158.389 143.45 158.737 143.519C158.926 143.558 163.039 144.31 165.469 140.931C165.676 140.643 166.079 140.578 166.367 140.785C166.655 140.991 166.719 141.395 166.513 141.683C164.533 144.443 161.648 144.907 159.93 144.907Z" fill="#6A2EA0"/>
<path d="M205.496 179.69C205.139 179.69 204.852 179.402 204.852 179.045V115.447C204.852 115.09 205.139 114.802 205.496 114.802C205.852 114.802 206.14 115.09 206.14 115.447V179.045C206.14 179.397 205.852 179.69 205.496 179.69Z" fill="#6A2EA0"/>
<path d="M106.521 171.182C106.272 171.182 106.036 171.036 105.928 170.791C105.787 170.464 105.937 170.086 106.263 169.944L117.573 165.047C117.9 164.906 118.278 165.056 118.419 165.383C118.561 165.71 118.411 166.088 118.084 166.23L106.774 171.126C106.693 171.165 106.607 171.182 106.521 171.182Z" fill="#6A2EA0"/>
<path d="M124.556 156.252C124.307 156.252 124.071 156.106 123.964 155.861L109.828 123.043L89.2692 131.942L94.5334 144.215C94.6751 144.542 94.5206 144.92 94.1942 145.062C93.8679 145.204 93.49 145.053 93.3483 144.722L87.8307 131.86C87.689 131.533 87.8393 131.155 88.1656 131.013L109.906 121.603C110.064 121.534 110.24 121.534 110.399 121.594C110.558 121.659 110.687 121.779 110.751 121.938L125.14 155.345C125.282 155.672 125.132 156.05 124.805 156.192C124.728 156.235 124.642 156.252 124.556 156.252Z" fill="#6A2EA0"/>
<path d="M98.3669 211.523C98.0491 211.523 97.7743 211.286 97.7314 210.964C95.7304 195.944 97.126 181.358 97.2848 179.814L91.2562 159.936C91.2391 159.876 91.2305 159.811 91.2305 159.747V144.314C91.2305 144.009 91.4452 143.747 91.7414 143.682C91.8359 143.661 94.0472 143.218 96.1512 144.933C98.53 146.872 99.7452 150.668 99.7624 156.218C107.053 164.876 107.517 167.068 106.869 175.232C106.839 175.588 106.53 175.851 106.177 175.825C105.821 175.795 105.559 175.485 105.585 175.133C106.212 167.244 105.791 165.361 98.6245 156.875C98.5258 156.759 98.4699 156.609 98.4742 156.458C98.4871 151.282 97.4136 147.65 95.3612 145.96C94.2662 145.058 93.1498 144.916 92.5186 144.912V159.661L98.5558 179.574C98.5816 179.655 98.5902 179.745 98.5816 179.831C98.5644 179.982 96.9284 195.157 99.011 210.805C99.0582 211.157 98.8092 211.484 98.4571 211.531C98.4227 211.519 98.3969 211.523 98.3669 211.523Z" fill="#6A2EA0"/>
<path d="M126.132 202.276C125.965 202.276 125.797 202.212 125.673 202.083C119.357 195.596 116.231 183.64 115.423 180.128C115.342 179.78 115.561 179.436 115.904 179.354C116.252 179.273 116.596 179.492 116.677 179.84C117.467 183.266 120.512 194.938 126.592 201.184C126.841 201.438 126.836 201.846 126.579 202.095C126.459 202.216 126.295 202.276 126.132 202.276Z" fill="#6A2EA0"/>
<path d="M138.156 186.327C131.367 186.327 124.356 184.719 124.003 184.638C123.969 184.629 123.935 184.62 123.905 184.603C123.827 184.573 116.159 181.362 107.914 175.735C107.704 175.593 107.597 175.335 107.644 175.086C107.914 173.598 108.846 172.373 110.263 171.633C112.268 170.585 114.922 170.671 117.55 171.87C120.349 173.147 123.48 173.654 125.369 173.856C121.977 170.572 113.015 161.884 111.62 160.418C110.529 159.27 109.662 157.06 110.113 155.053C110.349 154.017 111.027 152.628 112.942 151.897C113.153 151.816 113.389 151.854 113.565 151.992L131.037 165.546C131.316 165.765 131.367 166.17 131.153 166.449C130.934 166.733 130.53 166.78 130.251 166.565L113.076 153.243C112.157 153.681 111.586 154.386 111.371 155.336C111.023 156.88 111.719 158.647 112.556 159.523C114.226 161.282 127.413 174.032 127.546 174.161C127.735 174.346 127.795 174.626 127.692 174.871C127.589 175.116 127.348 175.275 127.086 175.266C126.868 175.262 121.625 175.137 117.022 173.035C114.759 172.003 112.517 171.909 110.864 172.768C109.941 173.25 109.293 174.002 109.014 174.914C116.661 180.081 123.703 183.112 124.356 183.387C125.15 183.567 134.798 185.687 142.003 184.823C142.356 184.78 142.678 185.033 142.72 185.386C142.763 185.738 142.51 186.061 142.158 186.104C140.861 186.263 139.513 186.327 138.156 186.327Z" fill="#6A2EA0"/>
<path d="M152.614 163.771C152.446 163.771 152.275 163.706 152.15 163.573C146.048 157.193 136.718 150.728 134.781 149.408L120.998 158.823C120.706 159.025 120.302 158.947 120.105 158.655C119.903 158.363 119.98 157.959 120.272 157.761L134.416 148.101C134.631 147.955 134.919 147.951 135.133 148.097C135.245 148.17 146.177 155.47 153.082 162.683C153.327 162.941 153.318 163.349 153.06 163.594C152.936 163.711 152.777 163.771 152.614 163.771Z" fill="#6A2EA0"/>
<path d="M135.745 162.292C135.608 162.292 135.466 162.249 135.346 162.154L126.05 154.82C125.771 154.601 125.723 154.193 125.942 153.913C126.161 153.634 126.569 153.586 126.848 153.806L136.145 161.14C136.424 161.359 136.471 161.767 136.252 162.047C136.127 162.206 135.938 162.292 135.745 162.292Z" fill="#6A2EA0"/>
<path d="M139.844 159.098C139.698 159.098 139.548 159.046 139.428 158.943L130.758 151.575C130.488 151.343 130.453 150.939 130.685 150.668C130.917 150.397 131.321 150.363 131.591 150.595L140.261 157.963C140.531 158.195 140.566 158.599 140.334 158.87C140.205 159.021 140.024 159.098 139.844 159.098Z" fill="#6A2EA0"/>
<path d="M122.257 197.607H106.515C106.159 197.607 105.871 197.319 105.871 196.963C105.871 196.606 106.159 196.318 106.515 196.318H122.257C122.613 196.318 122.901 196.606 122.901 196.963C122.901 197.319 122.613 197.607 122.257 197.607Z" fill="#6A2EA0"/>
<path d="M101.22 131.508C100.971 131.508 100.735 131.361 100.628 131.121C100.486 130.794 100.636 130.416 100.963 130.274L107.129 127.604C107.455 127.462 107.833 127.613 107.974 127.939C108.116 128.266 107.966 128.644 107.639 128.786L101.473 131.456C101.392 131.49 101.306 131.508 101.22 131.508Z" fill="#6A2EA0"/>
<path d="M97.5962 133.236C98.1606 133.236 98.6181 132.778 98.6181 132.213C98.6181 131.648 98.1606 131.189 97.5962 131.189C97.0318 131.189 96.5742 131.648 96.5742 132.213C96.5742 132.778 97.0318 133.236 97.5962 133.236Z" fill="#6A2EA0"/>
<path d="M420.427 76.2624C420.22 76.2624 420.023 76.228 419.843 76.1635C419.512 76.0432 418.937 75.695 418.829 74.7277C418.67 73.2833 419.147 68.0644 419.168 67.8452C419.203 67.4884 419.512 67.2304 419.868 67.2605C420.22 67.2949 420.482 67.6087 420.452 67.9612C420.315 69.4358 419.989 73.4939 420.113 74.5815C420.135 74.7922 420.195 74.9169 420.289 74.9512C420.534 75.0415 421.195 74.861 421.908 74.186C422.166 73.941 422.574 73.9539 422.818 74.2118C423.063 74.4698 423.05 74.8782 422.792 75.1232C422.015 75.8583 421.157 76.2624 420.427 76.2624Z" fill="#6A2EA0"/>
<path d="M394.548 93.6256C393.943 93.6256 393.449 93.1312 393.449 92.5251C393.449 91.9189 393.943 91.4246 394.548 91.4246C395.154 91.4246 395.648 91.9189 395.648 92.5251C395.648 93.1355 395.154 93.6256 394.548 93.6256Z" fill="white"/>
<path d="M411.805 118.091C411.5 118.091 411.23 117.871 411.174 117.562C409.036 105.877 410.019 96.7896 414.094 90.539C418.585 83.6564 426.082 81.8638 428.208 81.4812V79.0566C428.208 78.6998 428.496 78.4118 428.852 78.4118C429.208 78.4118 429.496 78.6998 429.496 79.0566V82.0358C429.496 82.3625 429.251 82.6376 428.929 82.6763C428.839 82.6892 419.998 83.8499 415.172 91.2483C411.281 97.2109 410.362 105.985 412.441 117.334C412.505 117.682 412.273 118.022 411.921 118.086C411.883 118.086 411.844 118.091 411.805 118.091Z" fill="#6A2EA0"/>
<path d="M408.24 124.26C407.935 124.26 407.664 124.04 407.608 123.731C407.544 123.383 407.776 123.043 408.128 122.983C428.906 119.187 446.799 121.513 446.975 121.538C447.327 121.586 447.576 121.908 447.529 122.265C447.481 122.617 447.155 122.867 446.803 122.819C446.627 122.794 428.927 120.498 408.356 124.255C408.317 124.26 408.278 124.26 408.24 124.26Z" fill="#6A2EA0"/>
<path d="M445.757 122.265C445.461 122.265 445.195 122.059 445.131 121.758C443.147 112.739 441.137 98.4835 441.12 98.3373C441.069 97.9848 441.318 97.6581 441.67 97.6108C442.022 97.5592 442.348 97.8085 442.395 98.161C442.417 98.3029 444.418 112.515 446.389 121.483C446.466 121.831 446.247 122.175 445.899 122.252C445.852 122.261 445.805 122.265 445.757 122.265Z" fill="#6A2EA0"/>
<path d="M432.048 160.353C431.361 160.353 430.661 160.314 429.948 160.233C420.604 159.167 411.677 152.624 405.829 147.319C399.526 141.601 395.343 136.052 395.305 135.996C395.09 135.712 395.15 135.308 395.434 135.093C395.717 134.878 396.121 134.938 396.335 135.222C396.499 135.441 412.824 156.983 430.094 158.952C435.113 159.523 439.467 157.907 443.031 154.146C449.768 147.039 451.782 134.289 450.975 129.444C450.915 129.092 451.155 128.761 451.503 128.7C451.855 128.64 452.186 128.881 452.246 129.229C453.092 134.293 450.992 147.62 443.967 155.031C440.61 158.565 436.608 160.353 432.048 160.353Z" fill="#6A2EA0"/>
<path d="M370.754 184.216C370.668 184.216 370.578 184.199 370.496 184.161C356.924 178.207 343.591 167.524 343.458 167.416C343.321 167.309 343.235 167.146 343.222 166.974C343.205 166.802 343.26 166.625 343.376 166.492C344.969 164.635 382.532 121.018 390.566 119.531C398.591 118.048 408.137 122.832 408.54 123.039C408.858 123.198 408.982 123.589 408.824 123.907C408.66 124.225 408.274 124.35 407.956 124.191C407.862 124.144 398.389 119.398 390.798 120.803C389.033 121.13 383.305 124.647 364.781 144.529C355.472 154.524 346.807 164.493 344.789 166.827C347.34 168.813 358.766 177.497 370.484 182.746L380.544 165.155C380.72 164.846 381.115 164.738 381.424 164.914C381.734 165.091 381.841 165.486 381.665 165.796L371.312 183.89C371.192 184.096 370.977 184.216 370.754 184.216Z" fill="#6A2EA0"/>
<path d="M417.005 206.196H389.679C389.374 206.196 389.112 205.986 389.047 205.689C388.953 205.255 379.678 162.257 378.068 153.982C377.175 149.404 377.9 145.41 380.103 142.728C381.791 140.677 384.26 139.546 387.051 139.546H394.793C395.149 139.546 395.437 139.834 395.437 140.191C395.437 140.548 395.149 140.836 394.793 140.836H387.051C384.65 140.836 382.534 141.799 381.095 143.549C379.137 145.926 378.51 149.546 379.33 153.737C380.846 161.509 389.142 200.015 390.198 204.911H416.129C414.695 200.346 407.507 177.841 398.481 156.149C398.344 155.822 398.498 155.444 398.829 155.306C399.159 155.169 399.533 155.323 399.67 155.654C409.752 179.879 417.542 205.113 417.623 205.367C417.683 205.564 417.649 205.775 417.524 205.938C417.4 206.102 417.211 206.196 417.005 206.196Z" fill="#6A2EA0"/>
<path d="M446.19 161.204H400.984C400.628 161.204 400.34 160.916 400.34 160.559C400.34 160.203 400.628 159.915 400.984 159.915H446.19C446.546 159.915 446.834 160.203 446.834 160.559C446.834 160.916 446.546 161.204 446.19 161.204Z" fill="#6A2EA0"/>
<path d="M446.191 172.222H405.73C405.374 172.222 405.086 171.934 405.086 171.578C405.086 171.221 405.374 170.933 405.73 170.933H446.191C446.548 170.933 446.835 171.221 446.835 171.578C446.835 171.934 446.548 172.222 446.191 172.222Z" fill="#6A2EA0"/>
<path d="M443.097 221.135C443.05 221.135 442.999 221.131 442.951 221.118C442.604 221.036 442.389 220.693 442.47 220.344L473.412 85.9479C473.494 85.5997 473.841 85.3848 474.185 85.4665C474.533 85.5482 474.747 85.8921 474.666 86.2403L443.724 220.637C443.656 220.933 443.389 221.135 443.097 221.135Z" fill="#6A2EA0"/>
<path d="M349.207 197.715L372.995 193.562L370.754 183.571L362.591 179.47C362.591 179.47 363.42 190.17 350.585 191.804C350.581 191.799 347.421 192.414 349.207 197.715Z" fill="#6A2EA0"/>
<path d="M403.454 205.551L404.777 220.49H380.529C380.529 220.49 379.104 214.777 384.806 214.777C390.508 214.777 394.493 212.606 395.309 210.77C396.125 208.935 394.57 205.551 394.57 205.551H403.454Z" fill="#6A2EA0"/>
<path d="M278.009 49.2007H260.894C260.538 49.2007 260.25 48.9126 260.25 48.5558V42.8168C260.25 38.3975 263.844 34.7994 268.258 34.7994H270.645C275.06 34.7994 278.654 38.3975 278.654 42.8168V48.5558C278.654 48.9126 278.366 49.2007 278.009 49.2007ZM261.538 47.911H277.365V42.8168C277.365 39.1069 274.351 36.089 270.645 36.089H268.258C264.552 36.089 261.538 39.1069 261.538 42.8168V47.911Z" fill="#6A2EA0"/>
<path d="M269.453 36.0935C269.096 36.0935 268.809 35.8055 268.809 35.4487V0.898481C268.809 0.541673 269.096 0.253647 269.453 0.253647C269.809 0.253647 270.097 0.541673 270.097 0.898481V35.4487C270.097 35.8012 269.809 36.0935 269.453 36.0935Z" fill="#6A2EA0"/>
<path d="M376.049 132.38H306.767C300.197 132.38 294.852 127.028 294.852 120.451V35.5778C294.852 29.0005 300.197 23.6483 306.767 23.6483H451.247C451.604 23.6483 451.892 23.9364 451.892 24.2932C451.892 24.65 451.604 24.938 451.247 24.938H306.767C300.906 24.938 296.14 29.7098 296.14 35.5778V120.447C296.14 126.315 300.906 131.086 306.767 131.086H376.053C376.409 131.086 376.697 131.374 376.697 131.731C376.697 132.088 376.405 132.38 376.049 132.38Z" fill="#6A2EA0"/>
<path d="M422.8 221.187H349.117C348.76 221.187 348.473 220.899 348.473 220.542C348.473 220.185 348.76 219.897 349.117 219.897H422.8C423.156 219.897 423.444 220.185 423.444 220.542C423.444 220.899 423.156 221.187 422.8 221.187Z" fill="#6A2EA0"/>
<path d="M306.634 221.135H274.219C273.91 221.135 273.644 220.916 273.588 220.615C272.047 212.649 271.626 201.274 278.376 192.311C279.758 190.476 284.254 186.822 287.904 186.241C289.192 180.39 291.768 176.203 295.573 173.77C300.863 170.387 306.544 171.677 306.784 171.732C307.076 171.801 307.282 172.059 307.282 172.36V220.491C307.278 220.847 306.99 221.135 306.634 221.135ZM274.752 219.846H305.99V172.902C304.547 172.687 300.219 172.326 296.247 174.866C292.657 177.166 290.244 181.229 289.067 186.938C289.067 186.946 289.063 186.951 289.063 186.959C288.067 192.488 287.951 207.005 287.947 207.151C287.942 207.508 287.642 207.787 287.298 207.792C286.942 207.787 286.654 207.499 286.659 207.142C286.663 206.571 286.766 193.721 287.655 187.604C284.567 188.326 280.626 191.46 279.398 193.089C273.086 201.481 273.343 212.172 274.752 219.846Z" fill="#6A2EA0"/>
<path d="M301.902 178.391C301.546 178.391 301.258 178.103 301.258 177.746V163.998C301.258 163.642 301.546 163.354 301.902 163.354C302.258 163.354 302.546 163.642 302.546 163.998V177.746C302.546 178.103 302.258 178.391 301.902 178.391Z" fill="#6A2EA0"/>
<path d="M306.634 221.135C306.574 221.135 306.509 221.127 306.449 221.109C306.11 221.006 305.913 220.649 306.016 220.306L316.669 184.56C317.107 183.094 316.832 181.547 315.917 180.321C315.003 179.092 313.603 178.391 312.074 178.391H306.638C306.282 178.391 305.994 178.103 305.994 177.746C305.994 177.39 306.282 177.102 306.638 177.102H312.074C314.015 177.102 315.793 177.996 316.952 179.552C318.112 181.108 318.459 183.068 317.905 184.93L307.252 220.675C307.171 220.955 306.913 221.135 306.634 221.135Z" fill="#6A2EA0"/>
<path d="M322.972 221.187H263.089C262.733 221.187 262.445 220.899 262.445 220.542C262.445 220.185 262.733 219.897 263.089 219.897H322.972C323.328 219.897 323.616 220.185 323.616 220.542C323.616 220.899 323.328 221.187 322.972 221.187Z" fill="#6A2EA0"/>
<path d="M356.155 118.091C355.799 118.091 355.511 117.803 355.511 117.446V99.5196H331.204C330.847 99.5196 330.56 99.2316 330.56 98.8748V78.9967H296.273C295.917 78.9967 295.629 78.7087 295.629 78.3518C295.629 77.995 295.917 77.707 296.273 77.707H331.204C331.56 77.707 331.848 77.995 331.848 78.3518V98.2299H356.155C356.512 98.2299 356.799 98.518 356.799 98.8748V117.446C356.799 117.803 356.512 118.091 356.155 118.091Z" fill="#6A2EA0"/>
<path d="M331.203 109.6C330.846 109.6 330.559 109.312 330.559 108.956V98.8703C330.559 98.5135 330.846 98.2255 331.203 98.2255C331.559 98.2255 331.847 98.5135 331.847 98.8703V108.956C331.847 109.312 331.559 109.6 331.203 109.6Z" fill="#6A2EA0"/>
<path d="M367.025 132.38C366.669 132.38 366.381 132.092 366.381 131.736C366.381 123.95 360.056 117.618 352.28 117.618C344.504 117.618 338.179 123.95 338.179 131.736C338.179 132.092 337.891 132.38 337.535 132.38C337.178 132.38 336.891 132.092 336.891 131.736C336.891 123.241 343.795 116.328 352.28 116.328C360.765 116.328 367.669 123.241 367.669 131.736C367.669 132.088 367.381 132.38 367.025 132.38Z" fill="#6A2EA0"/>
<path d="M324.716 101.278H316.949C316.592 101.278 316.305 100.99 316.305 100.633V88.6432C316.305 88.2864 316.592 87.9984 316.949 87.9984H324.716C325.073 87.9984 325.36 88.2864 325.36 88.6432V100.633C325.36 100.99 325.073 101.278 324.716 101.278ZM317.593 99.988H324.072V89.288H317.593V99.988Z" fill="#6A2EA0"/>
<path d="M324.716 124.806H316.949C316.592 124.806 316.305 124.518 316.305 124.161V112.171C316.305 111.814 316.592 111.526 316.949 111.526H324.716C325.073 111.526 325.36 111.814 325.36 112.171V124.161C325.36 124.518 325.073 124.806 324.716 124.806ZM317.593 123.516H324.072V112.816H317.593V123.516Z" fill="#6A2EA0"/>
<path d="M403.28 122.265C403.173 122.265 403.061 122.239 402.958 122.179C389.007 114.114 387.771 104.966 387.723 104.584C387.681 104.231 387.934 103.909 388.286 103.866C388.638 103.823 388.96 104.076 389.003 104.429C389.016 104.532 390.274 113.358 403.602 121.066C403.911 121.242 404.014 121.637 403.838 121.947C403.722 122.149 403.504 122.265 403.28 122.265Z" fill="#6A2EA0"/>
<path d="M391.745 105.151C391.672 105.151 391.599 105.138 391.53 105.112C391.195 104.992 391.019 104.622 391.139 104.287L392.436 100.646C392.556 100.31 392.926 100.134 393.261 100.254C393.595 100.375 393.772 100.744 393.651 101.08L392.355 104.721C392.256 104.983 392.007 105.151 391.745 105.151Z" fill="#6A2EA0"/>
<path d="M388.366 105.151C388.293 105.151 388.22 105.138 388.151 105.112C387.816 104.992 387.64 104.622 387.76 104.287L390.702 96.0415C390.822 95.7062 391.191 95.53 391.526 95.6503C391.861 95.7707 392.037 96.1404 391.917 96.4757L388.976 104.721C388.881 104.983 388.632 105.151 388.366 105.151Z" fill="#6A2EA0"/>
<path d="M393.643 110.387C393.57 110.387 393.497 110.374 393.429 110.348C393.094 110.228 392.918 109.858 393.038 109.523L395.215 103.423C395.335 103.087 395.704 102.911 396.039 103.032C396.374 103.152 396.55 103.522 396.43 103.857L394.253 109.957C394.154 110.224 393.905 110.387 393.643 110.387Z" fill="#6A2EA0"/>
<path d="M396.417 113.169C396.344 113.169 396.271 113.156 396.202 113.13C395.867 113.009 395.691 112.64 395.811 112.304L397.988 106.204C398.108 105.869 398.478 105.693 398.813 105.813C399.148 105.934 399.324 106.303 399.203 106.639L397.026 112.739C396.928 113.001 396.683 113.169 396.417 113.169Z" fill="#6A2EA0"/>
<path d="M423.641 122.295C423.319 122.295 423.04 122.05 423.001 121.719C421.992 112.562 418.844 103.934 418.81 103.844C418.686 103.509 418.857 103.139 419.192 103.015C419.527 102.89 419.896 103.062 420.021 103.397C420.055 103.483 423.254 112.257 424.281 121.573C424.319 121.925 424.066 122.244 423.709 122.286C423.688 122.295 423.667 122.295 423.641 122.295Z" fill="#6A2EA0"/>
<path d="M413.274 119.101C413.145 119.101 413.021 119.062 412.909 118.985C412.857 118.951 407.885 115.542 399.959 114.26C399.606 114.205 399.37 113.874 399.426 113.521C399.482 113.169 399.813 112.932 400.165 112.988C408.4 114.316 413.437 117.781 413.648 117.927C413.94 118.129 414.012 118.534 413.806 118.826C413.682 119.002 413.48 119.101 413.274 119.101Z" fill="#6A2EA0"/>
<path d="M439.863 54.7767C439.755 54.7767 439.644 54.7509 439.545 54.6907L430.317 49.4159C430.008 49.2397 429.901 48.8442 430.077 48.5347C430.253 48.2251 430.648 48.1177 430.957 48.2939L440.185 53.5687C440.494 53.7449 440.601 54.1404 440.425 54.45C440.301 54.6606 440.086 54.7767 439.863 54.7767Z" fill="#6A2EA0"/>
<path d="M424.238 76.9503C423.916 76.9503 423.642 76.7096 423.599 76.3829C423.556 76.0304 423.805 75.708 424.157 75.665C424.268 75.6521 426.72 75.2996 427.016 72.8836C427.059 72.5311 427.381 72.2775 427.734 72.3204C428.086 72.3634 428.339 72.6858 428.296 73.0384C427.957 75.781 425.544 76.7913 424.316 76.9417C424.29 76.946 424.264 76.9503 424.238 76.9503Z" fill="#6A2EA0"/>
<path d="M430.326 88.1319C429.862 88.1319 429.407 88.1018 428.956 88.0416C424.611 87.4699 422.537 84.3188 422.451 84.1855C422.258 83.8846 422.343 83.4891 422.644 83.2957C422.945 83.1022 423.34 83.1882 423.533 83.4848C423.554 83.5149 425.401 86.2834 429.149 86.7649C433.074 87.2678 437.612 85.213 442.645 80.6475C442.907 80.4068 443.315 80.4283 443.555 80.6905C443.796 80.9528 443.774 81.3612 443.512 81.6019C438.733 85.9395 434.306 88.1319 430.326 88.1319Z" fill="#6A2EA0"/>
<path d="M380.373 58.4478C383.613 58.4478 386.239 55.8187 386.239 52.5755C386.239 49.3323 383.613 46.7032 380.373 46.7032C377.134 46.7032 374.508 49.3323 374.508 52.5755C374.508 55.8187 377.134 58.4478 380.373 58.4478Z" fill="#FF4C84"/>
<path d="M380.487 55.3914C380.302 55.3914 380.126 55.314 380.006 55.1722L376.627 51.3419C376.39 51.0753 376.416 50.6669 376.682 50.4305C376.949 50.194 377.357 50.2198 377.593 50.4864L380.401 53.6719L384.776 46.699C384.965 46.3981 385.365 46.3078 385.665 46.497C385.966 46.6861 386.056 47.0859 385.867 47.3869L381.032 55.0905C380.925 55.2624 380.74 55.3742 380.538 55.3914C380.521 55.3871 380.504 55.3914 380.487 55.3914Z" fill="#6A2EA0"/>
<path d="M385.676 95.8311C385.569 95.8311 385.457 95.8053 385.354 95.7451L385.281 95.7021C384.972 95.5259 384.869 95.1304 385.045 94.8209C385.221 94.5114 385.616 94.4082 385.925 94.5844L385.998 94.6274C386.307 94.8037 386.41 95.1992 386.234 95.5087C386.118 95.715 385.899 95.8311 385.676 95.8311ZM383.053 94.2018C382.928 94.2018 382.803 94.1674 382.696 94.0944L382.623 94.0471C382.327 93.8493 382.25 93.4495 382.447 93.1529C382.645 92.8563 383.044 92.7789 383.34 92.9766L383.413 93.0239C383.709 93.2217 383.787 93.6215 383.589 93.9181C383.465 94.103 383.259 94.2018 383.053 94.2018ZM380.554 92.3834C380.412 92.3834 380.27 92.3361 380.154 92.2415L380.085 92.1899C379.806 91.9664 379.759 91.5623 379.982 91.2829C380.201 91.0034 380.609 90.9562 380.888 91.1797L380.957 91.2313C381.236 91.4548 381.283 91.8589 381.06 92.1384C380.931 92.2974 380.742 92.3834 380.554 92.3834ZM378.222 90.3543C378.063 90.3543 377.9 90.2941 377.775 90.1738L377.711 90.1136C377.453 89.8642 377.449 89.4601 377.694 89.2022C377.943 88.9443 378.346 88.94 378.604 89.185L378.664 89.2409C378.922 89.4859 378.93 89.8943 378.686 90.1523C378.561 90.2855 378.394 90.3543 378.222 90.3543ZM376.105 88.106C375.92 88.106 375.74 88.0286 375.611 87.8781L375.555 87.8137C375.328 87.5428 375.362 87.1344 375.633 86.9066C375.903 86.6788 376.311 86.7131 376.539 86.984L376.595 87.0485C376.822 87.3193 376.788 87.7277 376.517 87.9555C376.397 88.0544 376.251 88.106 376.105 88.106ZM373.713 85.3375L373.666 85.2644C373.473 84.9678 373.559 84.568 373.855 84.3745C374.156 84.1811 374.551 84.2671 374.748 84.5637L374.783 84.6153L374.254 84.985L373.713 85.3375ZM372.73 82.943C372.49 82.943 372.258 82.8097 372.15 82.5776L372.112 82.5002C371.957 82.1778 372.095 81.7952 372.412 81.6404C372.734 81.4857 373.117 81.6233 373.271 81.9414L373.31 82.0187C373.464 82.3412 373.327 82.7238 373.005 82.8785C372.919 82.9215 372.82 82.943 372.73 82.943ZM371.584 80.0713C371.313 80.0713 371.06 79.8994 370.97 79.6243L370.944 79.5383C370.836 79.1987 371.025 78.8376 371.365 78.7301C371.704 78.6226 372.065 78.8118 372.172 79.1514L372.198 79.2288C372.305 79.5684 372.12 79.9295 371.781 80.0413C371.717 80.0585 371.648 80.0713 371.584 80.0713ZM370.849 77.0664C370.54 77.0664 370.27 76.8429 370.214 76.5291L370.201 76.4431C370.141 76.0906 370.377 75.7596 370.729 75.6994C371.077 75.6392 371.412 75.8756 371.472 76.2281L371.485 76.3141C371.545 76.6666 371.309 76.9976 370.957 77.0578C370.918 77.0621 370.884 77.0664 370.849 77.0664ZM370.532 73.9884C370.188 73.9884 369.9 73.7133 369.888 73.3651L369.883 73.2791C369.87 72.9223 370.149 72.6257 370.502 72.6128C370.854 72.5956 371.154 72.8793 371.167 73.2318L371.171 73.3178C371.184 73.6746 370.905 73.9712 370.553 73.9841C370.544 73.9884 370.536 73.9884 370.532 73.9884ZM370.613 70.8975C370.596 70.8975 370.575 70.8975 370.557 70.8932C370.201 70.8631 369.939 70.5493 369.973 70.1925L369.982 70.1065C370.012 69.7497 370.326 69.4918 370.682 69.5219C371.038 69.5519 371.3 69.8658 371.266 70.2226L371.257 70.3086C371.223 70.6439 370.94 70.8975 370.613 70.8975ZM371.055 67.8367C371.013 67.8367 370.965 67.8324 370.922 67.8238C370.575 67.7507 370.351 67.4068 370.424 67.0586L370.441 66.9726C370.514 66.6244 370.858 66.4009 371.206 66.4739C371.554 66.547 371.777 66.8909 371.704 67.2391L371.073 67.1059L371.695 67.2778L371.687 67.3208C371.622 67.626 371.356 67.8367 371.055 67.8367ZM371.833 64.8404C371.768 64.8404 371.7 64.8318 371.635 64.8103C371.296 64.7028 371.111 64.3374 371.219 63.9978L371.244 63.9204C371.352 63.5808 371.712 63.3916 372.052 63.4991C372.391 63.6066 372.58 63.9677 372.472 64.3073L372.447 64.3933C372.357 64.6641 372.103 64.8404 371.833 64.8404ZM372.91 61.9386C372.825 61.9386 372.739 61.9214 372.657 61.887C372.331 61.7452 372.176 61.3668 372.318 61.0401L372.352 60.9585C372.494 60.6317 372.872 60.4813 373.198 60.6231C373.524 60.765 373.675 61.1433 373.533 61.47L373.499 61.5474C373.396 61.7924 373.159 61.9386 372.91 61.9386ZM374.293 59.1658C374.181 59.1658 374.065 59.1357 373.962 59.0755C373.658 58.8907 373.559 58.4952 373.739 58.19L373.791 58.104C373.98 57.8031 374.379 57.7128 374.68 57.9019C374.98 58.0911 375.07 58.4866 374.881 58.7918L374.843 58.8563C374.727 59.054 374.512 59.1658 374.293 59.1658Z" fill="#6A2EA0"/>
<path d="M301.904 165.305C303.156 165.305 304.171 164.289 304.171 163.036C304.171 161.782 303.156 160.766 301.904 160.766C300.652 160.766 299.637 161.782 299.637 163.036C299.637 164.289 300.652 165.305 301.904 165.305Z" fill="#0061FF"/>
<path d="M67.8228 108.521H27.0009C23.7032 108.521 21.0195 105.834 21.0195 102.533V71.9505C21.0195 68.649 23.7032 65.9622 27.0009 65.9622H83.0918C86.3895 65.9622 89.0732 68.649 89.0732 71.9505V87.2417C89.0732 87.5985 88.7855 87.8865 88.4291 87.8865C88.0727 87.8865 87.785 87.5985 87.785 87.2417V71.9505C87.785 69.3626 85.681 67.2518 83.0918 67.2518H27.0009C24.416 67.2518 22.3077 69.3583 22.3077 71.9505V102.533C22.3077 105.121 24.4117 107.232 27.0009 107.232H67.8228C68.1792 107.232 68.4669 107.52 68.4669 107.876C68.4669 108.233 68.1792 108.521 67.8228 108.521Z" fill="#6A2EA0"/>
<path d="M78.1291 87.8908H67.8238C67.4674 87.8908 67.1797 87.6027 67.1797 87.2459V83.2996C67.1797 82.9427 67.4674 82.6547 67.8238 82.6547C68.1802 82.6547 68.4679 82.9427 68.4679 83.2996V86.6011H77.485V76.7136H71.4306C71.0742 76.7136 70.7865 76.4256 70.7865 76.0688C70.7865 75.712 71.0742 75.424 71.4306 75.424H78.1291C78.4855 75.424 78.7732 75.712 78.7732 76.0688V87.2459C78.7732 87.6027 78.4812 87.8908 78.1291 87.8908Z" fill="#6A2EA0"/>
<path d="M72.975 84.7915C72.7903 84.7915 72.6143 84.7141 72.4941 84.5722L67.3414 78.73C67.1052 78.4635 67.131 78.0551 67.3972 77.8186C67.6635 77.5822 68.0714 77.608 68.3075 77.8745L72.8891 83.0676L79.7979 72.0538C79.9869 71.7529 80.3862 71.6626 80.6868 71.8518C80.9874 72.0409 81.0775 72.4407 80.8886 72.7417L73.5246 84.4819C73.4172 84.6539 73.2326 84.7657 73.0308 84.7829C73.0093 84.7914 72.9922 84.7915 72.975 84.7915Z" fill="#6A2EA0"/>
<path d="M21.8953 95.0359C19.3319 95.0359 16.7556 94.4556 14.5013 93.2992C9.5805 90.7757 4.41926 90.7542 1.0271 93.2433C0.739408 93.4539 0.335783 93.3937 0.125383 93.1057C-0.0850166 92.8177 -0.0249023 92.4136 0.262787 92.2029C4.04999 89.4216 9.72649 89.4001 15.0852 92.1471C19.2374 94.275 24.5618 94.2793 28.641 92.1471C33.2956 89.7225 38.9592 89.7311 43.4291 92.1729C43.7426 92.3448 43.8542 92.736 43.6868 93.0498C43.515 93.3636 43.1243 93.4754 42.8108 93.3078C38.7746 91.1024 33.4459 91.0981 29.2336 93.2949C27.0179 94.4556 24.4588 95.0359 21.8953 95.0359Z" fill="#6A2EA0"/>
<path d="M131.437 60.7948H106.207C105.85 60.7948 105.562 60.5068 105.562 60.15V35.4442C105.562 35.0874 105.85 34.7994 106.207 34.7994H119.346C119.702 34.7994 119.99 35.0874 119.99 35.4442C119.99 35.801 119.702 36.0891 119.346 36.0891H106.851V59.5051H130.793V47.5499C130.793 47.1931 131.081 46.9051 131.437 46.9051C131.794 46.9051 132.081 47.1931 132.081 47.5499V60.15C132.081 60.5068 131.794 60.7948 131.437 60.7948Z" fill="#6A2EA0"/>
<path d="M131.446 41.5573C128.079 41.5573 125.34 38.8146 125.34 35.4442C125.34 32.0739 128.079 29.3312 131.446 29.3312C134.812 29.3312 137.552 32.0739 137.552 35.4442C137.556 38.8146 134.812 41.5573 131.446 41.5573ZM131.446 30.6166C128.788 30.6166 126.628 32.7789 126.628 35.4399C126.628 38.101 128.788 40.2633 131.446 40.2633C134.104 40.2633 136.263 38.101 136.263 35.4399C136.263 32.7789 134.104 30.6166 131.446 30.6166Z" fill="#6A2EA0"/>
<path d="M118.86 48.4744C118.693 48.4744 118.53 48.4099 118.405 48.2852C118.156 48.0316 118.156 47.6232 118.409 47.3739L143.692 22.2511C143.945 22.0018 144.353 22.0018 144.602 22.2554C144.851 22.509 144.851 22.9174 144.598 23.1668L119.315 48.2895C119.186 48.4142 119.023 48.4744 118.86 48.4744Z" fill="#6A2EA0"/>
<path d="M49.5811 161.63H15.9214C15.565 161.63 15.2773 161.342 15.2773 160.985C15.2773 160.628 15.565 160.34 15.9214 160.34H49.5811C49.9375 160.34 50.2252 160.628 50.2252 160.985C50.2252 161.342 49.9375 161.63 49.5811 161.63Z" fill="#6A2EA0"/>
<path d="M55.6119 168.925H31.9097C31.5533 168.925 31.2656 168.637 31.2656 168.28C31.2656 167.923 31.5533 167.635 31.9097 167.635H55.6076C55.964 167.635 56.2517 167.923 56.2517 168.28C56.2517 168.637 55.964 168.925 55.6119 168.925Z" fill="#6A2EA0"/>
<path d="M49.5807 177.02H24.2339C23.8775 177.02 23.5898 176.732 23.5898 176.375C23.5898 176.018 23.8775 175.73 24.2339 175.73H49.5807C49.9371 175.73 50.2248 176.018 50.2248 176.375C50.2248 176.732 49.9371 177.02 49.5807 177.02Z" fill="#6A2EA0"/>
<path d="M42.0483 199.748H27.17C20.1324 199.748 20.0508 192.848 20.0508 192.78V176.659C20.0508 176.302 20.3385 176.014 20.6949 176.014C21.0513 176.014 21.3389 176.302 21.3389 176.659V192.78C21.3389 193.012 21.4291 198.459 27.17 198.459H42.0483C42.4047 198.459 42.6924 198.747 42.6924 199.103C42.6924 199.46 42.4047 199.748 42.0483 199.748Z" fill="#6A2EA0"/>
<path d="M42.0459 208.471C41.7454 208.471 41.4749 208.26 41.4147 207.951C41.346 207.602 41.5693 207.263 41.9214 207.19C45.9791 206.377 49.367 204.232 51.7458 201.911C50.1056 199.563 49.9596 196.894 50.8742 195.002C51.7072 193.274 53.3303 192.47 55.0092 192.956C56.2243 193.308 56.8856 194.297 56.8255 195.673C56.7525 197.423 55.5201 199.77 53.4677 201.997C53.8627 202.426 54.3307 202.835 54.8675 203.217C59.1656 206.27 62.9228 202.048 63.0773 201.868C63.2105 201.713 63.408 201.631 63.6141 201.648C63.8159 201.666 64.0005 201.773 64.1079 201.945C64.1852 202.065 66.0616 204.911 69.0415 203.183C69.3507 203.007 69.7414 203.11 69.9218 203.419C70.0978 203.729 69.9948 204.12 69.6856 204.301C66.8989 205.913 64.6403 204.563 63.4939 203.265C62.1069 204.52 58.3154 207.25 54.1203 204.271C53.5278 203.849 53.0082 203.394 52.5617 202.917C49.951 205.418 46.3184 207.628 42.1791 208.458C42.1318 208.466 42.0889 208.471 42.0459 208.471ZM54.0344 194.108C53.21 194.108 52.4844 194.624 52.0292 195.565C51.325 197.027 51.4324 199.082 52.6518 200.965C54.4467 198.957 55.4772 196.937 55.533 195.621C55.576 194.59 55.0478 194.314 54.6442 194.198C54.4381 194.138 54.232 194.108 54.0344 194.108Z" fill="#6A2EA0"/>
<path d="M111.609 114.781C111.253 114.781 110.965 114.493 110.965 114.136V114.05C110.965 113.693 111.253 113.405 111.609 113.405C111.965 113.405 112.253 113.693 112.253 114.05V114.136C112.253 114.493 111.961 114.781 111.609 114.781ZM111.609 111.685C111.253 111.685 110.965 111.397 110.965 111.041V110.955C110.965 110.598 111.253 110.31 111.609 110.31C111.965 110.31 112.253 110.598 112.253 110.955V111.041C112.253 111.397 111.961 111.685 111.609 111.685ZM111.609 108.59C111.253 108.59 110.965 108.302 110.965 107.945V107.859C110.965 107.503 111.253 107.214 111.609 107.214C111.965 107.214 112.253 107.503 112.253 107.859V107.945C112.253 108.302 111.961 108.59 111.609 108.59ZM111.613 105.495C111.609 105.495 111.605 105.495 111.6 105.495C111.244 105.486 110.965 105.194 110.969 104.837V104.751C110.978 104.394 111.27 104.111 111.626 104.119C111.982 104.128 112.262 104.42 112.257 104.777V104.863C112.249 105.216 111.961 105.495 111.613 105.495ZM111.849 102.413C111.819 102.413 111.794 102.413 111.763 102.408C111.411 102.361 111.162 102.039 111.21 101.686L111.222 101.6C111.27 101.248 111.596 100.998 111.948 101.05C112.3 101.097 112.549 101.424 112.498 101.776L112.485 101.858C112.446 102.176 112.167 102.413 111.849 102.413ZM112.433 99.3733C112.382 99.3733 112.326 99.369 112.274 99.3518C111.931 99.2658 111.721 98.9133 111.806 98.5694L111.828 98.4834C111.918 98.1395 112.266 97.9332 112.614 98.0192C112.957 98.1094 113.163 98.4576 113.077 98.8059L113.056 98.8875C112.983 99.1799 112.721 99.3733 112.433 99.3733ZM113.365 96.4243C113.288 96.4243 113.211 96.4114 113.138 96.3813C112.807 96.2566 112.639 95.8826 112.764 95.5516L112.794 95.4699C112.923 95.1389 113.292 94.9712 113.627 95.1002C113.958 95.2292 114.125 95.5989 113.996 95.9342L113.966 96.0116C113.868 96.2652 113.623 96.4243 113.365 96.4243ZM114.623 93.5999C114.524 93.5999 114.421 93.5784 114.327 93.5268C114.009 93.3635 113.889 92.9722 114.052 92.6584L114.095 92.5811C114.258 92.2672 114.649 92.1426 114.967 92.3102C115.28 92.4736 115.405 92.8648 115.237 93.1829L115.199 93.256C115.083 93.4709 114.855 93.5999 114.623 93.5999ZM116.199 90.9346C116.075 90.9346 115.95 90.9002 115.838 90.8228C115.542 90.6251 115.465 90.221 115.662 89.9286L115.71 89.8556C115.907 89.5589 116.311 89.4815 116.603 89.6836C116.899 89.8813 116.976 90.2854 116.774 90.5778L116.727 90.6465C116.607 90.8357 116.405 90.9346 116.199 90.9346ZM118.067 88.4713C117.921 88.4713 117.771 88.4197 117.65 88.3166C117.38 88.0844 117.346 87.6803 117.577 87.4095L117.638 87.3407C117.869 87.0699 118.277 87.0398 118.548 87.2719C118.818 87.5041 118.848 87.9125 118.617 88.1833L118.565 88.2478C118.428 88.3939 118.247 88.4713 118.067 88.4713ZM120.197 86.2359C120.025 86.2359 119.853 86.1671 119.724 86.0295C119.48 85.7673 119.497 85.3632 119.754 85.1182L119.819 85.058C120.081 84.8172 120.489 84.8301 120.729 85.0924C120.97 85.3546 120.957 85.763 120.695 86.0037L120.635 86.0596C120.514 86.1757 120.356 86.2359 120.197 86.2359ZM122.571 84.2541C122.374 84.2541 122.18 84.1638 122.052 83.9919C121.841 83.7038 121.901 83.2997 122.185 83.0891L122.253 83.0375C122.541 82.8269 122.945 82.887 123.155 83.1751C123.366 83.4631 123.305 83.8672 123.018 84.0778L122.949 84.1294C122.837 84.2111 122.704 84.2541 122.571 84.2541ZM125.152 82.5517C124.929 82.5517 124.714 82.4357 124.594 82.2293C124.418 81.9198 124.521 81.5243 124.83 81.348L124.903 81.3051C125.212 81.1288 125.607 81.232 125.783 81.5415C125.959 81.851 125.856 82.2465 125.547 82.4228L125.474 82.4658C125.371 82.5259 125.259 82.5517 125.152 82.5517ZM127.908 81.1589C127.659 81.1589 127.423 81.0127 127.316 80.772C127.174 80.4453 127.325 80.067 127.651 79.9251L127.732 79.8907C128.059 79.7488 128.437 79.8993 128.578 80.2303C128.72 80.557 128.57 80.9353 128.239 81.0772L128.162 81.1116C128.08 81.1417 127.994 81.1589 127.908 81.1589ZM130.807 80.0928C130.532 80.0928 130.274 79.9122 130.193 79.6371C130.09 79.2975 130.279 78.9364 130.618 78.8332L130.704 78.8074C131.047 78.7042 131.404 78.8977 131.507 79.2373C131.61 79.5769 131.417 79.938 131.077 80.0412L131 80.067C130.931 80.0842 130.867 80.0928 130.807 80.0928ZM133.808 79.3619C133.503 79.3619 133.233 79.1427 133.177 78.8332C133.113 78.485 133.345 78.1454 133.697 78.0852L133.782 78.068C134.13 78.0078 134.465 78.2399 134.53 78.5881C134.594 78.9364 134.358 79.2717 134.01 79.3362L133.928 79.3491C133.886 79.3577 133.843 79.3619 133.808 79.3619ZM136.87 78.9793C136.535 78.9793 136.251 78.7171 136.226 78.3775C136.204 78.0207 136.47 77.7155 136.827 77.6897L136.913 77.6854C137.265 77.6639 137.574 77.9304 137.6 78.2872C137.626 78.644 137.355 78.9493 136.999 78.975L136.913 78.9793C136.9 78.9793 136.887 78.9793 136.87 78.9793ZM146.23 78.9192H146.145C145.788 78.9192 145.5 78.6311 145.5 78.2743C145.5 77.9175 145.788 77.6295 146.145 77.6295H146.23C146.587 77.6295 146.875 77.9175 146.875 78.2743C146.875 78.6311 146.587 78.9192 146.23 78.9192ZM143.139 78.9192H143.053C142.697 78.9192 142.409 78.6311 142.409 78.2743C142.409 77.9175 142.697 77.6295 143.053 77.6295H143.139C143.495 77.6295 143.783 77.9175 143.783 78.2743C143.783 78.6311 143.495 78.9192 143.139 78.9192ZM140.047 78.9192H139.961C139.605 78.9192 139.317 78.6311 139.317 78.2743C139.317 77.9175 139.605 77.6295 139.961 77.6295H140.047C140.404 77.6295 140.691 77.9175 140.691 78.2743C140.691 78.6311 140.404 78.9192 140.047 78.9192ZM149.232 78.8461C148.897 78.8461 148.614 78.5881 148.592 78.2485C148.566 77.8917 148.833 77.5822 149.189 77.5564L149.275 77.5521C149.631 77.5263 149.94 77.7928 149.966 78.1497C149.992 78.5065 149.726 78.816 149.369 78.8418L149.283 78.8461C149.266 78.8461 149.249 78.8461 149.232 78.8461ZM152.298 78.4506C151.993 78.4506 151.727 78.2356 151.666 77.9261C151.602 77.5779 151.83 77.2383 152.177 77.1738L152.263 77.1566C152.611 77.0921 152.95 77.32 153.015 77.6682C153.079 78.0164 152.852 78.356 152.504 78.4205L152.418 78.4377C152.379 78.4463 152.336 78.4506 152.298 78.4506ZM155.295 77.7026C155.02 77.7026 154.767 77.5263 154.681 77.2469C154.578 76.9073 154.767 76.5462 155.106 76.4387L155.187 76.4129C155.527 76.3054 155.887 76.4946 155.995 76.8342C156.102 77.1738 155.913 77.5349 155.574 77.6424L155.488 77.6682C155.424 77.694 155.359 77.7026 155.295 77.7026ZM158.189 76.615C157.94 76.615 157.708 76.4731 157.601 76.2324C157.459 75.9056 157.605 75.5273 157.931 75.3812L158.009 75.3468C158.335 75.2006 158.713 75.3511 158.859 75.6735C159.005 76.0002 158.859 76.3785 158.532 76.5247L158.451 76.5591C158.365 76.5978 158.275 76.615 158.189 76.615ZM160.941 75.2049C160.718 75.2049 160.503 75.0888 160.383 74.8868C160.203 74.5773 160.306 74.1861 160.615 74.0055L160.688 73.9625C160.993 73.782 161.388 73.8809 161.568 74.1904C161.749 74.4956 161.65 74.8911 161.341 75.0717L161.263 75.1189C161.165 75.1791 161.049 75.2049 160.941 75.2049ZM163.513 73.4897C163.316 73.4897 163.123 73.3994 162.998 73.2317C162.783 72.948 162.843 72.5439 163.127 72.329L163.196 72.2774C163.479 72.0624 163.883 72.1183 164.097 72.402C164.312 72.6858 164.256 73.0899 163.973 73.3048L163.904 73.3564C163.784 73.4467 163.646 73.4897 163.513 73.4897ZM165.871 71.495C165.699 71.495 165.531 71.4262 165.403 71.2929C165.158 71.035 165.166 70.6266 165.428 70.3816L165.493 70.3214C165.75 70.0763 166.158 70.0849 166.403 70.3429C166.648 70.6008 166.639 71.0092 166.377 71.2542L166.313 71.3144C166.193 71.4348 166.03 71.495 165.871 71.495ZM167.992 69.2466C167.846 69.2466 167.7 69.1951 167.575 69.0962C167.305 68.8683 167.27 68.4599 167.498 68.1891L167.554 68.1246C167.781 67.8495 168.189 67.8151 168.46 68.043C168.735 68.2708 168.769 68.6792 168.541 68.95L168.486 69.0188C168.357 69.1693 168.176 69.2466 167.992 69.2466ZM169.842 66.7705C169.718 66.7705 169.598 66.7361 169.486 66.663C169.19 66.4653 169.108 66.0655 169.306 65.7688L169.353 65.7001C169.55 65.4034 169.95 65.3218 170.246 65.5152C170.542 65.713 170.624 66.1127 170.431 66.4094L170.383 66.4825C170.255 66.6716 170.053 66.7705 169.842 66.7705ZM171.401 64.1009C171.302 64.1009 171.204 64.0794 171.109 64.0278C170.791 63.8644 170.667 63.4775 170.83 63.1594L170.869 63.0863C171.028 62.7682 171.418 62.6435 171.736 62.8026C172.054 62.9617 172.178 63.3529 172.019 63.671L171.981 63.7484C171.861 63.9719 171.633 64.1009 171.401 64.1009ZM172.646 61.2722C172.573 61.2722 172.496 61.2593 172.423 61.2335C172.088 61.1088 171.921 60.7391 172.045 60.4038L172.075 60.3221C172.2 59.9868 172.569 59.8192 172.904 59.9438C173.239 60.0685 173.406 60.4382 173.282 60.7735L173.252 60.8552C173.153 61.1088 172.908 61.2722 172.646 61.2722ZM173.557 58.3146C173.505 58.3146 173.454 58.3103 173.402 58.2974C173.059 58.2114 172.844 57.8632 172.93 57.5193L172.951 57.4376C173.037 57.0937 173.385 56.8787 173.728 56.9647C174.072 57.0507 174.287 57.3989 174.201 57.7428L174.179 57.8245C174.111 58.1211 173.849 58.3146 173.557 58.3146ZM174.128 55.2752C174.102 55.2752 174.072 55.2752 174.046 55.2709C173.694 55.2237 173.445 54.9012 173.488 54.5487L173.497 54.4756L174.776 54.6261L174.763 54.7121C174.725 55.0388 174.446 55.2752 174.128 55.2752ZM174.347 52.1929C174.342 52.1929 174.342 52.1929 174.338 52.1929C173.982 52.1886 173.698 51.8963 173.703 51.5395V51.4578C173.707 51.101 174.003 50.8302 174.355 50.8216C174.712 50.8259 174.995 51.1182 174.991 51.475V51.5653C174.982 51.9092 174.699 52.1929 174.347 52.1929Z" fill="#6A2EA0"/>
<path d="M173.631 43.9392C176.87 43.9392 179.496 41.3101 179.496 38.0669C179.496 34.8237 176.87 32.1946 173.631 32.1946C170.392 32.1946 167.766 34.8237 167.766 38.0669C167.766 41.3101 170.392 43.9392 173.631 43.9392Z" fill="#FF4C84"/>
<path d="M173.745 40.8782C173.56 40.8782 173.384 40.8008 173.264 40.6589L169.884 36.8286C169.648 36.5621 169.674 36.1537 169.94 35.9172C170.206 35.6808 170.614 35.7066 170.851 35.9731L173.659 39.1586L178.034 32.1858C178.223 31.8849 178.622 31.7946 178.923 31.9837C179.224 32.1729 179.314 32.5727 179.125 32.8736L174.29 40.5772C174.183 40.7492 173.998 40.861 173.796 40.8782C173.779 40.8782 173.762 40.8782 173.745 40.8782Z" fill="#6A2EA0"/>
<path d="M223.277 174.024C222.925 174.024 222.637 173.74 222.633 173.383C222.629 173.026 222.916 172.734 223.273 172.734C235.489 172.639 245.429 162.614 245.429 150.38V16.4218C245.429 7.36831 252.789 0 261.832 0H304.088C304.444 0 304.732 0.288026 304.732 0.644834C304.732 1.00164 304.444 1.28967 304.088 1.28967H261.832C253.497 1.28967 246.717 8.07763 246.717 16.4218V150.384C246.717 163.324 236.206 173.929 223.281 174.028C223.281 174.024 223.281 174.024 223.277 174.024Z" fill="#6A2EA0"/>
<path d="M211.318 72.2732C212.57 72.2732 213.585 71.257 213.585 70.0034C213.585 68.7498 212.57 67.7336 211.318 67.7336C210.066 67.7336 209.051 68.7498 209.051 70.0034C209.051 71.257 210.066 72.2732 211.318 72.2732Z" fill="#0061FF"/>
<path d="M477.736 72.3117C478.988 72.3117 480.003 71.2955 480.003 70.0419C480.003 68.7883 478.988 67.7721 477.736 67.7721C476.484 67.7721 475.469 68.7883 475.469 70.0419C475.469 71.2955 476.484 72.3117 477.736 72.3117Z" fill="#0061FF"/>
</g>
<defs>
<linearGradient id="paint0_linear" x1="589.81" y1="-2.75105" x2="885.909" y2="293.003" gradientUnits="userSpaceOnUse">
<stop stop-color="#FF4C84"/>
<stop offset="0.5328" stop-color="#4C90FF"/>
<stop offset="1" stop-color="#F2528D"/>
</linearGradient>
<linearGradient id="paint1_linear" x1="94.0574" y1="-27.358" x2="367.928" y2="246.193" gradientUnits="userSpaceOnUse">
<stop stop-color="#4C90FF"/>
<stop offset="0.2092" stop-color="#6D84E9"/>
<stop offset="0.666" stop-color="#BF65B0"/>
<stop offset="1" stop-color="#FF4C84"/>
</linearGradient>
<clipPath id="clip0">
<rect width="953" height="246" fill="white"/>
</clipPath>
</defs>
</svg>
